<svg xmlns="http://www.w3.org/2000/svg" width="408" height="612" viewBox="0 0 408 612">
<g>
<path d="M 200.25 330.86 C201.25,331.88 201.57,331.70 201.83,329.96 C201.94,329.26 201.96,328.51 201.92,327.77 C202.32,329.61 202.96,330.00 204.86,329.98 C208.39,329.96 209.21,329.29 212.34,323.91 C215.90,317.77 215.78,314.76 211.87,311.69 C208.89,309.36 208.63,307.00 211.35,307.00 C211.97,307.00 213.75,304.92 215.45,302.24 C214.22,304.39 213.49,306.16 213.76,306.42 C214.97,307.64 215.76,306.83 218.36,301.69 C219.61,299.21 220.59,296.36 221.20,293.78 C220.83,296.24 220.05,298.35 218.59,301.23 C218.51,301.39 218.44,301.54 218.36,301.69 C215.79,306.79 215.81,307.06 217.47,309.59 L 219.22 312.26 L 221.56 309.38 C221.59,309.35 221.62,309.31 221.65,309.27 C220.64,310.77 220.11,312.37 220.47,312.96 C221.54,314.68 223.24,313.73 225.76,310.01 C229.52,304.47 230.53,299.67 228.97,294.75 L 228.69 293.85 C229.38,295.53 229.93,298.08 229.95,299.75 C230.01,303.53 231.13,303.85 233.92,300.86 C233.97,300.80 234.03,300.74 234.09,300.68 C234.03,300.87 234.00,301.09 234.00,301.33 C234.00,302.09 232.66,305.37 231.01,308.61 C231.40,307.47 231.17,306.91 230.43,306.23 C229.29,305.18 228.60,305.67 226.48,309.03 C225.07,311.27 223.26,313.35 222.46,313.65 C221.66,313.96 221.00,315.35 221.00,316.74 C221.00,318.15 219.90,320.29 218.50,321.59 C215.94,323.96 215.14,327.00 217.08,327.00 C218.65,327.00 217.36,332.10 213.29,342.00 C206.96,357.37 203.08,364.00 200.41,364.00 C198.35,364.00 193.42,353.11 192.02,345.50 C191.31,341.65 190.29,337.93 189.74,337.24 C189.05,336.37 189.40,334.16 190.87,330.14 C192.04,326.92 193.00,323.39 193.00,322.29 C193.00,321.18 194.57,316.87 196.50,312.71 C198.43,308.54 200.00,304.95 200.00,304.72 C200.00,304.61 199.30,304.32 198.18,303.93 C201.96,305.09 205.37,306.18 206.18,306.50 C206.94,306.80 207.99,306.41 209.50,305.22 C208.19,306.30 207.13,307.00 206.71,307.00 C205.08,307.00 203.00,312.56 203.00,316.89 C203.00,318.67 202.60,320.89 202.12,321.82 C201.72,322.58 201.53,324.22 201.63,325.78 C201.26,324.21 200.61,323.12 199.97,323.52 C198.58,324.38 198.77,329.37 200.25,330.86 ZM 270.29 394.19 C272.82,391.97 275.76,384.88 276.93,378.20 C279.01,366.29 278.23,305.00 276.00,305.00 C275.59,305.00 274.96,301.06 274.60,296.25 C273.72,284.34 273.67,284.00 272.87,284.00 C272.76,284.00 272.62,283.70 272.47,283.16 C272.90,284.00 273.57,283.96 274.84,283.81 C277.35,283.52 277.52,283.17 277.78,277.50 C277.86,275.69 278.00,273.87 278.16,272.47 C277.94,277.57 278.39,290.83 279.13,301.79 C278.20,292.31 277.64,290.00 276.73,290.00 C275.25,290.00 277.93,327.18 279.80,332.50 C280.10,333.36 280.34,333.41 280.51,332.79 C280.52,337.97 280.49,343.56 280.39,349.00 C279.96,373.79 279.63,378.41 277.85,384.46 C275.47,392.59 270.07,399.00 265.59,399.00 C261.39,399.00 256.49,396.49 254.08,393.11 C252.86,391.40 251.44,390.00 250.93,390.00 C249.29,390.00 250.83,410.96 252.99,418.00 C253.32,419.06 253.60,420.06 253.85,421.00 C253.08,419.00 252.24,418.43 250.23,418.46 C248.73,418.48 247.17,418.95 246.77,419.50 C246.76,419.50 246.76,419.50 246.76,419.51 C247.06,414.02 247.15,404.21 246.95,395.50 C246.70,385.05 246.50,370.54 246.50,363.25 C246.50,355.96 246.16,350.00 245.75,350.00 C245.34,350.00 245.00,344.35 245.00,337.44 C245.00,330.54 244.49,322.84 243.86,320.35 C242.74,315.91 242.64,315.83 239.61,316.57 C238.99,316.73 238.36,316.86 237.74,316.96 C237.87,316.92 238.00,316.88 238.13,316.84 C241.67,315.78 242.01,315.37 242.07,312.09 C242.11,310.12 242.50,307.60 242.93,306.50 C243.42,305.25 243.54,304.26 243.20,303.38 C244.29,305.28 245.45,304.66 246.01,301.97 C246.00,302.15 246.00,302.32 246.00,302.50 C246.00,304.36 245.55,306.16 245.00,306.50 C243.49,307.43 243.80,310.12 245.65,312.17 C248.05,314.82 249.32,314.42 247.47,311.59 C246.42,309.99 246.25,308.97 246.95,308.53 C247.53,308.18 248.00,305.63 248.00,302.88 C248.00,300.51 247.77,298.97 247.39,298.56 C248.16,297.85 249.00,297.93 249.00,299.35 C249.00,300.26 249.81,300.81 251.00,300.73 C253.65,300.53 253.52,299.56 250.46,296.72 C250.15,296.44 249.88,296.17 249.64,295.93 C250.05,296.25 250.56,296.59 251.19,296.97 C255.30,299.48 256.23,299.20 257.40,295.09 C257.53,294.63 257.64,294.22 257.70,293.84 C257.66,294.41 257.58,295.10 257.47,295.93 C256.11,306.34 254.85,310.54 252.28,313.23 C249.82,315.80 249.58,316.86 248.83,328.74 C247.67,347.18 249.94,378.67 252.94,385.64 C257.28,395.72 264.50,399.28 270.29,394.19 ZM 199.86 349.75 C199.87,347.96 200.17,344.84 200.54,342.82 C201.04,340.05 200.74,338.51 199.35,336.60 C198.33,335.21 197.16,334.05 196.75,334.03 C195.61,333.98 195.86,348.86 197.04,351.07 C198.60,353.98 199.86,353.39 199.86,349.75 ZM 211.04 339.39 C211.69,337.42 212.83,334.63 213.57,333.20 C215.26,329.94 214.61,329.14 212.11,331.40 C210.44,332.91 208.00,339.81 208.00,343.00 C208.00,345.16 209.87,342.94 211.04,339.39 ZM 219.32 288.49 C219.43,287.00 219.63,286.00 219.87,286.00 C220.21,286.00 220.53,284.42 220.58,282.50 C220.62,280.22 220.19,279.00 219.33,279.00 C216.88,279.00 217.97,276.44 220.50,276.23 C222.73,276.04 223.00,276.40 223.00,279.51 C223.00,281.43 222.66,283.00 222.25,283.00 C221.95,283.00 221.69,284.48 221.56,286.60 C221.38,286.22 221.11,286.00 220.75,286.00 C219.90,286.00 219.48,286.64 219.32,288.49 ZM 218.70 53.80 C218.93,66.30 218.98,76.25 218.70,75.99 C218.40,75.71 217.65,68.29 217.04,59.49 C216.68,54.23 216.12,46.15 215.56,38.04 C216.02,44.47 216.42,49.74 216.59,51.74 C216.96,55.84 217.64,58.72 218.17,58.39 C218.46,58.22 218.63,56.55 218.70,53.80 ZM 248.67 416.33 C249.93,417.60 251.00,416.99 251.00,415.00 C251.00,413.89 250.33,413.00 249.50,413.00 C247.98,413.00 247.45,415.12 248.67,416.33 ZM 199.25 331.75 C199.89,329.99 199.01,327.88 197.91,328.55 C196.74,329.28 196.72,333.00 197.89,333.00 C198.38,333.00 198.99,332.44 199.25,331.75 ZM 274.00 287.00 C274.00,287.55 274.93,288.00 276.06,288.00 C277.19,288.00 277.84,287.55 277.50,287.00 C277.16,286.45 276.23,286.00 275.44,286.00 C274.65,286.00 274.00,286.45 274.00,287.00 ZM 217.24 8.66 C217.28,9.31 217.32,10.01 217.36,10.75 C217.71,16.79 218.06,27.19 218.34,37.92 C218.04,30.19 217.67,20.55 217.43,14.25 C217.34,12.09 217.28,10.24 217.24,8.66 ZM 227.07 294.47 C227.07,294.34 227.08,294.20 227.08,294.07 L 227.16 290.50 L 227.52 291.28 L 227.07 294.47 ZM 222.69 307.81 C224.09,305.58 225.33,302.65 226.14,299.77 C225.38,302.93 224.33,305.36 222.69,307.81 ZM 254.82 429.28 C254.46,431.68 253.15,432.86 250.86,432.99 C252.93,432.85 254.30,431.47 254.82,429.28 ZM 246.96 431.45 C246.39,430.75 246.13,429.63 246.16,427.57 C246.31,429.24 246.58,430.72 246.96,431.45 ZM 135.50 368.26 C136.38,368.57 137.24,368.83 138.10,369.03 C135.73,368.54 133.64,367.77 132.20,366.83 C133.00,367.30 134.08,367.76 135.50,368.26 ZM 235.62 299.42 C236.43,299.05 237.28,299.29 238.99,300.00 C239.42,300.18 239.87,300.40 240.30,300.66 C240.13,300.57 239.96,300.48 239.79,300.39 C238.14,299.54 236.66,299.23 235.62,299.42 ZM 192.99 302.34 C190.07,301.51 187.02,300.56 185.60,300.05 C186.94,300.48 189.85,301.38 192.99,302.34 ZM 216.62 300.29 C218.64,296.75 219.23,294.53 219.23,291.01 C219.23,290.95 219.23,290.88 219.23,290.82 C219.23,290.90 219.23,290.97 219.23,291.05 C219.23,294.70 218.62,296.94 216.62,300.29 ZM 250.76 289.29 C251.63,288.91 252.79,289.07 254.44,289.73 C254.06,289.61 253.64,289.49 253.18,289.36 C252.17,289.10 251.39,289.05 250.76,289.29 ZM 280.39 269.82 C279.67,269.22 279.03,269.24 278.58,270.03 C278.95,269.08 279.62,269.09 280.39,269.82 ZM 181.23 299.20 C180.65,299.55 180.56,300.44 180.78,301.96 C180.54,300.32 180.56,299.46 181.23,299.20 ZM 228.32 314.49 C228.44,313.83 228.79,312.99 229.39,311.85 C228.84,313.01 228.48,313.85 228.32,314.49 ZM 212.48 302.46 C215.29,299.61 216.36,298.36 216.77,296.39 C216.36,298.36 215.29,299.61 212.51,302.44 C212.50,302.45 212.49,302.46 212.48,302.46 ZM 218.91 0.44 C218.71,0.16 218.46,0.01 218.16,0.00 C218.17,0.00 218.18,0.00 218.19,0.00 C218.47,0.00 218.71,0.15 218.91,0.44 ZM 250.47 433.00 C250.45,433.00 250.44,433.00 250.42,433.00 C250.16,433.00 249.88,432.97 249.60,432.91 C249.90,432.96 250.19,433.00 250.47,433.00 Z" fill="rgb(99, 97, 97)"/>
<path d="M 279.80 332.50 C277.93,327.18 275.25,290.00 276.73,290.00 C277.90,290.00 278.48,293.78 280.02,311.50 C281.20,325.03 281.08,336.16 279.80,332.50 ZM 216.24 237.67 C216.42,235.87 216.68,234.34 216.97,233.59 C217.50,232.19 218.09,227.98 218.28,224.22 C218.37,222.55 218.51,220.90 218.68,219.54 C218.76,219.83 218.86,220.13 218.98,220.44 C219.54,221.92 220.00,226.33 220.00,230.24 C220.00,235.89 221.05,241.81 222.57,244.77 C222.65,244.92 223.45,244.76 224.36,244.42 C226.58,243.57 226.70,236.00 224.50,236.00 C223.68,236.00 223.00,235.60 223.00,235.12 C223.00,234.63 225.28,234.27 228.07,234.31 C229.70,234.33 230.85,234.31 231.75,234.13 C231.48,234.23 231.22,234.31 230.96,234.36 C228.33,234.88 227.99,235.36 227.93,238.73 C227.88,240.80 227.58,243.62 227.26,245.00 C226.76,247.10 226.64,249.83 226.90,252.62 C226.79,251.61 226.72,250.60 226.70,249.75 C226.63,247.08 226.15,246.00 225.05,245.99 C224.20,245.98 222.49,245.70 221.25,245.37 C219.44,244.88 219.00,245.18 219.00,246.88 C219.00,247.38 218.91,247.85 218.75,248.21 C218.90,247.82 218.99,247.31 218.98,246.75 C218.97,244.93 218.78,244.79 218.00,246.00 C217.99,246.02 217.98,246.04 217.97,246.05 C218.38,244.62 218.38,242.99 218.18,238.19 C217.95,232.67 216.76,233.46 216.24,237.67 ZM 251.19 296.97 C248.52,295.34 248.01,294.53 248.55,292.73 C249.55,289.44 250.59,288.68 253.18,289.36 C257.68,290.56 258.42,291.56 257.40,295.09 C256.23,299.20 255.30,299.48 251.19,296.97 ZM 151.83 322.18 C154.13,320.68 159.37,316.11 164.40,311.19 C174.64,301.17 179.98,297.56 174.20,304.58 C171.65,307.67 166.99,311.99 154.75,322.63 C154.04,323.24 153.40,323.98 152.91,324.69 C152.97,324.54 153.02,324.39 153.08,324.25 C153.81,322.37 153.40,321.68 151.83,322.18 ZM 227.02 330.53 C225.44,328.62 225.15,321.45 226.60,320.00 C227.19,319.41 228.44,319.23 229.38,319.59 C230.77,320.12 231.04,321.31 230.80,325.80 C230.49,331.56 229.21,333.16 227.02,330.53 ZM 230.17 283.43 C224.86,279.85 223.93,278.35 226.43,277.39 C228.59,276.56 237.00,281.85 237.00,284.04 C237.00,287.17 235.53,287.04 230.17,283.43 ZM 241.75 290.64 C237.56,288.24 237.48,288.09 239.30,285.61 C240.54,283.91 240.75,283.91 244.30,285.60 C247.99,287.36 248.55,288.41 247.39,291.42 C246.65,293.35 246.44,293.32 241.75,290.64 ZM 213.76 306.42 C213.44,306.11 214.54,303.65 216.20,300.98 C218.53,297.23 219.23,294.94 219.23,291.05 C219.23,287.19 219.59,286.00 220.75,286.00 C223.06,286.00 221.67,295.15 218.36,301.69 C215.76,306.83 214.97,307.64 213.76,306.42 ZM 235.30 295.23 C233.10,293.50 230.51,288.15 231.43,287.24 C232.66,286.01 235.12,288.17 234.85,290.25 C234.30,294.53 238.50,297.22 239.18,293.03 C239.40,291.64 239.91,291.31 240.86,291.90 C242.68,293.04 241.38,297.01 239.18,296.98 C238.26,296.97 236.51,296.18 235.30,295.23 ZM 245.65 312.17 C243.80,310.12 243.49,307.43 245.00,306.50 C245.55,306.16 246.00,304.36 246.00,302.50 C246.00,300.64 246.45,298.84 247.00,298.50 C247.62,298.12 248.00,299.80 248.00,302.88 C248.00,305.63 247.53,308.18 246.95,308.53 C246.25,308.97 246.42,309.99 247.47,311.59 C249.32,314.42 248.05,314.82 245.65,312.17 ZM 245.59 232.83 C243.16,234.57 240.88,236.00 240.52,236.00 C239.14,236.00 244.15,230.09 246.03,229.49 C247.11,229.15 248.00,228.19 248.00,227.37 C248.00,226.55 248.45,226.16 249.00,226.50 C250.99,227.73 249.92,229.72 245.59,232.83 ZM 214.46 270.88 C213.68,268.41 215.73,264.00 217.67,264.00 C218.40,264.00 219.00,264.90 219.00,266.00 C219.00,267.10 218.55,268.00 218.00,268.00 C217.45,268.00 217.00,269.12 217.00,270.50 C217.00,273.55 215.39,273.79 214.46,270.88 ZM 252.00 426.69 C252.00,428.97 251.53,430.00 250.50,430.00 C249.35,430.00 249.01,428.76 249.03,424.75 C249.06,419.92 249.18,419.65 250.53,421.44 C251.34,422.51 252.00,424.87 252.00,426.69 ZM 259.64 225.50 C259.03,227.10 256.00,227.61 256.00,226.12 C256.00,224.75 260.69,222.00 263.02,222.00 C264.18,222.00 264.84,222.45 264.50,223.00 C264.16,223.55 263.06,224.00 262.05,224.00 C261.04,224.00 259.95,224.68 259.64,225.50 ZM 200.25 330.86 C198.77,329.37 198.58,324.38 199.97,323.52 C201.12,322.81 202.30,326.89 201.83,329.96 C201.57,331.70 201.25,331.88 200.25,330.86 ZM 213.56 261.09 C212.59,259.53 214.17,256.89 215.88,257.21 C216.77,257.38 217.64,258.53 217.82,259.76 C218.06,261.44 217.64,262.00 216.13,262.00 C215.02,262.00 213.87,261.59 213.56,261.09 ZM 224.75 230.67 C223.55,227.74 223.80,220.40 225.06,221.66 C225.64,222.24 225.98,224.92 225.81,227.61 C225.60,230.96 225.26,231.92 224.75,230.67 ZM 200.11 274.92 C198.47,275.99 198.84,276.83 201.25,277.29 C202.49,277.53 201.61,277.79 199.31,277.86 C197.00,277.94 194.84,277.55 194.50,277.00 C194.16,276.45 194.66,276.00 195.61,276.00 C196.56,276.00 197.08,275.75 196.77,275.44 C196.22,274.88 196.64,273.59 203.77,255.41 C196.46,274.05 196.18,275.00 197.06,275.54 C197.46,275.79 198.74,275.52 200.11,274.92 ZM 248.67 416.33 C247.45,415.12 247.98,413.00 249.50,413.00 C250.33,413.00 251.00,413.89 251.00,415.00 C251.00,416.99 249.93,417.60 248.67,416.33 ZM 206.61 270.42 C205.75,268.20 205.85,267.00 206.88,267.00 C207.37,267.00 207.98,268.12 208.24,269.50 C208.77,272.25 207.57,272.93 206.61,270.42 ZM 227.31 220.88 C226.56,219.98 226.45,218.89 227.00,218.00 C228.19,216.08 229.24,217.28 228.83,220.08 C228.55,221.98 228.31,222.10 227.31,220.88 ZM 274.00 287.00 C274.00,286.45 274.65,286.00 275.44,286.00 C276.23,286.00 277.16,286.45 277.50,287.00 C277.84,287.55 277.19,288.00 276.06,288.00 C274.93,288.00 274.00,287.55 274.00,287.00 ZM 221.00 202.00 C221.00,201.45 221.68,201.00 222.50,201.00 C223.32,201.00 224.00,201.45 224.00,202.00 C224.00,202.55 223.32,203.00 222.50,203.00 C221.68,203.00 221.00,202.55 221.00,202.00 ZM 151.93 327.58 C151.75,328.88 151.20,331.10 150.56,333.07 C150.34,333.75 150.13,334.47 149.92,335.22 C150.54,332.50 151.23,329.86 151.93,327.58 ZM 219.47 215.72 C219.45,215.17 219.00,214.54 218.29,214.14 C218.10,214.03 217.92,213.93 217.77,213.84 C217.93,213.94 218.12,214.04 218.33,214.16 C219.28,214.69 219.64,215.15 219.47,215.72 ZM 238.60 228.43 C239.43,227.81 240.27,227.30 240.97,227.01 C241.14,226.94 241.32,226.86 241.49,226.78 C241.19,226.95 240.87,227.12 240.55,227.28 C239.92,227.58 239.25,227.98 238.60,228.43 ZM 134.98 331.97 C136.73,331.75 139.70,330.20 142.71,327.93 C143.12,327.62 143.54,327.31 143.98,327.00 C143.48,327.36 142.95,327.75 142.41,328.16 C139.62,330.27 136.70,331.75 134.98,331.97 ZM 147.77 348.14 C147.72,348.79 147.68,349.44 147.65,350.07 C147.57,352.03 146.71,354.42 145.75,355.39 C146.71,354.42 147.56,352.03 147.64,350.07 C147.66,349.47 147.71,348.83 147.77,348.14 ZM 227.64 259.11 C227.79,258.41 227.72,257.60 227.48,256.52 C227.37,256.02 227.26,255.39 227.15,254.70 C227.25,255.31 227.36,255.92 227.50,256.52 C227.73,257.59 227.79,258.40 227.64,259.11 ZM 212.30 256.00 C213.03,256.00 213.80,254.69 214.46,252.72 C213.81,254.71 213.04,256.00 212.30,256.00 ZM 303.78 322.34 C302.83,324.28 301.35,325.79 299.43,326.60 C299.42,326.60 299.41,326.60 299.41,326.60 C301.34,325.80 302.83,324.28 303.78,322.34 ZM 217.94 249.00 C217.92,249.00 217.91,249.00 217.89,249.00 C217.76,249.00 217.65,248.97 217.56,248.92 C217.67,248.96 217.80,248.99 217.94,249.00 ZM 235.10 231.88 C235.19,231.77 235.28,231.65 235.38,231.53 C235.29,231.65 235.20,231.77 235.10,231.88 Z" fill="rgba(246,245,233,1)"/>
<path d="M 176.01 589.75 C176.02,577.51 176.47,557.53 177.02,545.34 C180.66,463.78 182.16,398.27 179.88,420.50 C179.43,424.90 178.12,444.25 176.97,463.50 C175.82,482.75 174.04,512.22 173.01,529.00 C171.99,545.78 170.60,570.08 169.93,583.00 C169.60,589.27 169.25,594.49 168.91,598.48 C168.68,591.24 167.17,593.78 167.07,602.31 C167.07,602.70 167.07,603.06 167.07,603.41 C167.02,601.98 167.00,600.16 167.00,597.95 C166.99,587.81 167.46,579.28 170.52,534.00 C170.98,527.18 171.55,518.53 172.05,510.64 C172.19,511.43 172.56,512.00 173.00,512.00 C173.55,512.00 174.00,511.10 174.00,510.00 C174.00,508.90 173.55,508.00 173.00,508.00 C172.65,508.00 172.34,508.36 172.16,508.91 C172.49,503.78 172.79,499.06 173.00,495.50 C173.57,486.15 174.47,472.20 175.00,464.50 C175.53,456.80 176.66,437.23 177.51,421.00 C178.36,404.77 179.49,386.10 180.03,379.50 C180.33,375.82 180.74,368.59 181.14,360.25 C180.85,367.01 180.57,372.62 180.38,375.39 C179.90,382.69 180.02,385.10 180.86,384.59 C181.64,384.10 182.00,385.20 182.00,388.11 C182.00,390.43 182.24,392.09 182.53,391.80 C183.18,391.15 184.55,364.70 185.47,340.70 C184.97,358.48 184.24,386.38 183.61,412.00 C182.76,446.38 181.81,479.67 181.50,486.00 C181.07,494.72 180.47,510.60 179.89,527.81 C179.73,527.40 179.39,527.26 179.00,527.50 C178.45,527.84 178.00,528.54 178.00,529.06 C178.00,529.58 178.45,530.00 179.00,530.00 C179.35,530.00 179.67,529.71 179.84,529.27 C178.89,557.86 178.00,589.60 178.00,597.98 C178.00,606.66 177.62,612.00 177.00,612.00 C177.64,612.00 177.97,604.63 177.93,591.75 C177.89,579.51 177.52,572.29 177.00,573.50 C176.53,574.60 176.11,583.71 176.07,593.75 C176.06,596.08 176.07,598.22 176.09,600.14 C176.04,597.18 176.01,593.70 176.01,589.75 ZM 219.03 102.52 C219.03,102.51 219.03,102.51 219.02,102.50 C217.96,94.00 212.35,23.34 211.66,9.75 C211.37,4.12 211.55,0.00 212.08,0.00 C212.59,0.00 213.00,0.34 213.00,0.75 C213.00,1.16 213.67,10.95 214.47,22.50 C215.28,34.05 216.44,50.70 217.04,59.49 C217.65,68.29 218.40,75.71 218.70,75.99 C219.32,76.56 218.31,27.32 217.36,10.75 C216.86,1.98 217.00,0.00 218.12,0.00 C219.04,0.00 219.51,1.24 219.53,3.75 C219.62,16.23 220.48,54.88 221.34,88.98 C221.25,87.84 221.16,86.98 221.06,86.50 C220.60,84.30 220.18,83.47 220.12,84.67 C220.05,85.86 219.47,87.01 218.82,87.23 C217.91,87.53 217.91,90.49 218.83,100.06 C218.90,100.76 218.96,101.58 219.03,102.52 ZM 212.33 243.46 C211.88,250.19 212.03,253.00 212.81,253.00 C213.74,253.00 214.48,252.22 215.01,250.74 C214.28,253.78 213.25,256.00 212.30,256.00 C211.86,256.00 211.66,251.45 211.85,245.88 C212.09,238.71 211.87,235.96 211.10,236.44 C210.49,236.81 210.00,237.67 210.00,238.34 C210.00,239.01 207.71,245.40 204.90,252.53 C196.68,273.45 196.19,274.85 196.77,275.44 C197.08,275.75 196.56,276.00 195.61,276.00 C194.66,276.00 194.16,276.45 194.50,277.00 C194.84,277.55 197.00,277.94 199.31,277.86 C201.61,277.79 202.49,277.53 201.25,277.29 C198.29,276.72 198.40,275.59 201.55,274.16 C205.42,272.40 206.40,272.69 210.05,276.71 C210.94,277.68 211.73,278.63 212.44,279.56 C211.66,278.54 210.78,277.52 209.79,276.46 C206.87,273.37 205.80,272.83 203.63,273.38 C200.90,274.06 200.07,276.46 202.25,277.34 C202.94,277.62 201.39,277.88 198.81,277.92 C196.23,277.96 193.84,277.55 193.50,277.00 C193.13,276.41 190.04,276.08 185.96,275.97 C192.28,275.87 193.21,275.48 193.98,274.04 C194.56,272.95 199.04,261.76 203.93,249.17 L 210.98 231.05 C210.12,233.74 210.54,235.40 212.05,234.47 C212.58,234.14 212.70,237.83 212.33,243.46 ZM 219.95 153.75 C219.93,135.35 219.68,117.69 219.36,108.49 C219.77,117.44 220.08,130.40 220.11,142.00 C220.16,158.33 220.56,170.38 221.00,169.00 C221.59,167.16 221.83,168.20 221.90,172.95 C221.98,177.96 222.27,179.13 223.20,178.20 C223.68,177.72 223.91,175.91 223.89,171.55 C223.96,175.17 224.00,178.53 224.00,181.28 C224.00,197.33 223.92,198.00 222.00,198.00 C220.03,198.00 220.00,197.32 219.95,153.75 ZM 255.25 179.67 C253.98,179.25 252.67,179.04 251.35,179.07 C248.86,179.13 248.75,179.25 250.50,180.00 C250.51,180.00 250.51,180.01 250.52,180.01 L 249.70 180.01 C242.81,179.99 237.00,186.83 237.00,194.96 C237.00,198.07 237.48,199.26 239.14,198.81 C238.00,199.32 237.10,199.56 236.82,199.39 C235.37,198.50 235.95,202.71 237.44,203.95 C237.95,204.37 238.53,205.34 238.98,206.42 C238.45,205.28 237.70,204.47 236.89,204.26 C235.27,203.84 235.00,202.80 235.00,196.95 C235.00,186.20 238.00,180.89 245.14,178.96 C248.54,178.05 252.07,178.39 255.25,179.67 ZM 219.62 256.44 C218.67,253.98 218.88,249.19 219.97,248.52 C220.50,248.19 221.63,249.58 222.48,251.61 C223.33,253.64 223.91,255.37 223.76,255.44 C223.62,255.51 222.77,256.13 221.87,256.81 C220.53,257.83 220.12,257.76 219.62,256.44 ZM 246.21 428.06 C245.86,424.82 245.99,420.55 246.77,419.50 C247.17,418.95 248.73,418.48 250.23,418.46 C252.36,418.43 253.18,419.06 253.98,421.36 C254.09,421.68 254.19,422.00 254.29,422.32 C253.15,419.63 252.00,421.17 252.00,425.50 C252.00,425.78 252.00,426.05 251.99,426.31 C251.91,424.55 251.28,422.43 250.53,421.44 C249.18,419.65 249.06,419.92 249.03,424.75 C249.02,426.70 249.10,427.99 249.31,428.80 C249.07,428.18 248.90,427.33 248.81,426.25 C248.64,424.19 248.05,422.50 247.50,422.50 C246.57,422.50 246.09,425.46 246.21,428.06 ZM 272.00 281.28 C272.00,281.32 272.00,281.35 272.00,281.38 C271.83,280.29 271.68,278.74 271.47,276.56 C271.14,272.99 270.65,270.00 270.30,269.24 C270.48,269.13 270.64,269.06 270.75,269.06 C271.44,269.03 272.00,268.10 272.00,267.00 C272.00,265.90 272.29,265.00 272.64,265.00 C273.16,265.00 273.82,265.61 274.41,266.48 C272.32,263.78 271.52,265.46 272.84,269.86 C273.48,271.99 274.00,274.92 274.00,276.37 C274.00,277.27 274.17,278.07 274.44,278.54 C272.33,278.49 272.00,278.92 272.00,281.28 ZM 240.55 227.28 C238.65,228.18 236.38,230.02 235.50,231.36 C234.62,232.70 233.03,234.02 231.95,234.30 C230.84,234.59 230.00,235.67 230.00,236.82 C230.00,237.92 229.02,241.37 227.83,244.49 C227.46,245.47 227.15,246.30 226.91,247.03 C227.00,246.31 227.11,245.63 227.26,245.00 C227.58,243.62 227.88,240.80 227.93,238.73 C227.99,235.36 228.33,234.88 230.96,234.36 C232.59,234.03 234.62,232.68 235.50,231.36 C235.51,231.35 235.51,231.35 235.51,231.34 C236.38,230.01 238.65,228.18 240.55,227.28 ZM 215.50 205.28 C216.27,204.50 217.04,204.00 217.54,204.00 C218.41,204.00 218.83,204.47 218.47,205.04 C218.12,205.62 218.38,206.75 219.05,207.56 C220.04,208.75 219.91,209.44 218.41,211.10 C217.99,211.56 217.67,211.93 217.45,212.22 C217.47,212.11 217.50,212.00 217.54,211.88 C217.97,210.52 217.64,209.99 216.32,209.97 C214.63,209.94 214.62,209.87 216.21,208.94 C217.15,208.39 217.66,207.29 217.35,206.47 C216.86,205.20 216.25,204.80 215.50,205.28 ZM 275.97 273.75 C275.95,271.14 275.47,268.48 274.80,267.11 C275.45,268.26 275.95,269.66 275.97,270.75 C276.01,273.63 277.59,273.67 278.34,270.81 C278.73,269.33 278.89,268.88 279.59,269.32 C279.15,269.21 278.78,269.45 278.55,270.11 C278.27,270.88 277.93,274.20 277.78,277.50 C277.70,279.23 277.63,280.46 277.50,281.35 C277.50,281.27 277.50,281.18 277.50,281.09 C277.50,279.35 277.06,278.77 275.38,278.60 C275.74,277.81 275.98,275.93 275.97,273.75 ZM 168.00 580.56 C168.00,583.34 168.39,584.88 169.00,584.50 C169.55,584.16 170.00,582.11 170.00,579.94 C170.00,577.77 169.55,576.00 169.00,576.00 C168.45,576.00 168.00,578.05 168.00,580.56 ZM 220.47 312.96 C220.08,312.33 220.73,310.51 221.90,308.92 C222.82,307.68 223.58,306.46 224.22,305.19 C223.75,306.27 223.34,307.06 223.07,307.33 C222.48,307.92 222.00,309.25 222.00,310.28 C222.00,312.93 224.09,311.95 226.73,308.06 C227.81,306.46 228.63,304.71 229.14,303.04 C228.54,305.27 227.42,307.57 225.76,310.01 C223.24,313.73 221.54,314.68 220.47,312.96 ZM 223.53 209.53 C223.59,207.97 223.19,207.11 222.21,206.37 C220.69,205.21 220.87,205.06 223.75,205.03 C226.79,205.00 227.00,205.22 227.00,208.42 C227.00,208.59 227.00,208.75 227.00,208.91 C226.88,207.28 226.39,206.00 225.62,206.00 C224.87,206.00 224.05,207.52 223.53,209.53 ZM 220.00 253.50 C220.00,255.19 220.46,256.01 221.25,255.75 C221.94,255.52 222.50,254.51 222.50,253.50 C222.50,252.49 221.94,251.48 221.25,251.25 C220.46,250.99 220.00,251.81 220.00,253.50 ZM 226.11 299.90 C226.43,298.58 226.69,297.13 226.92,295.50 L 227.63 290.50 L 228.97 294.75 C229.31,295.81 229.52,296.87 229.62,297.93 C229.49,297.33 229.26,296.82 228.94,296.43 C227.89,295.17 227.45,295.65 226.11,299.90 ZM 217.02 248.25 C217.02,247.84 217.47,246.82 218.00,246.00 C218.78,244.79 218.97,244.93 218.98,246.75 C218.99,247.99 218.55,249.00 218.00,249.00 C217.45,249.00 217.01,248.66 217.02,248.25 ZM 221.95 112.08 C222.41,128.66 222.81,141.67 223.04,146.03 C223.31,151.24 223.55,157.92 223.73,164.44 C223.61,161.04 223.43,156.86 223.18,151.75 C222.59,139.39 222.08,122.60 221.95,112.08 ZM 162.84 278.41 C160.71,279.92 157.62,282.98 154.53,286.49 C157.84,282.44 160.14,279.95 162.84,278.41 ZM 178.38 276.01 C173.59,276.15 168.82,276.52 166.04,277.08 C168.99,276.24 172.73,276.04 178.38,276.01 ZM 227.06 254.06 C228.25,257.52 228.23,259.07 226.79,260.71 C227.77,259.56 227.92,258.47 227.50,256.52 C227.32,255.71 227.17,254.89 227.06,254.06 ZM 260.95 197.44 L 260.50 197.07 L 263.19 197.03 C263.20,197.03 263.21,197.03 263.22,197.03 L 260.95 197.44 ZM 265.69 191.02 C264.78,188.32 263.36,185.92 261.63,184.00 C263.51,185.97 264.95,188.37 265.69,191.02 ZM 185.18 301.01 C184.71,301.21 184.26,302.47 183.89,304.68 C184.23,302.08 184.60,301.00 185.03,301.00 C185.08,301.00 185.14,301.00 185.18,301.01 ZM 254.94 425.30 C255.17,427.06 255.07,428.61 254.66,429.85 C254.96,428.54 255.06,426.85 254.94,425.30 ZM 243.28 186.71 C241.42,189.44 241.43,192.28 243.57,194.06 C243.71,194.17 243.83,194.28 243.94,194.38 C243.83,194.28 243.71,194.17 243.57,194.06 C243.56,194.05 243.55,194.04 243.54,194.03 C241.33,192.20 241.40,189.42 243.28,186.71 ZM 251.51 180.53 C251.82,180.77 251.64,180.90 250.98,180.93 C250.87,180.93 250.73,180.96 250.58,181.01 L 251.51 180.53 ZM 264.38 203.54 C265.09,201.72 265.06,201.07 263.96,200.00 C265.14,200.96 265.16,201.58 264.38,203.54 ZM 247.20 431.80 C247.11,431.71 247.02,431.57 246.93,431.40 C246.97,431.46 247.01,431.52 247.06,431.57 C248.06,432.78 250.13,433.21 251.85,432.81 C251.44,432.94 250.99,433.00 250.50,433.00 C249.35,433.00 247.86,432.46 247.20,431.80 ZM 167.18 605.63 C167.28,606.65 167.46,607.29 167.69,607.49 C167.48,607.89 167.30,607.30 167.18,605.63 ZM 212.23 213.32 C212.29,211.05 212.62,209.71 213.35,208.29 C212.68,209.66 212.33,211.14 212.23,213.32 ZM 280.98 270.49 C281.66,271.21 282.54,272.95 283.32,275.02 C282.58,273.08 281.75,271.50 280.98,270.49 ZM 225.63 214.47 C225.26,214.83 224.80,215.00 224.26,215.00 C223.76,215.00 223.44,214.86 223.26,214.49 C223.75,215.14 224.84,215.11 225.63,214.47 ZM 217.73 213.81 C217.89,213.92 218.08,214.02 218.29,214.14 C218.47,214.24 218.63,214.36 218.78,214.48 C218.70,214.44 218.62,214.41 218.53,214.37 C218.19,214.24 217.92,214.05 217.73,213.81 ZM 276.80 283.19 C276.39,283.58 275.78,283.70 274.84,283.81 C274.53,283.84 274.25,283.87 274.00,283.89 C274.22,283.87 274.47,283.85 274.75,283.82 C275.72,283.71 276.37,283.52 276.80,283.19 ZM 217.00 292.65 C217.00,289.36 216.38,286.46 214.99,283.62 C216.39,286.46 217.00,289.34 217.00,292.65 ZM 247.00 183.09 C246.57,183.40 246.14,183.73 245.73,184.07 C245.61,184.17 245.50,184.27 245.39,184.36 C245.88,183.93 246.41,183.50 247.00,183.09 ZM 241.51 211.95 C242.40,213.22 243.49,214.54 244.61,215.66 C243.46,214.52 242.38,213.21 241.51,211.95 ZM 251.14 429.82 C250.97,429.94 250.78,430.00 250.56,430.00 C250.55,430.00 250.54,430.00 250.53,430.00 C250.76,429.99 250.96,429.94 251.14,429.82 Z" fill="rgba(182,156,73,1)"/>
<path d="M 176.07 593.75 C176.11,583.71 176.53,574.60 177.00,573.50 C177.52,572.29 177.89,579.51 177.93,591.75 C177.97,604.63 177.64,612.00 177.00,612.00 C176.37,612.00 176.03,605.30 176.07,593.75 ZM 167.07 602.31 C167.18,593.34 168.84,590.99 168.93,599.69 C168.97,603.65 168.55,607.16 168.00,607.50 C167.37,607.89 167.03,605.94 167.07,602.31 ZM 168.00 580.56 C168.00,578.05 168.45,576.00 169.00,576.00 C169.55,576.00 170.00,577.77 170.00,579.94 C170.00,582.11 169.55,584.16 169.00,584.50 C168.39,584.88 168.00,583.34 168.00,580.56 ZM 178.00 529.06 C178.00,528.54 178.45,527.84 179.00,527.50 C179.55,527.16 180.00,527.58 180.00,528.44 C180.00,529.30 179.55,530.00 179.00,530.00 C178.45,530.00 178.00,529.58 178.00,529.06 ZM 172.00 510.00 C172.00,508.90 172.45,508.00 173.00,508.00 C173.55,508.00 174.00,508.90 174.00,510.00 C174.00,511.10 173.55,512.00 173.00,512.00 C172.45,512.00 172.00,511.10 172.00,510.00 ZM 247.06 431.57 C245.67,429.90 246.03,422.50 247.50,422.50 C248.05,422.50 248.64,424.19 248.81,426.25 C249.01,428.70 249.62,430.00 250.56,430.00 C251.60,430.00 252.00,428.75 252.00,425.50 C252.00,421.04 253.23,419.54 254.39,422.58 C255.41,425.24 255.07,430.53 253.80,431.80 C252.16,433.44 248.50,433.31 247.06,431.57 ZM 182.00 388.11 C182.00,385.20 181.64,384.10 180.86,384.59 C180.02,385.10 179.90,382.69 180.38,375.39 C180.75,369.95 181.47,353.57 181.98,338.99 C182.50,324.41 183.23,309.90 183.60,306.74 C184.24,301.28 185.27,299.52 186.22,302.25 C187.22,305.12 183.70,390.63 182.53,391.80 C182.24,392.09 182.00,390.43 182.00,388.11 ZM 135.50 368.26 C131.84,366.97 130.42,365.92 130.19,364.35 C129.75,361.23 133.52,359.00 139.22,359.00 C141.85,359.00 144.00,358.58 144.00,358.07 C144.00,357.56 144.79,356.35 145.75,355.39 C146.71,354.43 147.57,352.03 147.65,350.07 C147.90,344.34 149.01,337.84 150.56,333.07 C151.35,330.64 152.00,327.83 152.00,326.83 C152.00,325.83 153.24,323.94 154.75,322.63 C166.99,311.99 171.65,307.67 174.20,304.58 C179.98,297.56 174.64,301.17 164.40,311.19 C158.68,316.80 152.67,321.94 151.04,322.62 C149.42,323.31 145.67,325.69 142.71,327.93 C139.45,330.39 136.23,332.00 134.57,332.00 C132.44,332.00 131.57,332.67 130.69,335.00 C129.98,336.88 128.85,338.00 127.66,338.00 C126.27,338.00 125.90,338.52 126.28,339.95 C126.56,341.03 126.25,342.64 125.59,343.54 C124.56,344.96 123.79,345.02 120.08,344.02 C117.71,343.38 114.74,341.83 113.48,340.57 C112.22,339.31 108.31,336.93 104.79,335.28 C98.21,332.21 91.71,327.19 89.89,323.80 C88.56,321.32 91.18,317.00 94.01,317.00 C95.09,317.00 98.85,318.15 102.35,319.55 L 108.72 322.10 L 112.32 319.97 C114.43,318.73 116.73,318.10 117.85,318.45 C119.05,318.83 119.97,318.51 120.33,317.58 C120.64,316.77 122.52,315.81 124.50,315.43 C127.47,314.88 128.20,314.24 128.69,311.79 C129.32,308.64 136.09,303.48 141.04,302.39 C142.49,302.07 144.41,300.41 145.54,298.50 C150.03,290.86 160.55,279.12 164.27,277.57 C168.64,275.75 192.44,275.29 193.50,277.00 C193.84,277.55 196.23,277.96 198.81,277.92 C201.39,277.88 202.94,277.62 202.25,277.34 C200.07,276.46 200.90,274.06 203.63,273.38 C205.80,272.83 206.87,273.37 209.79,276.46 C214.90,281.88 217.00,286.60 217.00,292.65 C217.00,297.52 216.68,298.20 212.43,302.52 C209.22,305.77 207.35,306.96 206.18,306.50 C205.25,306.14 200.90,304.75 196.50,303.41 C192.10,302.08 187.12,300.54 185.43,299.99 C180.83,298.51 180.31,298.73 180.78,301.96 C181.05,303.81 180.46,306.15 179.21,308.21 C178.11,310.02 176.92,313.52 176.57,316.00 C175.40,324.20 173.80,329.00 172.25,329.00 C171.04,329.00 170.89,330.00 171.46,334.55 C171.95,338.47 171.78,340.56 170.88,341.64 C170.19,342.48 169.49,345.72 169.33,348.84 C169.18,351.95 169.02,354.95 168.99,355.50 C168.95,356.05 169.22,358.54 169.57,361.04 C170.45,367.26 168.86,368.43 159.10,368.72 C154.92,368.84 149.02,369.19 146.00,369.48 C142.14,369.86 139.01,369.49 135.50,368.26 ZM 294.25 327.34 C292.54,326.65 292.68,325.01 294.66,322.82 C296.11,321.22 296.15,320.49 295.03,317.08 C294.32,314.94 294.04,312.00 294.40,310.55 C295.18,307.45 293.37,300.98 289.23,292.00 C287.58,288.42 285.46,282.49 284.52,278.82 C283.58,275.15 281.94,271.35 280.87,270.38 C278.99,268.68 278.89,268.70 278.34,270.81 C277.59,273.67 276.01,273.63 275.97,270.75 C275.94,268.54 273.89,265.00 272.64,265.00 C272.29,265.00 272.00,265.90 272.00,267.00 C272.00,268.10 271.44,269.03 270.75,269.06 C270.06,269.09 267.78,271.37 265.68,274.12 C262.60,278.17 261.99,279.68 262.50,281.98 C263.24,285.38 261.29,289.00 258.71,289.00 C257.71,289.00 255.23,288.16 253.20,287.12 C251.16,286.09 244.48,282.83 238.33,279.87 C229.11,275.43 226.89,273.93 225.58,271.22 C223.46,266.80 223.59,263.68 226.00,261.50 C228.30,259.41 228.46,257.91 226.83,253.40 C225.83,250.65 225.98,249.32 227.83,244.49 C229.02,241.37 230.00,237.92 230.00,236.82 C230.00,235.67 230.84,234.59 231.95,234.30 C233.03,234.02 234.62,232.70 235.50,231.36 C236.38,230.02 238.65,228.18 240.55,227.28 C242.45,226.37 244.00,225.03 244.00,224.29 C244.00,223.55 245.12,222.52 246.50,222.00 C247.88,221.48 249.00,220.83 249.00,220.55 C249.00,220.28 247.02,218.08 244.61,215.66 C242.19,213.25 239.92,209.89 239.54,208.20 C239.17,206.52 238.23,204.60 237.44,203.95 C235.95,202.71 235.37,198.50 236.82,199.39 C237.27,199.67 239.33,198.87 241.39,197.63 C244.69,195.64 244.95,195.21 243.57,194.06 C240.72,191.70 241.64,187.44 245.73,184.07 C247.78,182.38 250.14,180.97 250.98,180.93 C252.02,180.88 251.87,180.59 250.50,180.00 C248.75,179.25 248.86,179.13 251.35,179.07 C257.66,178.91 263.80,184.33 266.00,191.99 C267.16,196.05 266.64,196.99 263.19,197.03 L 260.50 197.07 L 262.94 199.10 C265.21,200.99 265.29,201.36 264.07,204.32 C261.64,210.17 262.09,212.29 266.00,213.45 C271.21,215.01 272.23,215.93 271.59,218.50 C271.16,220.21 271.66,221.20 273.59,222.47 C275.01,223.40 276.80,225.66 277.57,227.51 C278.34,229.35 279.43,231.15 279.99,231.50 C280.55,231.84 281.70,233.45 282.54,235.07 C284.71,239.27 289.08,256.63 288.41,258.38 C288.10,259.19 289.70,262.92 291.96,266.68 C296.82,274.72 298.28,279.40 300.97,295.50 C302.07,302.10 303.58,309.52 304.31,312.00 C306.22,318.42 304.13,324.63 299.40,326.61 C297.57,327.37 295.94,327.96 295.78,327.92 C295.63,327.88 294.94,327.62 294.25,327.34 ZM 245.59 232.83 C249.92,229.72 250.99,227.73 249.00,226.50 C248.45,226.16 248.00,226.55 248.00,227.37 C248.00,228.19 247.11,229.15 246.03,229.49 C244.15,230.09 239.14,236.00 240.52,236.00 C240.88,236.00 243.16,234.57 245.59,232.83 ZM 259.64 225.50 C259.95,224.68 261.04,224.00 262.05,224.00 C263.06,224.00 264.16,223.55 264.50,223.00 C264.84,222.45 264.18,222.00 263.02,222.00 C260.69,222.00 256.00,224.75 256.00,226.12 C256.00,227.61 259.03,227.10 259.64,225.50 ZM 230.25 316.97 C227.41,315.83 227.42,315.69 231.01,308.61 C232.66,305.37 234.00,302.09 234.00,301.33 C234.00,299.13 236.55,298.72 239.79,300.39 C243.24,302.18 244.03,303.72 242.93,306.50 C242.50,307.60 242.11,310.12 242.07,312.09 C242.01,315.37 241.67,315.78 238.13,316.84 C233.67,318.18 233.28,318.18 230.25,316.97 ZM 222.00 310.28 C222.00,309.25 222.48,307.92 223.07,307.33 C223.65,306.75 224.93,303.70 225.90,300.57 C227.40,295.70 227.84,295.10 228.94,296.43 C230.63,298.46 229.61,303.80 226.73,308.06 C224.09,311.95 222.00,312.93 222.00,310.28 ZM 272.00 281.28 C272.00,278.81 272.37,278.45 274.75,278.55 C276.96,278.65 277.50,279.15 277.50,281.09 C277.50,282.98 276.90,283.57 274.75,283.82 C272.32,284.10 272.00,283.80 272.00,281.28 ZM 220.00 253.50 C220.00,251.81 220.46,250.99 221.25,251.25 C221.94,251.48 222.50,252.49 222.50,253.50 C222.50,254.51 221.94,255.52 221.25,255.75 C220.46,256.01 220.00,255.19 220.00,253.50 ZM 212.33 243.46 C212.70,237.83 212.58,234.14 212.05,234.47 C210.32,235.54 210.02,233.20 211.44,229.80 C212.44,227.41 212.72,224.09 212.37,218.77 C211.99,213.00 212.25,210.41 213.46,208.08 C215.20,204.72 216.47,204.19 217.35,206.47 C217.66,207.29 217.15,208.39 216.21,208.94 C214.62,209.87 214.63,209.94 216.32,209.97 C217.64,209.99 217.97,210.52 217.54,211.88 C217.15,213.09 217.51,213.98 218.53,214.37 C219.47,214.73 219.82,215.49 219.38,216.19 C218.97,216.85 218.48,220.47 218.28,224.22 C218.09,227.98 217.50,232.19 216.97,233.59 C216.43,234.99 216.00,239.06 216.00,242.63 C216.00,249.22 214.84,253.00 212.81,253.00 C212.03,253.00 211.88,250.19 212.33,243.46 ZM 223.00 213.62 C223.00,210.03 224.39,206.00 225.62,206.00 C227.06,206.00 227.52,210.48 226.39,213.42 C225.65,215.36 223.00,215.52 223.00,213.62 ZM 221.90 172.95 C221.83,168.20 221.59,167.16 221.00,169.00 C220.56,170.38 220.16,158.33 220.11,142.00 C220.06,125.78 219.49,106.90 218.83,100.06 C217.91,90.49 217.91,87.53 218.82,87.23 C219.47,87.01 220.05,85.86 220.12,84.67 C220.18,83.47 220.60,84.30 221.06,86.50 C221.51,88.70 221.90,98.60 221.93,108.50 C221.95,118.40 222.52,137.86 223.18,151.75 C224.13,171.37 224.13,177.27 223.20,178.20 C222.27,179.13 221.98,177.96 221.90,172.95 Z" fill="rgba(246,190,10,1)"/>
</g>
</svg>