<svg xmlns="http://www.w3.org/2000/svg" width="532" height="469" viewBox="0 0 532 469">
<g>
<path d="M 139.43 231.17 C139.30,230.65 139.17,230.40 139.04,230.47 C137.97,231.14 134.74,227.29 131.73,221.76 L 129.15 217.01 L 131.23 215.55 C133.19,214.18 133.25,213.70 132.21,207.47 C130.83,199.12 129.89,198.00 124.26,198.00 C120.07,198.00 119.81,197.85 120.42,195.75 C122.06,190.14 122.01,187.11 120.25,186.11 C118.61,185.18 118.62,185.02 120.50,183.59 C121.60,182.74 123.18,182.35 124.00,182.70 C124.82,183.05 127.40,183.53 129.73,183.77 C133.66,184.17 134.09,183.96 135.97,180.77 C137.09,178.88 139.12,176.74 140.50,176.00 C142.74,174.80 143.26,174.89 145.32,176.83 C146.59,178.02 147.88,179.00 148.20,179.00 C149.56,179.00 149.70,173.21 148.41,170.13 C146.85,166.39 146.49,158.00 147.89,158.00 C149.12,158.00 150.00,160.58 150.00,164.18 C150.00,166.29 151.04,168.24 153.45,170.65 C156.84,174.04 156.91,174.28 157.59,185.03 C158.11,193.21 157.96,196.34 157.02,197.48 C155.33,199.51 157.32,202.00 160.62,202.00 C162.07,202.00 163.00,202.59 163.00,203.50 C163.00,204.51 161.99,205.00 159.92,205.00 C156.01,205.00 156.49,207.24 160.58,208.13 C162.19,208.48 162.71,208.82 161.75,208.88 C160.14,208.99 159.52,210.63 159.93,213.75 C160.02,214.46 159.00,215.00 157.55,215.00 C155.99,215.00 153.98,216.16 152.34,218.00 C148.99,221.76 146.00,222.00 146.00,218.50 C146.00,216.94 145.43,216.00 144.50,216.00 C142.65,216.00 142.63,215.23 144.39,211.87 C146.64,207.56 144.77,206.34 141.02,209.69 C137.85,212.53 137.81,212.65 139.05,216.79 C139.75,219.10 140.77,221.00 141.32,221.00 C140.77,221.00 139.78,219.20 139.12,217.00 C137.75,212.45 136.84,212.19 132.16,215.04 C130.75,215.90 129.86,216.44 129.67,217.15 C129.35,218.36 131.00,220.09 135.44,224.79 C137.96,227.45 138.92,228.55 139.43,231.17 ZM 85.94 239.04 C86.42,238.20 85.58,236.92 82.71,233.87 C73.38,223.97 68.92,209.08 72.32,199.19 C73.71,195.17 73.68,194.82 71.90,193.71 C71.64,193.54 71.40,193.33 71.19,193.08 L 75.25 192.71 C77.25,192.53 79.80,192.08 81.88,191.57 C79.30,192.87 76.69,194.72 76.01,195.99 C73.47,200.73 81.45,221.50 88.81,229.29 C90.26,230.82 91.45,233.02 91.47,234.18 C91.49,235.62 92.25,236.41 93.86,236.66 C96.33,237.04 101.29,240.12 104.22,243.10 C105.17,244.07 107.44,245.99 109.26,247.39 C114.34,251.26 124.88,261.89 127.63,265.91 C128.98,267.88 131.64,271.74 133.54,274.49 C135.44,277.23 137.00,280.18 137.00,281.04 C137.00,281.91 138.11,284.12 139.48,285.97 C140.84,287.81 142.48,290.94 143.12,292.91 C143.76,294.89 144.57,296.73 144.91,297.00 C145.24,297.27 146.64,299.98 148.01,303.00 C149.37,306.02 151.04,309.08 151.71,309.78 C152.38,310.49 153.20,312.55 153.54,314.37 C153.88,316.19 155.30,318.99 156.69,320.59 C158.08,322.19 160.27,325.79 161.56,328.59 C163.69,333.19 169.35,340.00 171.06,340.00 C171.44,340.00 172.02,341.36 172.35,343.01 C172.97,346.12 179.03,355.10 184.26,360.67 C185.89,362.41 187.75,364.88 188.39,366.15 C188.95,367.29 190.32,368.70 191.58,369.49 C191.02,369.31 190.50,369.12 190.02,368.91 C183.81,366.24 179.39,361.46 164.73,341.51 C155.10,328.40 152.14,323.32 141.37,301.39 C134.59,287.58 126.94,273.41 124.36,269.89 C117.71,260.82 105.74,248.65 97.15,242.25 C90.33,237.17 89.62,236.87 87.36,238.07 C86.87,238.34 86.40,238.66 85.94,239.04 ZM 53.78 409.48 C53.73,409.22 53.52,409.18 53.18,409.39 C51.23,410.59 50.91,406.14 52.50,399.99 C53.38,396.60 54.46,391.06 54.91,387.67 C55.85,380.53 58.19,367.70 61.10,353.69 C62.22,348.29 63.53,340.19 64.02,335.69 C65.01,326.47 67.66,316.75 68.01,321.00 C68.15,322.69 68.50,322.05 69.10,319.00 C69.67,316.12 69.63,314.38 68.99,314.17 C67.52,313.67 67.79,307.85 69.50,303.00 C70.32,300.66 71.00,297.52 71.00,296.02 C71.00,292.72 72.94,286.84 73.85,287.41 C74.21,287.63 74.35,284.94 74.17,281.43 C73.93,276.85 74.31,274.12 75.53,271.77 C77.48,267.99 79.15,261.79 78.02,262.49 C77.26,262.96 77.64,255.79 78.63,251.05 C79.03,249.12 79.33,248.91 80.05,250.05 C80.26,250.38 80.42,250.56 80.56,250.60 C80.18,253.39 79.23,259.15 78.44,263.50 C77.63,267.90 74.73,285.23 71.98,302.00 C69.24,318.77 65.42,341.50 63.49,352.50 C61.56,363.50 59.55,375.42 59.02,379.00 C57.68,388.05 54.85,404.45 53.78,409.48 ZM 137.60 148.49 C136.88,148.90 136.03,148.48 134.79,147.43 C132.58,145.54 132.56,145.54 134.02,147.42 C135.43,149.25 135.34,149.30 132.03,148.65 C127.80,147.81 126.98,147.05 126.62,143.67 C126.27,140.46 121.41,136.43 118.35,136.83 C115.71,137.18 112.88,135.80 108.78,132.15 C105.59,129.31 103.25,125.79 104.86,126.24 C105.38,126.38 105.85,126.15 105.90,125.72 C105.96,125.29 99.50,124.80 91.54,124.63 C83.59,124.47 77.25,124.60 77.44,124.92 C77.63,125.24 76.60,126.38 75.15,127.45 C72.55,129.37 72.53,129.37 74.00,127.47 C74.66,126.61 73.96,126.95 72.40,128.18 C73.83,126.97 75.20,125.91 76.19,125.25 C79.87,122.82 80.44,122.75 92.37,123.21 L 104.73 123.68 L 114.61 131.64 C130.00,144.02 136.01,148.45 137.60,148.49 ZM 413.27 217.61 C412.09,219.22 410.24,220.32 408.43,220.48 C404.90,220.79 400.27,219.14 399.57,217.32 C399.18,216.30 400.67,216.00 406.05,216.00 C412.77,216.00 413.21,215.85 417.27,212.14 C421.00,208.74 424.00,207.74 424.00,209.89 C424.00,211.62 419.72,215.00 417.54,215.00 C416.13,215.00 414.39,216.06 413.27,217.61 ZM 145.00 168.18 C145.00,171.25 144.63,172.00 143.12,172.00 C139.77,172.00 138.74,169.53 139.48,163.21 C139.85,160.00 140.51,156.79 140.95,156.08 C142.03,154.33 145.00,163.19 145.00,168.18 ZM 84.21 156.89 C83.07,157.77 81.99,159.85 81.81,161.50 L 81.48 164.50 L 80.76 161.23 C80.36,159.43 79.24,157.70 78.27,157.38 C77.30,157.07 75.82,156.59 75.00,156.33 C72.36,155.50 76.95,153.00 81.13,153.00 C85.68,153.00 87.03,154.70 84.21,156.89 ZM 178.71 197.38 C176.38,198.01 173.33,197.98 168.69,197.28 C163.86,196.55 167.37,194.00 173.19,194.00 C178.82,194.00 182.62,196.33 178.71,197.38 ZM 89.00 204.43 C89.00,206.44 86.08,206.45 83.22,204.44 C79.86,202.09 80.29,199.00 83.96,199.00 C86.96,199.00 89.00,201.20 89.00,204.43 ZM 96.62 230.23 C93.61,232.20 89.18,229.57 90.36,226.51 C91.28,224.10 95.92,224.62 96.91,227.25 C97.45,228.69 97.35,229.76 96.62,230.23 ZM 72.10 184.99 C73.31,184.91 76.25,184.20 78.90,183.34 C83.20,181.95 84.46,181.89 86.76,182.98 C88.27,183.68 89.00,184.44 88.40,184.67 C87.86,184.86 87.58,185.87 87.69,187.03 C87.30,185.66 85.88,185.45 78.75,185.21 L 72.10 184.99 ZM 54.08 421.51 C53.86,421.02 53.27,420.24 52.45,419.35 C51.10,417.90 50.00,416.36 50.00,415.94 C50.00,414.16 52.67,414.40 54.94,416.38 L 56.65 417.87 C57.42,419.30 57.79,420.53 57.54,420.94 C56.77,422.18 55.63,422.37 54.08,421.51 ZM 413.00 149.50 L 415.50 150.93 L 412.00 150.81 C410.08,150.74 406.25,150.42 403.50,150.09 C399.31,149.60 398.90,149.38 401.00,148.76 C404.92,147.61 410.27,147.94 413.00,149.50 ZM 97.00 190.52 C97.24,189.77 97.58,189.22 98.02,188.93 C98.83,188.39 103.21,188.08 107.75,188.23 C112.57,188.39 116.19,188.08 116.44,187.50 C117.17,185.81 119.69,189.79 119.42,192.22 C119.28,193.47 119.13,194.86 119.08,195.31 C119.04,195.75 118.51,195.81 117.90,195.44 C117.69,195.31 117.54,195.24 117.44,195.23 C117.32,194.82 117.18,194.41 117.04,194.00 L 115.14 188.50 L 107.32 188.24 C103.02,188.10 98.83,188.42 98.02,188.95 C97.58,189.23 97.24,189.77 97.00,190.52 ZM 181.29 203.75 C180.66,205.48 178.34,205.32 177.64,203.50 C177.17,202.28 178.08,202.00 182.53,202.00 C186.73,202.00 188.00,202.35 188.00,203.50 C188.00,205.33 186.66,205.41 183.86,203.75 C182.16,202.75 181.65,202.75 181.29,203.75 ZM 52.50 316.95 C52.37,322.48 49.99,326.79 50.01,321.45 C50.03,316.94 51.17,310.99 51.93,311.46 C52.31,311.69 52.56,314.16 52.50,316.95 ZM 113.03 158.40 C114.31,158.50 115.11,158.60 115.25,158.68 C115.66,158.92 116.04,161.45 116.10,164.31 C116.17,167.89 116.41,168.76 116.87,167.12 C117.47,164.98 117.67,164.90 118.87,166.34 C119.99,167.69 119.94,168.20 118.59,169.55 C117.71,170.43 116.52,172.02 115.96,173.08 C114.80,175.24 113.19,175.58 113.01,173.82 C113.11,174.55 113.63,174.96 114.25,174.75 C115.67,174.28 116.61,160.17 115.30,158.95 C115.07,158.74 114.25,158.56 113.03,158.40 ZM 48.07 349.00 C47.56,349.00 46.90,349.79 46.60,350.75 C46.31,351.71 46.27,350.70 46.52,348.50 C46.77,346.30 46.98,343.49 46.99,342.25 C47.00,341.01 47.45,340.00 48.00,340.00 C48.55,340.00 49.00,342.02 49.00,344.50 C49.00,346.98 48.58,349.00 48.07,349.00 ZM 428.01 200.25 C428.00,202.57 426.29,202.49 425.54,200.14 C424.79,197.76 425.73,195.32 427.70,194.56 C428.90,194.10 429.11,194.47 428.63,196.24 C428.30,197.48 428.02,199.29 428.01,200.25 ZM 136.00 171.50 C136.00,173.00 132.92,173.59 131.67,172.33 C130.31,170.97 131.07,170.00 133.50,170.00 C135.06,170.00 136.00,170.57 136.00,171.50 ZM 46.42 404.91 C47.40,406.00 47.98,407.85 47.75,409.17 C47.39,411.26 47.17,411.11 45.61,407.64 C43.62,403.19 43.92,402.15 46.42,404.91 ZM 23.46 189.58 C23.79,189.20 24.00,188.60 24.00,187.93 C24.00,186.79 24.67,185.18 25.50,184.36 C26.83,183.02 27.00,183.06 27.02,184.68 C27.03,185.94 27.18,186.16 27.69,185.44 C27.63,185.60 27.57,185.77 27.51,185.96 C27.13,187.17 25.32,188.78 23.46,189.58 ZM 43.98 373.25 C43.99,375.31 43.55,377.00 43.00,377.00 C41.73,377.00 41.73,372.97 43.00,371.00 C43.72,369.88 43.97,370.46 43.98,373.25 ZM 42.09 389.28 C42.66,390.25 42.98,392.28 42.81,393.78 L 42.49 396.50 L 41.76 394.00 C41.36,392.62 41.03,390.60 41.04,389.50 C41.06,387.64 41.14,387.63 42.09,389.28 ZM 65.46 244.07 C65.14,244.58 63.90,244.99 62.69,244.97 C60.57,244.94 60.56,244.89 62.40,243.50 C64.35,242.02 66.48,242.42 65.46,244.07 ZM 55.98 289.19 C55.99,290.67 55.55,292.16 55.00,292.50 C53.72,293.29 53.72,289.98 55.00,288.00 C55.76,286.83 55.97,287.09 55.98,289.19 ZM 42.27 164.80 C43.53,164.83 44.78,164.35 45.55,163.33 C46.84,161.63 46.94,161.62 46.97,163.25 C46.99,164.21 46.58,165.00 46.06,165.00 C45.56,165.00 45.01,166.79 44.83,169.02 C45.08,165.42 44.85,165.11 42.40,164.82 C42.36,164.82 42.31,164.81 42.27,164.80 ZM 186.50 209.00 C185.73,210.24 184.92,210.24 183.00,209.00 C181.84,208.25 182.13,208.03 184.31,208.02 C185.93,208.01 186.86,208.42 186.50,209.00 ZM 188.57 195.32 C189.38,197.43 188.87,198.16 187.27,197.17 C186.53,196.71 186.43,195.92 187.00,195.00 C187.75,193.79 188.00,193.84 188.57,195.32 ZM 92.54 192.94 C92.22,193.45 91.10,193.81 90.05,193.73 C87.56,193.54 88.51,192.00 91.12,192.00 C92.22,192.00 92.86,192.42 92.54,192.94 ZM 47.00 354.38 C47.00,355.21 46.55,356.16 46.00,356.50 C45.45,356.84 45.00,356.44 45.00,355.62 C45.00,354.79 45.45,353.84 46.00,353.50 C46.55,353.16 47.00,353.56 47.00,354.38 ZM 395.36 216.92 C395.98,217.11 396.43,217.32 396.85,217.57 C398.52,218.56 399.62,219.80 399.29,220.34 C399.29,220.34 399.29,220.35 399.28,220.35 C398.43,219.76 397.62,219.09 396.83,218.34 L 395.36 216.92 ZM 41.88 186.32 C41.97,186.53 42.00,186.78 42.00,187.06 C42.00,188.10 41.04,197.18 39.87,207.23 C37.13,230.72 37.05,233.35 39.11,233.77 C39.90,233.93 40.60,233.52 41.27,232.35 C40.60,233.52 39.90,233.93 39.11,233.77 C37.01,233.36 37.07,231.18 39.94,206.22 C41.02,196.87 41.80,188.81 41.88,186.32 ZM 66.04 134.07 C65.73,134.41 65.49,134.71 65.32,134.95 C64.53,136.08 63.40,137.00 62.80,137.00 C62.08,137.00 58.01,139.94 53.43,143.58 C57.91,139.98 61.88,137.00 62.44,137.00 C62.74,137.00 64.22,135.78 66.04,134.07 ZM 198.19 370.73 C201.61,370.81 205.02,370.38 205.01,369.50 C205.01,368.95 204.45,368.51 203.76,368.50 C204.45,368.51 205.11,368.95 205.25,369.50 C205.55,370.71 202.13,371.08 198.19,370.73 ZM 88.27 158.70 C88.55,157.90 91.60,157.64 99.35,157.81 C93.61,157.82 88.48,158.10 88.27,158.70 ZM 80.99 248.14 C81.13,245.56 82.66,242.36 84.73,240.23 C83.04,242.16 81.73,244.92 80.99,248.14 ZM 117.88 196.77 C117.89,196.79 117.89,196.80 117.90,196.81 C118.80,198.49 119.11,201.77 118.90,204.66 C118.97,202.38 118.63,199.64 117.88,196.77 ZM 16.63 194.12 C18.90,191.85 21.21,190.11 22.52,190.01 C20.50,190.98 18.46,192.43 16.63,194.12 ZM 87.82 187.84 C88.07,189.43 87.73,190.00 86.58,190.00 C86.48,190.00 86.37,190.01 86.26,190.02 C87.41,189.39 87.85,188.74 87.82,187.84 ZM 399.74 220.66 C399.78,220.64 399.81,220.62 399.85,220.60 C400.48,220.20 401.00,220.31 401.00,220.84 C401.00,221.08 401.09,221.31 401.25,221.52 C400.73,221.26 400.23,220.97 399.74,220.66 ZM 411.05 223.87 C420.60,224.41 434.06,223.09 437.99,220.16 C434.86,222.49 425.99,223.99 415.22,223.99 C413.72,224.00 412.34,223.96 411.05,223.87 ZM 55.70 416.29 L 55.17 415.59 C54.16,414.26 53.57,412.95 53.48,411.86 C53.73,412.95 54.52,414.59 55.57,416.10 C55.61,416.16 55.66,416.23 55.70,416.29 ZM 147.95 257.94 C143.30,252.90 141.36,249.24 140.56,242.97 C141.48,249.37 143.42,253.04 147.95,257.94 ZM 70.00 190.23 C69.82,189.22 69.82,188.16 70.00,187.26 L 70.00 190.23 ZM 41.42 153.92 C39.38,155.92 38.19,158.42 38.13,160.49 C38.10,158.51 39.18,156.12 41.42,153.92 ZM 32.34 184.18 C33.19,184.23 34.20,184.32 35.39,184.45 C37.04,184.63 38.29,184.79 39.24,184.97 C38.01,184.78 36.47,184.59 34.82,184.42 C33.87,184.32 33.05,184.24 32.34,184.18 ZM 139.90 143.91 C139.39,145.52 138.95,146.68 138.51,147.45 C138.95,146.57 139.48,145.24 139.90,143.91 ZM 7.37 206.94 C8.45,206.47 9.61,204.96 10.56,202.49 C9.61,204.97 8.46,206.48 7.37,206.94 ZM 111.50 172.03 C110.76,171.97 109.94,172.29 109.47,173.05 C109.95,172.28 110.77,171.96 111.50,172.03 Z" fill="rgba(0,0,0,1)"/>
<path d="M 48.07 415.58 C45.92,412.89 44.14,410.32 42.72,407.85 C42.82,407.95 42.91,408.00 42.99,408.00 C43.92,408.00 43.50,405.69 41.27,398.57 C39.28,392.23 39.98,379.09 43.40,358.50 C44.77,350.25 46.34,339.45 46.90,334.50 C47.45,329.55 49.28,316.16 50.95,304.75 C54.10,283.33 54.44,279.32 53.37,276.53 C53.03,275.63 50.43,273.42 47.59,271.60 C39.74,266.58 38.35,265.89 37.53,266.97 C37.30,266.42 37.34,265.83 37.53,265.08 C38.05,262.95 45.74,252.85 58.32,237.79 L 62.25 233.07 L 62.07 222.47 C61.97,216.64 61.66,211.28 61.38,210.55 C61.10,209.83 59.10,208.95 56.94,208.61 C54.02,208.14 53.00,207.50 53.00,206.14 C53.00,203.75 56.09,201.00 58.77,201.00 C61.70,201.00 62.18,199.80 61.44,194.26 C60.62,188.10 59.36,186.47 54.83,185.74 C51.61,185.22 51.09,185.38 49.86,187.91 C50.33,186.64 50.31,185.71 49.78,185.18 C49.24,184.64 49.08,183.31 49.43,182.22 C49.88,180.79 50.87,180.28 52.96,180.38 C54.56,180.46 56.19,180.86 56.60,181.27 C57.01,181.67 58.16,181.26 59.17,180.35 C60.88,178.80 61.00,178.81 61.00,180.40 C61.00,181.35 61.45,181.84 62.00,181.50 C62.55,181.16 63.00,179.55 63.00,177.92 C63.00,175.30 62.73,175.03 60.61,175.56 C59.29,175.89 57.92,175.68 57.55,175.08 C57.15,174.44 57.72,174.00 58.94,174.00 C60.39,174.00 61.00,173.35 61.00,171.81 C61.00,169.69 60.95,169.68 59.61,171.52 C59.20,172.09 58.58,172.55 57.80,172.88 C58.58,172.55 59.20,172.08 59.61,171.52 C60.37,170.47 61.00,168.58 61.00,167.31 C61.00,165.20 60.56,165.00 56.00,165.00 L 51.47 165.00 L 51.59 163.20 C52.17,154.48 52.06,152.81 50.90,153.20 C50.10,153.46 49.07,156.10 48.50,159.37 C47.95,162.51 47.00,165.40 46.38,165.79 C45.07,166.62 44.02,174.00 45.20,174.00 C45.64,174.00 46.00,174.45 46.00,175.00 C46.00,176.24 37.33,176.34 36.57,175.11 C36.27,174.63 34.48,174.10 32.50,173.88 C33.60,173.90 35.00,173.86 36.81,173.79 L 44.50 173.50 L 44.81 169.25 C44.98,166.91 45.54,165.00 46.06,165.00 C46.58,165.00 46.99,164.21 46.97,163.25 C46.94,161.62 46.84,161.63 45.55,163.33 C43.93,165.47 40.17,165.24 38.70,162.90 C37.32,160.69 38.49,156.80 41.42,153.92 C47.30,148.15 61.39,137.00 62.80,137.00 C63.40,137.00 64.53,136.08 65.32,134.95 C66.11,133.82 68.73,131.24 71.13,129.21 C73.53,127.19 74.82,126.40 74.00,127.47 C72.53,129.37 72.55,129.37 75.15,127.45 C76.60,126.38 77.63,125.24 77.44,124.92 C77.25,124.60 83.59,124.47 91.54,124.63 C99.50,124.80 105.96,125.29 105.90,125.72 C105.85,126.15 105.38,126.38 104.86,126.24 C103.25,125.79 105.59,129.31 108.78,132.15 C112.88,135.80 115.71,137.18 118.35,136.83 C121.41,136.43 126.27,140.46 126.62,143.67 C126.98,147.05 127.80,147.81 132.03,148.65 C135.34,149.30 135.43,149.25 134.02,147.42 C132.56,145.54 132.58,145.54 134.79,147.43 C137.39,149.64 138.27,149.04 139.90,143.91 C140.53,141.94 142.32,139.11 143.88,137.61 L 146.72 134.89 L 161.61 135.34 C169.80,135.58 177.06,135.90 177.75,136.06 C178.44,136.21 180.39,138.49 182.08,141.12 C183.77,143.76 185.91,146.12 186.83,146.38 C187.54,146.57 197.60,146.92 210.99,147.23 C196.97,147.02 187.74,147.05 187.19,147.39 C186.43,147.85 186.52,149.21 187.48,151.93 C188.23,154.07 189.42,161.05 190.12,167.44 C191.63,181.17 190.25,201.36 187.20,210.41 C185.53,215.36 185.50,215.97 186.92,216.42 C187.79,216.70 210.32,216.71 237.00,216.45 C263.67,216.20 310.84,215.94 341.80,215.89 C372.77,215.84 401.10,215.42 404.76,214.97 C410.44,214.26 411.72,213.72 413.46,211.32 C414.58,209.77 416.93,206.91 418.68,204.96 C420.43,203.01 422.85,198.55 424.06,195.06 C427.13,186.20 426.47,173.65 422.38,163.00 C419.72,156.06 419.15,155.33 414.82,153.18 C410.73,151.15 410.10,150.90 384.08,150.92 C394.55,150.78 395.31,150.31 396.60,148.89 C397.64,147.74 400.29,145.88 402.47,144.76 C405.96,142.98 407.69,142.80 416.97,143.30 C435.35,144.27 441.44,147.13 446.56,157.16 C447.87,159.72 449.70,164.56 450.63,167.91 C452.26,173.75 452.46,174.00 455.53,174.00 L 453.13 174.00 L 452.82 183.79 L 452.50 193.57 L 452.50 193.57 L 449.96 201.12 C447.32,208.97 442.31,216.94 437.99,220.16 C431.71,224.84 401.00,225.41 401.00,220.84 C401.00,220.31 400.48,220.20 399.85,220.60 C399.21,220.99 398.96,220.87 399.29,220.34 C399.62,219.80 398.52,218.56 396.85,217.57 C394.03,215.90 390.05,215.79 338.66,215.91 C308.32,215.98 261.67,216.28 235.00,216.56 C208.32,216.85 185.98,217.07 185.35,217.04 C184.72,217.02 183.28,218.55 182.17,220.44 C178.67,226.36 175.76,227.19 159.66,226.82 C146.70,226.53 145.31,226.32 143.33,224.33 C142.14,223.14 141.43,221.90 141.75,221.58 C142.07,221.26 141.88,221.00 141.32,221.00 C140.77,221.00 139.75,219.10 139.05,216.79 C137.81,212.65 137.85,212.53 141.02,209.69 C144.77,206.34 146.64,207.56 144.39,211.87 C142.63,215.23 142.65,216.00 144.50,216.00 C145.43,216.00 146.00,216.94 146.00,218.50 C146.00,222.00 148.99,221.76 152.34,218.00 C153.98,216.16 155.99,215.00 157.55,215.00 C159.00,215.00 160.02,214.46 159.93,213.75 C159.52,210.63 160.14,208.99 161.75,208.88 C162.71,208.82 162.19,208.48 160.58,208.13 C156.49,207.24 156.01,205.00 159.92,205.00 C161.99,205.00 163.00,204.51 163.00,203.50 C163.00,202.59 162.07,202.00 160.62,202.00 C157.32,202.00 155.33,199.51 157.02,197.48 C157.96,196.34 158.11,193.21 157.59,185.03 C156.91,174.28 156.84,174.04 153.45,170.65 C151.04,168.24 150.00,166.29 150.00,164.18 C150.00,160.58 149.12,158.00 147.89,158.00 C146.49,158.00 146.85,166.39 148.41,170.13 C149.70,173.21 149.56,179.00 148.20,179.00 C147.88,179.00 146.59,178.02 145.32,176.83 C143.26,174.89 142.74,174.80 140.50,176.00 C139.12,176.74 137.09,178.88 135.97,180.77 C134.09,183.96 133.66,184.17 129.73,183.77 C127.40,183.53 124.82,183.05 124.00,182.70 C123.18,182.35 121.60,182.74 120.50,183.59 C118.62,185.02 118.61,185.18 120.25,186.11 C122.01,187.11 122.06,190.14 120.42,195.75 C119.81,197.85 120.07,198.00 124.26,198.00 C129.89,198.00 130.83,199.12 132.21,207.47 C133.25,213.70 133.19,214.18 131.23,215.55 L 129.15 217.01 L 131.73 221.76 C134.74,227.29 137.97,231.14 139.04,230.47 C139.46,230.22 139.97,233.72 140.18,238.25 C140.61,247.64 142.24,251.76 147.95,257.94 C151.60,261.90 151.77,262.40 152.19,270.33 C152.70,280.12 156.53,289.49 162.28,295.05 C164.99,297.67 166.37,300.31 168.01,306.00 C170.31,314.00 174.76,322.91 178.50,327.00 C179.76,328.38 182.74,335.32 185.12,342.43 C190.31,357.91 194.26,364.96 198.50,366.33 C200.15,366.86 201.73,367.57 202.00,367.90 C202.27,368.23 203.06,368.50 203.75,368.50 C204.44,368.50 205.01,368.95 205.01,369.50 C205.03,371.01 194.85,371.20 192.02,369.74 C190.66,369.04 189.02,367.42 188.39,366.15 C187.75,364.88 185.89,362.41 184.26,360.67 C179.03,355.10 172.97,346.12 172.35,343.01 C172.02,341.36 171.44,340.00 171.06,340.00 C169.35,340.00 163.69,333.19 161.56,328.59 C160.27,325.79 158.08,322.19 156.69,320.59 C155.30,318.99 153.88,316.19 153.54,314.37 C153.20,312.55 152.38,310.49 151.71,309.78 C151.04,309.08 149.37,306.02 148.01,303.00 C146.64,299.98 145.24,297.27 144.91,297.00 C144.57,296.73 143.76,294.89 143.12,292.91 C142.48,290.94 140.84,287.81 139.48,285.97 C138.11,284.12 137.00,281.91 137.00,281.04 C137.00,280.18 135.44,277.23 133.54,274.49 C131.64,271.74 128.98,267.88 127.63,265.91 C124.88,261.89 114.34,251.26 109.26,247.39 C107.44,245.99 105.17,244.07 104.22,243.10 C101.29,240.12 96.33,237.04 93.86,236.66 C92.25,236.41 91.49,235.62 91.47,234.18 C91.45,233.02 90.26,230.82 88.81,229.29 C81.45,221.50 73.47,200.73 76.01,195.99 C77.16,193.83 83.92,190.00 86.58,190.00 C87.80,190.00 88.11,189.35 87.76,187.53 C87.50,186.18 87.79,184.89 88.40,184.67 C89.00,184.44 88.27,183.68 86.76,182.98 C84.46,181.89 83.20,181.95 78.90,183.34 C76.08,184.26 72.92,185.00 71.89,185.00 C69.18,185.00 69.20,192.02 71.90,193.71 C73.68,194.82 73.71,195.17 72.32,199.19 C68.92,209.08 73.38,223.97 82.71,233.87 C86.05,237.41 86.65,238.56 85.61,239.42 C83.01,241.55 81.00,245.50 80.98,248.47 C80.97,250.70 80.73,251.12 80.05,250.05 C79.33,248.91 79.03,249.12 78.63,251.05 C77.64,255.79 77.26,262.96 78.02,262.49 C79.15,261.79 77.48,267.99 75.53,271.77 C74.31,274.12 73.93,276.85 74.17,281.43 C74.35,284.94 74.21,287.63 73.85,287.41 C72.94,286.84 71.00,292.72 71.00,296.02 C71.00,297.52 70.32,300.66 69.50,303.00 C67.79,307.85 67.52,313.67 68.99,314.17 C69.63,314.38 69.67,316.12 69.10,319.00 C68.50,322.05 68.15,322.69 68.01,321.00 C67.66,316.75 65.01,326.47 64.02,335.69 C63.53,340.19 62.22,348.29 61.10,353.69 C58.19,367.70 55.85,380.53 54.91,387.67 C54.46,391.06 53.38,396.60 52.50,399.99 C50.91,406.14 51.23,410.59 53.18,409.39 C53.83,408.99 53.98,409.49 53.59,410.72 C53.19,411.97 53.77,413.75 55.17,415.59 L 57.38 418.50 L 54.94 416.38 C52.67,414.40 50.00,414.16 50.00,415.94 C50.00,416.36 51.10,417.90 52.45,419.35 C53.80,420.81 54.51,422.00 54.04,422.00 C53.56,422.00 50.87,419.11 48.07,415.58 ZM 41.37 194.12 C41.34,194.28 41.31,194.42 41.29,194.56 C41.73,190.48 42.00,187.62 42.00,187.06 C42.00,185.46 40.97,185.05 35.39,184.45 C30.27,183.90 28.58,184.05 27.90,185.12 C27.22,186.20 27.03,186.10 27.02,184.68 C27.00,183.06 26.83,183.02 25.50,184.36 C24.67,185.18 24.00,186.79 24.00,187.93 C24.00,189.07 23.39,190.00 22.64,190.00 C19.94,190.00 12.33,197.86 10.57,202.45 C8.52,207.83 5.51,208.69 4.27,204.25 C2.94,199.51 3.47,157.97 4.91,153.69 C6.77,148.16 9.84,148.87 12.26,155.40 C14.86,162.42 17.39,165.53 22.52,168.01 C25.00,169.21 27.50,171.07 28.07,172.14 C28.55,173.03 29.07,173.51 30.42,173.73 C28.76,173.72 28.48,174.16 28.55,175.55 C28.72,179.47 29.85,180.00 38.06,180.00 C44.45,180.00 46.00,180.29 46.00,181.50 C46.00,182.71 44.31,183.02 37.25,183.12 C28.90,183.23 28.73,183.28 33.50,184.13 C36.25,184.62 40.03,184.76 41.89,184.44 L 45.29 183.86 L 44.59 191.58 C43.71,201.25 42.97,205.00 41.95,205.00 C41.51,205.00 40.94,204.21 40.69,203.25 C40.58,202.83 40.47,202.72 40.37,202.87 C40.65,200.46 40.90,198.17 41.12,196.13 C41.13,196.78 41.34,196.91 41.75,196.50 C43.08,195.18 44.01,186.12 42.88,185.43 C42.40,185.13 42.00,186.20 42.00,187.82 C42.00,189.43 41.72,192.27 41.37,194.12 ZM 94.69 180.51 C96.26,181.33 98.31,181.49 100.56,180.99 C102.46,180.56 104.19,180.51 104.42,180.87 C104.65,181.24 107.65,181.65 111.09,181.80 C117.84,182.08 119.02,181.36 118.91,177.00 C118.87,175.62 118.62,175.06 118.34,175.75 C118.06,176.44 116.63,176.99 115.17,176.98 C113.08,176.97 112.82,176.76 114.00,176.00 C115.21,175.22 115.07,175.03 113.25,175.02 C112.01,175.01 111.00,175.45 111.00,176.00 C111.00,176.55 109.99,176.96 108.75,176.92 C107.51,176.88 107.07,176.61 107.76,176.33 C108.46,176.05 109.54,174.85 110.18,173.66 C110.70,172.68 110.94,172.17 110.86,172.07 C111.90,171.85 113.00,172.38 113.00,173.50 C113.00,175.61 114.73,175.37 115.96,173.08 C116.52,172.02 117.71,170.43 118.59,169.55 C119.94,168.20 119.99,167.69 118.87,166.34 C117.67,164.90 117.47,164.98 116.87,167.12 C116.41,168.76 116.17,167.89 116.10,164.31 C116.04,161.45 115.66,158.92 115.25,158.68 C114.84,158.44 108.69,158.07 101.59,157.87 C92.17,157.60 88.57,157.82 88.27,158.70 C87.99,159.54 88.87,159.73 91.23,159.35 C94.41,158.83 95.68,159.31 96.83,162.97 C96.27,161.55 95.59,161.55 94.00,161.79 C91.29,162.18 91.28,162.21 91.77,169.01 L 92.26 175.84 L 87.79 176.51 C85.33,176.88 80.44,177.03 76.91,176.84 C71.05,176.53 70.50,176.67 70.50,178.50 C70.50,180.34 71.26,180.52 79.77,180.79 C84.87,180.95 89.77,180.67 90.66,180.17 C91.70,179.59 93.15,179.71 94.69,180.51 ZM 117.63 209.49 C119.27,207.24 119.43,199.68 117.90,196.81 C117.10,195.32 117.10,194.94 117.90,195.44 C118.51,195.81 119.04,195.75 119.08,195.31 C119.13,194.86 119.28,193.47 119.42,192.22 C119.69,189.79 117.17,185.81 116.44,187.50 C116.19,188.08 112.57,188.39 107.75,188.23 C103.66,188.09 99.70,188.33 98.36,188.78 C98.58,188.35 98.33,187.47 97.73,186.64 C95.91,184.16 88.00,185.37 88.00,188.13 C88.00,189.16 88.63,190.00 89.39,190.00 C90.15,190.00 91.84,190.87 93.14,191.94 C95.49,193.86 95.51,193.86 96.47,191.69 C96.61,191.37 96.77,191.05 96.93,190.75 C96.71,191.56 96.61,192.57 96.64,193.70 C96.76,197.89 101.30,209.90 103.26,211.24 C103.94,211.71 107.15,211.92 110.38,211.72 C114.68,211.45 116.64,210.85 117.63,209.49 ZM 100.78 142.44 C103.73,140.37 103.79,135.03 100.89,132.40 C97.85,129.66 85.14,129.66 82.10,132.40 C78.61,135.57 79.67,140.20 84.50,142.85 C87.58,144.53 98.17,144.27 100.78,142.44 ZM 87.00 167.47 L 87.00 165.16 L 79.48 164.83 C75.34,164.65 71.51,164.65 70.98,164.83 C70.44,165.02 70.00,167.38 70.00,170.08 L 70.00 175.00 L 87.00 175.00 L 87.00 167.47 ZM 413.27 217.61 C414.39,216.06 416.13,215.00 417.54,215.00 C419.72,215.00 424.00,211.62 424.00,209.89 C424.00,207.74 421.00,208.74 417.27,212.14 C413.21,215.85 412.77,216.00 406.05,216.00 C400.67,216.00 399.18,216.30 399.57,217.32 C400.27,219.14 404.90,220.79 408.43,220.48 C410.24,220.32 412.09,219.22 413.27,217.61 ZM 145.00 168.18 C145.00,163.19 142.03,154.33 140.95,156.08 C140.51,156.79 139.85,160.00 139.48,163.21 C138.74,169.53 139.77,172.00 143.12,172.00 C144.63,172.00 145.00,171.25 145.00,168.18 ZM 84.21 156.89 C87.03,154.70 85.68,153.00 81.13,153.00 C76.95,153.00 72.36,155.50 75.00,156.33 C75.82,156.59 77.30,157.07 78.27,157.38 C79.24,157.70 80.36,159.43 80.76,161.23 L 81.48 164.50 L 81.81 161.50 C81.99,159.85 83.07,157.77 84.21,156.89 ZM 178.71 197.38 C182.62,196.33 178.82,194.00 173.19,194.00 C167.37,194.00 163.86,196.55 168.69,197.28 C173.33,197.98 176.38,198.01 178.71,197.38 ZM 89.00 204.43 C89.00,201.20 86.96,199.00 83.96,199.00 C80.29,199.00 79.86,202.09 83.22,204.44 C86.08,206.45 89.00,206.44 89.00,204.43 ZM 96.62 230.23 C97.35,229.76 97.45,228.69 96.91,227.25 C95.92,224.62 91.28,224.10 90.36,226.51 C89.18,229.57 93.61,232.20 96.62,230.23 ZM 413.00 149.50 C410.27,147.94 404.92,147.61 401.00,148.76 C398.90,149.38 399.31,149.60 403.50,150.09 C406.25,150.42 410.08,150.74 412.00,150.81 L 415.50 150.93 ZM 181.29 203.75 C181.65,202.75 182.16,202.75 183.86,203.75 C186.66,205.41 188.00,205.33 188.00,203.50 C188.00,202.35 186.73,202.00 182.53,202.00 C178.08,202.00 177.17,202.28 177.64,203.50 C178.34,205.32 180.66,205.48 181.29,203.75 ZM 52.50 316.95 C52.56,314.16 52.31,311.69 51.93,311.46 C51.17,310.99 50.03,316.94 50.01,321.45 C49.99,326.79 52.37,322.48 52.50,316.95 ZM 48.07 349.00 C48.58,349.00 49.00,346.98 49.00,344.50 C49.00,342.02 48.55,340.00 48.00,340.00 C47.45,340.00 47.00,341.01 46.99,342.25 C46.98,343.49 46.77,346.30 46.52,348.50 C46.27,350.70 46.31,351.71 46.60,350.75 C46.90,349.79 47.56,349.00 48.07,349.00 ZM 428.01 200.25 C428.02,199.29 428.30,197.48 428.63,196.24 C429.11,194.47 428.90,194.10 427.70,194.56 C425.73,195.32 424.79,197.76 425.54,200.14 C426.29,202.49 428.00,202.57 428.01,200.25 ZM 46.94 201.64 C46.80,202.59 46.67,203.55 46.56,204.50 C43.70,227.48 41.95,234.34 39.11,233.77 C38.95,233.73 38.81,233.69 38.68,233.62 C39.05,233.16 39.48,232.06 40.08,230.25 C40.76,228.19 41.91,226.05 42.63,225.50 C43.44,224.88 44.74,218.23 46.05,208.00 C46.33,205.82 46.63,203.67 46.94,201.64 ZM 6.61 183.42 C7.70,186.27 8.00,185.10 7.93,178.25 C7.88,173.55 7.60,172.11 7.00,173.50 C5.97,175.89 5.76,181.21 6.61,183.42 ZM 136.00 171.50 C136.00,170.57 135.06,170.00 133.50,170.00 C131.07,170.00 130.31,170.97 131.67,172.33 C132.92,173.59 136.00,173.00 136.00,171.50 ZM 46.42 404.91 C43.92,402.15 43.62,403.19 45.61,407.64 C47.17,411.11 47.39,411.26 47.75,409.17 C47.98,407.85 47.40,406.00 46.42,404.91 ZM 43.98 373.25 C43.97,370.46 43.72,369.88 43.00,371.00 C41.73,372.97 41.73,377.00 43.00,377.00 C43.55,377.00 43.99,375.31 43.98,373.25 ZM 42.09 389.28 C41.14,387.63 41.06,387.64 41.04,389.50 C41.03,390.60 41.36,392.62 41.76,394.00 L 42.49 396.50 L 42.81 393.78 C42.98,392.28 42.66,390.25 42.09,389.28 ZM 65.46 244.07 C66.48,242.42 64.35,242.02 62.40,243.50 C60.56,244.89 60.57,244.94 62.69,244.97 C63.90,244.99 65.14,244.58 65.46,244.07 ZM 55.98 289.19 C55.97,287.09 55.76,286.83 55.00,288.00 C53.72,289.98 53.72,293.29 55.00,292.50 C55.55,292.16 55.99,290.67 55.98,289.19 ZM 100.80 174.56 C101.66,175.07 102.71,174.72 104.14,173.69 C103.66,174.24 103.41,174.90 103.64,175.52 C104.00,176.45 103.62,177.00 102.61,177.00 C101.72,177.00 101.00,176.32 101.00,175.50 C101.00,175.15 100.93,174.82 100.80,174.56 ZM 186.50 209.00 C186.86,208.42 185.93,208.01 184.31,208.02 C182.13,208.03 181.84,208.25 183.00,209.00 C184.92,210.24 185.73,210.24 186.50,209.00 ZM 87.00 167.47 C87.00,168.36 87.59,168.71 88.50,168.36 C89.32,168.05 90.00,167.38 90.00,166.89 C90.00,166.40 89.32,166.00 88.50,166.00 C87.68,166.00 87.00,166.66 87.00,167.47 ZM 188.57 195.32 C188.00,193.84 187.75,193.79 187.00,195.00 C186.43,195.92 186.53,196.71 187.27,197.17 C188.87,198.16 189.38,197.43 188.57,195.32 ZM 92.54 192.94 C92.86,192.42 92.22,192.00 91.12,192.00 C88.51,192.00 87.56,193.54 90.05,193.73 C91.10,193.81 92.22,193.45 92.54,192.94 ZM 47.00 354.38 C47.00,353.56 46.55,353.16 46.00,353.50 C45.45,353.84 45.00,354.79 45.00,355.62 C45.00,356.44 45.45,356.84 46.00,356.50 C46.55,356.16 47.00,355.21 47.00,354.38 ZM 529.21 182.87 C529.20,182.88 529.19,182.88 529.19,182.89 C527.77,183.76 507.99,186.86 488.73,189.38 C506.82,186.93 527.93,183.62 529.21,182.87 ZM 41.64 270.37 C39.62,269.14 38.47,268.33 37.88,267.57 C38.50,267.21 39.00,267.33 39.00,267.86 C39.00,268.30 40.12,269.34 41.64,270.37 ZM 54.55 173.54 L 50.89 173.66 L 51.03 171.51 C51.16,173.64 51.75,173.64 54.55,173.54 ZM 38.50 219.32 C38.85,216.08 39.30,212.10 39.87,207.23 C39.93,206.67 40.00,206.10 40.06,205.55 C39.87,208.04 39.23,213.75 38.50,219.32 ZM 97.59 165.84 C97.71,166.35 97.83,166.91 97.96,167.50 C98.68,170.87 99.34,172.97 100.18,174.00 C100.16,174.00 100.13,174.00 100.11,174.00 C99.62,174.00 98.65,171.16 97.96,167.69 C97.83,167.00 97.70,166.38 97.59,165.84 ZM 40.03 402.26 C39.26,400.24 38.77,398.28 38.52,396.37 C38.25,394.24 37.77,390.92 37.46,389.00 C37.77,390.92 38.24,394.08 38.48,396.00 C38.69,397.55 39.32,400.10 40.03,402.26 ZM 50.01 277.00 C49.10,275.37 47.36,273.98 44.12,271.91 C47.34,273.90 49.08,275.30 50.01,277.00 ZM 109.51 172.99 C109.79,172.57 110.18,172.29 110.61,172.14 C110.42,172.26 110.14,172.48 109.75,172.80 C109.67,172.87 109.59,172.93 109.51,172.99 ZM 49.45 188.85 C49.11,189.83 48.71,191.51 48.29,193.61 C48.75,191.19 49.17,189.46 49.45,188.85 ZM 107.50 173.00 C107.53,173.02 107.55,173.04 107.58,173.07 C107.85,173.29 108.09,173.44 108.31,173.52 C107.99,173.53 107.73,173.37 107.53,173.05 C107.52,173.03 107.51,173.02 107.50,173.00 Z" fill="rgba(44,43,42,1)"/>
<path d="M 186.92 216.42 C185.50,215.97 185.53,215.36 187.20,210.41 C190.25,201.36 191.63,181.17 190.12,167.44 C189.42,161.05 188.23,154.07 187.48,151.93 C186.52,149.21 186.43,147.85 187.19,147.39 C188.58,146.53 245.63,147.68 295.00,149.56 C316.17,150.37 350.75,150.99 371.82,150.95 C409.99,150.86 410.17,150.87 414.82,153.18 C419.15,155.33 419.72,156.06 422.38,163.00 C426.47,173.65 427.13,186.20 424.06,195.06 C422.85,198.55 420.43,203.01 418.68,204.96 C416.93,206.91 414.58,209.77 413.46,211.32 C411.72,213.72 410.44,214.26 404.76,214.97 C404.08,215.05 402.54,215.14 400.28,215.22 C400.38,215.15 400.45,215.07 400.50,215.00 C400.87,214.41 399.70,214.00 397.62,214.00 C395.69,214.00 393.84,214.45 393.50,215.00 C393.41,215.15 393.41,215.28 393.50,215.40 C381.71,215.66 362.33,215.85 341.80,215.89 C310.84,215.94 263.67,216.20 237.00,216.45 C210.32,216.71 187.79,216.70 186.92,216.42 ZM 371.50 185.33 C383.60,185.45 398.67,185.64 405.00,185.76 C411.33,185.87 417.10,185.59 417.84,185.12 C418.57,184.66 419.02,183.20 418.84,181.89 C418.52,179.64 417.97,179.46 409.50,178.74 C395.43,177.54 295.98,178.32 293.00,179.65 C290.53,180.75 290.55,180.77 294.50,181.80 C299.48,183.09 342.22,185.05 371.50,185.33 ZM 393.50 152.96 C396.80,153.37 400.17,153.77 401.00,153.84 C402.95,154.01 405.64,152.30 404.77,151.44 C404.03,150.70 359.87,150.79 359.13,151.54 C358.87,151.79 365.15,152.05 373.08,152.11 C381.01,152.17 390.20,152.55 393.50,152.96 Z" fill="rgba(224,182,25,1)"/>
<path d="M 40.55 403.75 C39.66,401.41 38.73,397.92 38.48,396.00 C38.24,394.08 37.77,390.92 37.46,389.00 C37.14,387.08 38.00,377.85 39.37,368.50 C47.65,311.96 51.00,287.20 51.00,282.58 C51.00,276.86 49.94,275.38 42.75,271.08 C40.69,269.85 39.00,268.40 39.00,267.86 C39.00,267.32 38.48,267.20 37.85,267.60 C37.13,268.04 36.96,267.87 37.41,267.15 C38.22,265.83 39.33,266.32 47.59,271.60 C50.43,273.42 53.03,275.63 53.37,276.53 C54.44,279.32 54.10,283.33 50.95,304.75 C49.28,316.16 47.45,329.55 46.90,334.50 C46.34,339.45 44.77,350.25 43.40,358.50 C39.98,379.09 39.28,392.23 41.27,398.57 C43.50,405.69 43.92,408.00 42.99,408.00 C42.54,408.00 41.44,406.09 40.55,403.75 ZM 37.43 232.68 C37.15,231.95 37.62,226.08 38.46,219.63 C39.31,213.18 40.05,206.46 40.12,204.70 C40.18,202.94 40.44,202.29 40.69,203.25 C40.94,204.21 41.51,205.00 41.95,205.00 C42.97,205.00 43.71,201.25 44.59,191.58 L 45.29 183.86 L 41.89 184.44 C40.03,184.76 36.25,184.62 33.50,184.13 C28.73,183.28 28.90,183.23 37.25,183.12 C44.31,183.02 46.00,182.71 46.00,181.50 C46.00,180.29 44.45,180.00 38.06,180.00 C29.85,180.00 28.72,179.47 28.55,175.55 C28.47,173.76 28.95,173.54 32.23,173.85 C34.31,174.05 36.26,174.61 36.57,175.11 C37.33,176.34 46.00,176.24 46.00,175.00 C46.00,174.45 45.64,174.00 45.20,174.00 C44.02,174.00 45.07,166.62 46.38,165.79 C47.00,165.40 47.95,162.51 48.50,159.37 C49.07,156.10 50.10,153.46 50.90,153.20 C52.06,152.81 52.17,154.48 51.59,163.20 L 50.89 173.66 L 54.55 173.54 C56.90,173.46 58.72,172.73 59.61,171.52 C60.95,169.68 61.00,169.69 61.00,171.81 C61.00,173.35 60.39,174.00 58.94,174.00 C57.72,174.00 57.15,174.44 57.55,175.08 C57.92,175.68 59.29,175.89 60.61,175.56 C62.73,175.03 63.00,175.30 63.00,177.92 C63.00,179.55 62.55,181.16 62.00,181.50 C61.45,181.84 61.00,181.35 61.00,180.40 C61.00,178.81 60.88,178.80 59.17,180.35 C58.16,181.26 57.01,181.67 56.60,181.27 C56.19,180.86 54.56,180.46 52.96,180.38 C50.87,180.28 49.88,180.79 49.43,182.22 C49.08,183.31 49.24,184.64 49.78,185.18 C50.43,185.83 50.32,187.09 49.46,188.83 C48.75,190.30 47.21,198.93 46.05,208.00 C44.74,218.23 43.44,224.88 42.63,225.50 C41.91,226.05 40.76,228.19 40.08,230.25 C38.75,234.27 38.23,234.76 37.43,232.68 ZM 393.50 215.00 C393.84,214.45 395.69,214.00 397.62,214.00 C399.70,214.00 400.87,214.41 400.50,215.00 C400.16,215.55 398.31,216.00 396.38,216.00 C394.30,216.00 393.13,215.59 393.50,215.00 ZM 41.37 194.12 C41.72,192.27 42.00,189.43 42.00,187.82 C42.00,186.20 42.40,185.13 42.88,185.43 C44.01,186.12 43.08,195.18 41.75,196.50 C41.07,197.17 40.94,196.39 41.37,194.12 ZM 93.14 191.94 C91.84,190.87 90.15,190.00 89.39,190.00 C88.63,190.00 88.00,189.16 88.00,188.13 C88.00,185.37 95.91,184.16 97.73,186.64 C98.43,187.60 98.65,188.63 98.22,188.94 C97.79,189.25 97.01,190.48 96.47,191.69 C95.51,193.86 95.49,193.86 93.14,191.94 ZM 452.82 183.79 L 453.13 174.00 L 455.94 174.00 C457.48,174.00 467.01,174.91 477.12,176.02 C487.23,177.13 503.12,178.71 512.43,179.53 C521.74,180.35 529.60,181.27 529.90,181.57 C530.20,181.87 529.89,182.45 529.21,182.87 C527.59,183.87 489.19,189.63 471.50,191.52 C463.80,192.34 456.38,193.14 455.00,193.30 L 452.50 193.58 L 452.82 183.79 ZM 371.50 185.33 C342.22,185.05 299.48,183.09 294.50,181.80 C290.55,180.77 290.53,180.75 293.00,179.65 C295.98,178.32 395.43,177.54 409.50,178.74 C417.97,179.46 418.52,179.64 418.84,181.89 C419.02,183.20 418.57,184.66 417.84,185.12 C417.10,185.59 411.33,185.87 405.00,185.76 C398.67,185.64 383.60,185.45 371.50,185.33 ZM 6.61 183.42 C5.76,181.21 5.97,175.89 7.00,173.50 C7.60,172.11 7.88,173.55 7.93,178.25 C8.00,185.10 7.70,186.27 6.61,183.42 ZM 94.69 180.51 C93.15,179.71 91.70,179.59 90.66,180.17 C89.77,180.67 84.87,180.95 79.77,180.79 C71.26,180.52 70.50,180.34 70.50,178.50 C70.50,176.67 71.05,176.53 76.91,176.84 C80.44,177.03 85.33,176.88 87.79,176.51 L 92.26 175.84 L 91.77 169.01 C91.28,162.21 91.29,162.18 94.00,161.79 C96.60,161.40 96.76,161.64 97.96,167.69 C98.65,171.16 99.62,174.00 100.11,174.00 C100.60,174.00 101.00,174.68 101.00,175.50 C101.00,176.32 101.72,177.00 102.61,177.00 C103.62,177.00 104.00,176.45 103.64,175.52 C102.95,173.71 106.53,171.43 107.53,173.05 C107.97,173.75 108.69,173.67 109.75,172.80 C111.14,171.65 111.19,171.75 110.18,173.66 C109.54,174.85 108.46,176.05 107.76,176.33 C107.07,176.61 107.51,176.88 108.75,176.92 C109.99,176.96 111.00,176.55 111.00,176.00 C111.00,175.45 112.01,175.01 113.25,175.02 C115.07,175.03 115.21,175.22 114.00,176.00 C112.82,176.76 113.08,176.97 115.17,176.98 C116.63,176.99 118.06,176.44 118.34,175.75 C118.62,175.06 118.87,175.62 118.91,177.00 C119.02,181.36 117.84,182.08 111.09,181.80 C107.65,181.65 104.65,181.24 104.42,180.87 C104.19,180.51 102.46,180.56 100.56,180.99 C98.31,181.49 96.26,181.33 94.69,180.51 ZM 87.00 167.47 C87.00,166.66 87.68,166.00 88.50,166.00 C89.32,166.00 90.00,166.40 90.00,166.89 C90.00,167.38 89.32,168.05 88.50,168.36 C87.59,168.71 87.00,168.36 87.00,167.47 ZM 393.50 152.96 C390.20,152.55 381.01,152.17 373.08,152.11 C365.15,152.05 358.87,151.79 359.13,151.54 C359.87,150.79 404.03,150.70 404.77,151.44 C405.64,152.30 402.95,154.01 401.00,153.84 C400.17,153.77 396.80,153.37 393.50,152.96 Z" fill="rgba(201,190,158,1)"/>
</g>
</svg>