<svg xmlns="http://www.w3.org/2000/svg" width="1254" height="836" viewBox="0 0 1254 836">
<g>
<path d="M 327.52 405.03 C328.09,405.95 328.50,405.87 329.15,404.69 C329.79,403.55 330.96,403.28 333.51,403.70 C336.74,404.22 337.00,404.07 337.00,401.69 C337.00,400.28 336.54,398.83 335.97,398.48 C334.84,397.78 334.98,391.00 336.13,391.00 C336.53,391.00 337.60,391.74 338.50,392.65 C339.71,393.85 339.83,394.49 338.97,395.02 C338.06,395.58 338.06,395.92 338.96,396.48 C339.61,396.88 339.90,397.82 339.61,398.57 C339.32,399.33 339.73,400.58 340.51,401.37 C341.71,402.56 342.53,402.58 345.72,401.49 C347.80,400.78 349.65,399.47 349.82,398.60 C350.00,397.72 350.79,397.00 351.57,397.00 C353.46,397.00 353.41,395.37 351.50,394.64 C350.67,394.32 350.00,393.59 350.00,393.01 C350.00,392.43 351.78,392.87 353.96,393.98 C358.69,396.39 360.34,396.50 362.00,394.50 C362.68,393.67 362.85,393.00 362.36,393.00 C361.88,393.00 360.88,392.04 360.15,390.87 C359.04,389.09 359.04,388.59 360.16,387.87 C361.18,387.21 360.96,386.85 359.25,386.38 C358.01,386.04 357.00,385.38 357.00,384.91 C357.00,383.32 365.90,388.15 366.83,390.25 C367.02,390.66 367.86,391.00 368.70,391.00 C369.83,391.00 370.11,390.22 369.79,388.00 C369.37,385.17 369.45,385.09 371.15,386.64 C372.14,387.53 372.71,388.66 372.42,389.13 C371.71,390.27 373.26,390.23 376.43,389.02 C378.14,388.38 379.01,387.29 379.02,385.77 C379.04,382.55 380.41,380.79 382.60,381.17 C384.20,381.45 384.43,380.97 384.15,378.00 L 383.83 374.50 L 386.77 377.77 C389.19,380.46 389.92,380.80 390.86,379.67 C391.49,378.91 392.08,376.44 392.16,374.19 C392.25,371.93 392.73,370.33 393.23,370.64 C393.73,370.95 393.91,371.79 393.63,372.52 C393.02,374.10 395.60,375.26 398.02,374.49 C399.19,374.12 399.92,374.60 400.28,375.97 C400.57,377.09 400.44,378.00 399.97,378.00 C399.51,378.00 398.86,378.88 398.52,379.95 C398.14,381.13 397.33,381.68 396.45,381.34 C395.65,381.04 395.00,381.30 395.00,381.92 C395.00,382.55 395.65,383.31 396.44,383.61 C397.23,383.92 397.66,384.72 397.40,385.40 C397.14,386.07 397.78,387.40 398.82,388.34 C400.51,389.86 400.85,389.88 401.97,388.53 C402.67,387.70 403.02,385.90 402.76,384.55 C402.35,382.38 402.52,382.21 404.22,383.12 C405.94,384.04 406.03,383.93 405.08,382.15 C403.69,379.55 404.69,376.98 406.83,377.64 C408.27,378.08 408.25,377.99 406.75,377.03 C404.87,375.82 404.24,372.41 406.11,373.57 C406.72,373.95 407.62,373.64 408.10,372.88 C409.59,370.52 409.09,367.90 406.75,365.85 L 404.50 363.89 L 406.75 364.98 C408.40,365.78 409.58,365.76 411.20,364.89 C413.08,363.89 413.61,364.03 414.82,365.86 C416.20,367.93 418.75,369.02 417.50,367.00 C416.88,365.99 417.25,365.88 422.27,365.57 C426.05,365.35 427.08,366.17 427.91,370.12 C428.41,372.46 429.12,373.41 430.24,373.22 C431.12,373.07 432.55,373.94 433.40,375.16 C434.26,376.38 435.30,377.03 435.73,376.61 C436.15,376.18 435.70,375.25 434.72,374.54 C432.42,372.86 432.67,367.00 435.05,367.00 C435.94,367.00 436.97,367.30 437.33,367.67 C438.58,368.92 443.09,368.95 442.32,367.70 C441.07,365.69 441.28,363.00 442.67,363.00 C443.42,363.00 444.00,361.92 444.00,360.50 C444.00,358.41 444.47,358.00 446.89,358.00 C448.94,358.00 449.74,358.47 449.64,359.61 C449.56,360.50 450.46,361.59 451.64,362.04 C453.26,362.66 454.55,362.22 456.89,360.28 C458.60,358.87 460.00,357.10 460.00,356.35 C460.00,355.61 460.50,355.00 461.11,355.00 C461.72,355.00 461.95,354.33 461.64,353.50 C460.79,351.30 461.96,349.00 463.92,349.00 C464.86,349.00 466.94,350.37 468.54,352.04 C472.65,356.34 475.21,355.70 476.31,350.09 C476.87,347.25 476.80,344.86 476.11,343.34 C474.93,340.74 476.08,340.19 477.96,342.46 C478.63,343.26 478.84,344.45 478.43,345.11 C477.96,345.87 478.12,346.05 478.85,345.60 C479.53,345.17 480.00,345.52 480.00,346.44 C480.00,347.30 480.45,348.00 481.00,348.00 C481.55,348.00 482.00,347.10 482.00,346.00 C482.00,344.69 482.67,344.00 483.94,344.00 C485.01,344.00 486.14,343.58 486.46,343.06 C487.15,341.95 491.00,342.08 491.00,343.21 C491.00,343.65 491.74,344.00 492.63,344.00 C493.53,344.00 495.31,345.22 496.59,346.71 C497.87,348.20 499.15,349.18 499.43,348.90 C499.71,348.62 497.97,346.25 495.57,343.63 L 491.20 338.87 L 493.56 337.79 C495.46,336.92 495.73,336.36 494.92,334.86 C493.33,331.88 490.02,332.47 489.90,335.75 C489.81,338.26 489.74,338.30 489.15,336.27 C488.79,335.05 487.71,333.13 486.75,332.01 C484.89,329.85 484.32,326.46 486.00,327.50 C486.65,327.90 486.68,327.29 486.10,325.75 C485.56,324.35 485.57,322.73 486.11,321.76 C487.20,319.82 486.72,319.48 481.50,318.54 C479.30,318.14 476.33,317.13 474.90,316.28 C472.63,314.94 472.45,314.45 473.40,312.38 C474.01,311.08 474.84,310.01 475.25,310.01 C476.54,309.99 476.07,307.01 474.75,306.85 C474.06,306.76 473.02,306.64 472.44,306.58 C470.83,306.41 464.00,299.48 464.00,298.02 C464.00,293.80 461.51,289.27 457.67,286.50 C455.37,284.85 452.86,283.50 452.07,283.50 C451.28,283.49 450.31,282.27 449.91,280.77 C449.01,277.39 447.52,275.90 442.85,273.71 C438.62,271.73 435.86,271.54 434.29,273.11 C432.50,274.90 430.74,273.05 431.35,270.01 C432.04,266.56 428.62,263.00 424.63,263.00 C422.42,263.00 421.60,262.29 420.34,259.25 C418.56,254.98 417.49,254.06 415.07,254.69 C414.09,254.95 411.99,253.86 410.15,252.14 C408.39,250.50 405.61,248.89 403.97,248.57 C402.34,248.26 399.68,247.75 398.07,247.43 C395.81,247.00 394.98,246.17 394.47,243.87 C393.86,241.09 389.59,238.08 388.20,239.46 C387.92,239.75 387.10,239.50 386.39,238.91 C385.69,238.32 383.62,237.64 381.80,237.39 C375.26,236.50 373.91,235.91 372.99,233.47 C372.28,231.59 371.32,231.00 369.02,231.00 C366.90,231.00 366.00,230.52 366.00,229.38 C366.00,228.11 365.35,227.88 363.03,228.34 C360.71,228.81 359.71,228.46 358.43,226.72 C357.33,225.23 356.64,224.91 356.31,225.75 C355.57,227.69 353.29,227.22 352.71,225.00 C352.15,222.84 347.76,222.24 345.05,223.95 C344.16,224.51 342.87,224.47 341.69,223.83 C339.90,222.88 339.88,222.69 341.43,221.15 C342.83,219.75 345.39,219.52 358.25,219.60 C368.64,219.68 373.52,220.07 373.78,220.85 C374.01,221.53 375.15,221.75 376.57,221.39 C378.53,220.90 379.16,221.29 380.00,223.51 C381.00,226.14 381.21,226.20 386.52,225.54 C391.62,224.90 392.00,225.00 392.00,226.93 C392.00,228.61 392.63,229.00 395.33,229.00 C397.62,229.00 399.41,229.81 401.08,231.60 C404.29,235.03 408.22,237.00 411.88,237.00 C414.39,237.00 414.92,237.44 415.18,239.75 C415.48,242.35 415.81,242.52 421.19,242.80 C426.47,243.07 427.25,243.45 432.19,248.10 C435.11,250.86 439.98,254.53 443.00,256.26 C446.02,257.99 449.28,260.39 450.22,261.58 C451.97,263.77 460.32,266.54 462.02,265.49 C462.53,265.17 464.13,265.69 465.58,266.64 C468.07,268.28 468.12,268.44 466.39,269.70 C464.64,270.99 464.66,271.21 466.88,275.27 C469.13,279.38 476.52,286.00 478.85,286.00 C479.48,286.00 480.05,286.79 480.12,287.75 C480.18,288.71 480.29,290.17 480.37,291.00 C480.44,291.83 481.51,292.94 482.75,293.49 C483.99,294.03 485.00,294.99 485.00,295.62 C485.00,296.25 485.90,297.00 487.00,297.29 C488.19,297.60 489.00,298.65 489.00,299.88 C489.00,301.16 490.13,302.53 491.98,303.49 C493.62,304.34 495.96,306.38 497.17,308.02 C498.38,309.66 500.12,311.00 501.03,311.00 C503.09,311.00 510.55,318.00 511.42,320.76 C512.56,324.32 514.84,324.22 517.26,320.48 C520.24,315.87 522.09,315.98 522.06,320.75 C522.00,330.35 522.58,331.39 527.14,329.80 C528.84,329.21 530.00,328.08 530.00,327.02 C530.00,325.99 531.25,324.72 533.00,324.00 C535.14,323.11 536.00,322.08 536.00,320.38 C536.00,317.64 537.48,317.21 538.43,319.67 C538.78,320.59 538.49,321.71 537.78,322.17 C535.58,323.59 538.98,324.97 544.74,324.98 C549.73,325.00 549.97,324.88 549.77,322.48 C549.65,320.99 549.07,320.14 548.36,320.41 C546.79,321.02 545.94,318.70 547.08,316.91 C547.57,316.13 547.97,315.05 547.97,314.50 C547.97,313.95 547.55,314.16 547.04,314.97 C546.53,315.78 545.76,316.09 545.33,315.67 C544.91,315.24 545.22,314.47 546.03,313.95 C547.49,313.01 549.34,314.56 552.80,319.61 C553.95,321.29 554.04,321.30 553.56,319.71 C553.25,318.64 553.65,317.69 554.57,317.33 C555.42,317.01 555.89,316.17 555.63,315.47 C555.36,314.77 555.73,313.38 556.46,312.38 C558.18,310.04 560.50,311.76 561.35,316.02 C562.04,319.45 563.26,319.73 566.48,317.19 C568.56,315.56 568.65,315.15 567.42,312.94 C565.65,309.74 565.64,307.00 567.42,307.00 C568.20,307.00 569.02,306.44 569.25,305.75 C569.58,304.77 570.04,304.80 571.32,305.86 C573.59,307.74 576.00,306.57 576.00,303.60 C576.00,301.62 576.44,301.20 578.25,301.44 C579.49,301.60 581.31,302.08 582.30,302.49 C584.16,303.28 586.90,300.78 586.97,298.25 C586.99,297.56 587.67,297.00 588.50,297.00 C589.33,297.00 590.00,296.33 590.00,295.50 C590.00,293.50 591.67,293.59 592.82,295.64 C593.55,296.94 594.74,297.18 598.49,296.75 C601.11,296.46 603.63,295.61 604.11,294.86 C604.79,293.78 604.97,293.83 604.98,295.13 C605.01,298.29 607.49,299.20 610.88,297.27 C612.60,296.30 613.81,294.98 613.57,294.34 C613.33,293.70 614.25,292.90 615.61,292.56 C616.97,292.22 617.81,291.50 617.48,290.97 C617.15,290.44 617.57,290.00 618.41,290.00 C619.36,290.00 619.72,289.43 619.36,288.50 C618.56,286.41 620.68,286.62 621.92,288.75 C622.89,290.42 622.94,290.42 622.97,288.75 C623.01,286.33 626.23,286.54 627.81,289.06 C628.76,290.58 629.93,291.04 632.30,290.81 C637.14,290.34 636.27,287.93 630.66,286.30 C626.99,285.23 625.97,284.51 626.43,283.33 C626.85,282.22 626.58,281.95 625.45,282.38 C623.32,283.20 618.07,277.43 618.72,274.98 C619.34,272.60 622.00,273.57 622.00,276.17 C622.00,277.70 622.46,277.99 624.07,277.48 C625.62,276.98 626.27,277.33 626.67,278.84 C627.30,281.27 630.00,282.58 630.00,280.47 C630.00,278.37 632.26,278.65 634.27,281.00 C635.21,282.10 637.13,283.00 638.54,283.00 C640.49,283.00 641.35,283.72 642.15,286.00 C642.73,287.65 643.60,289.00 644.10,289.00 C645.23,289.00 645.27,286.71 644.16,285.45 C643.70,284.93 642.78,281.39 642.11,277.59 C641.16,272.18 641.15,270.52 642.11,269.93 C644.85,268.24 648.02,272.07 645.94,274.57 C644.16,276.72 645.29,280.38 648.16,281.75 C651.78,283.48 656.45,281.81 655.72,279.05 C655.15,276.85 656.85,275.89 659.90,276.69 C662.21,277.29 662.66,276.06 660.83,274.23 C659.93,273.33 660.28,272.47 662.34,270.56 C663.82,269.19 665.66,268.32 666.43,268.61 C667.21,268.91 668.89,268.49 670.17,267.67 C671.45,266.86 674.08,265.86 676.00,265.45 C677.92,265.04 678.94,264.50 678.25,264.27 C677.56,264.03 677.00,262.95 677.00,261.87 C677.00,260.79 676.44,260.02 675.75,260.14 C673.53,260.55 666.00,258.85 665.85,257.91 C665.77,257.41 665.66,256.44 665.60,255.75 C665.54,255.06 664.54,253.60 663.37,252.50 C661.52,250.76 661.43,250.32 662.69,249.14 C663.96,247.96 663.91,247.55 662.32,245.94 C658.87,242.45 657.99,241.07 657.74,238.79 C657.61,237.49 656.00,235.45 654.04,234.07 C652.13,232.73 651.12,231.46 651.79,231.24 C653.95,230.52 653.15,226.39 650.62,225.24 C648.34,224.20 643.14,218.00 644.55,218.00 C644.93,218.00 644.68,217.32 644.00,216.50 C643.32,215.68 641.91,215.00 640.88,215.00 C639.32,215.00 639.00,214.24 639.00,210.54 C639.00,206.93 638.57,205.84 636.75,204.88 C635.51,204.22 633.91,202.85 633.19,201.84 C632.47,200.83 631.29,200.00 630.57,200.00 C629.84,200.00 628.69,199.33 628.01,198.51 C627.11,197.42 625.70,197.18 622.88,197.63 C619.53,198.17 619.00,198.00 619.00,196.38 C618.99,193.48 615.27,188.05 612.60,187.04 C611.28,186.53 609.90,185.65 609.54,185.06 C609.18,184.48 607.51,184.00 605.83,184.00 C603.47,184.00 601.54,182.76 597.28,178.50 C593.09,174.31 591.04,172.97 588.64,172.88 C586.91,172.82 585.05,172.67 584.50,172.55 C578.34,171.21 576.94,170.59 577.40,169.39 C578.05,167.70 574.28,165.00 571.28,165.00 C569.94,165.00 569.00,164.39 569.00,163.54 C569.00,161.36 566.28,160.29 558.72,159.48 C554.13,158.99 551.55,158.22 550.72,157.07 C550.05,156.14 548.94,155.04 548.26,154.64 C546.23,153.42 535.72,150.74 532.51,150.61 C530.60,150.54 529.41,149.91 529.21,148.85 C528.77,146.55 533.64,145.01 537.36,146.29 C539.36,146.98 541.85,146.87 545.70,145.95 C549.95,144.93 551.61,144.90 553.08,145.82 C554.12,146.47 556.07,147.00 557.40,147.00 C560.91,147.00 563.00,148.00 563.00,149.67 C563.00,150.61 563.63,150.94 564.75,150.58 C565.71,150.28 567.85,150.92 569.50,152.01 C571.15,153.10 573.88,153.99 575.58,153.99 C577.56,154.00 579.49,154.89 581.00,156.50 C582.29,157.88 584.10,159.00 585.02,159.00 C585.94,159.00 588.04,159.67 589.69,160.50 C591.35,161.32 594.89,162.22 597.57,162.49 C601.79,162.91 603.02,163.60 606.72,167.57 C609.07,170.10 611.00,172.55 611.00,173.01 C611.00,173.47 612.69,174.38 614.75,175.03 C616.81,175.68 620.23,177.32 622.35,178.69 C624.83,180.28 627.01,180.96 628.45,180.60 C631.33,179.88 632.18,180.74 630.78,182.98 C629.18,185.55 630.40,187.63 633.93,188.34 C636.39,188.83 637.17,189.60 637.65,191.98 C638.06,194.05 638.84,195.00 640.12,195.00 C641.16,195.00 642.00,195.45 642.00,196.00 C642.00,196.55 643.10,197.00 644.45,197.00 C645.98,197.00 647.58,197.99 648.70,199.64 C649.69,201.09 651.96,203.65 653.75,205.32 C655.58,207.04 657.00,209.37 657.00,210.65 C657.00,212.78 660.12,215.55 661.25,214.42 C661.53,214.14 662.08,216.07 662.47,218.70 C663.22,223.72 664.63,226.35 666.08,225.45 C667.24,224.73 672.69,227.63 673.75,229.52 C674.22,230.35 676.60,232.12 679.05,233.44 C683.59,235.90 683.77,236.35 682.60,242.23 C682.18,244.36 682.55,245.22 684.28,246.13 C685.50,246.77 686.86,247.90 687.30,248.64 C688.00,249.83 693.31,252.59 698.13,254.27 C699.02,254.59 700.95,254.22 702.42,253.46 C704.90,252.17 705.14,252.24 705.98,254.45 C706.92,256.91 710.23,258.60 711.99,257.51 C713.30,256.70 713.30,253.30 711.99,252.50 C711.37,252.11 711.58,251.28 712.54,250.32 C713.94,248.92 714.27,248.93 715.98,250.48 C717.63,251.97 718.37,252.03 721.65,250.95 C723.72,250.27 726.34,249.66 727.46,249.59 C728.90,249.51 729.48,248.82 729.42,247.24 C729.38,246.01 729.88,245.00 730.55,245.00 C732.38,245.00 734.32,242.32 733.05,241.53 C731.97,240.87 731.55,236.00 732.57,236.00 C732.88,236.00 733.93,236.42 734.90,236.94 C736.08,237.58 737.48,237.46 739.17,236.59 C741.50,235.38 741.74,235.48 742.72,238.06 C743.45,240.01 743.45,241.15 742.70,241.90 C742.11,242.49 741.83,243.16 742.07,243.40 C742.83,244.15 747.99,242.80 747.49,241.98 C746.35,240.15 748.24,238.02 750.50,238.59 C753.52,239.35 754.14,238.08 752.92,233.67 C751.90,229.97 748.65,227.13 747.53,228.95 C746.34,230.88 744.50,228.88 744.38,225.54 C744.22,220.83 745.99,220.57 750.33,224.66 C753.61,227.76 754.42,229.63 754.27,233.75 C754.24,234.44 754.51,235.03 754.86,235.08 C755.73,235.18 758.08,235.77 760.61,236.53 C763.13,237.28 764.07,235.14 764.59,227.50 C764.98,221.77 765.07,219.89 765.92,219.43 C766.34,219.20 766.93,219.31 767.83,219.47 C767.92,219.49 768.01,219.50 768.10,219.52 C770.17,219.88 771.01,219.54 771.45,218.17 C771.78,217.13 772.88,216.40 773.99,216.48 C776.83,216.69 777.18,217.39 776.01,220.47 C775.17,222.68 774.52,223.10 772.65,222.63 C771.37,222.31 769.52,222.63 768.54,223.34 C766.99,224.48 766.94,224.92 768.12,226.82 C769.83,229.56 770.50,229.55 772.45,226.76 C773.85,224.77 774.25,224.68 776.19,225.88 C778.08,227.07 778.52,227.01 779.68,225.43 C780.40,224.43 781.00,223.06 781.00,222.38 C781.00,221.70 781.68,220.46 782.51,219.63 C784.67,217.48 789.80,219.36 790.61,222.60 C791.31,225.36 792.85,225.86 792.64,223.25 C792.43,220.65 795.45,221.13 795.82,223.75 C796.20,226.43 799.30,226.74 804.41,224.60 C804.84,224.42 805.36,224.10 805.95,223.67 C804.58,224.92 803.30,226.00 802.24,226.77 C796.56,230.92 767.60,244.00 764.10,244.00 C763.49,244.00 763.00,244.45 763.00,245.00 C763.00,245.55 762.26,246.00 761.36,246.00 C760.46,246.00 757.87,246.84 755.61,247.88 C753.35,248.91 748.01,251.16 743.75,252.88 C739.49,254.59 732.63,257.36 728.51,259.03 C724.39,260.69 717.53,263.47 713.26,265.19 C708.99,266.92 699.88,270.78 693.00,273.78 C686.12,276.79 678.92,279.66 677.00,280.18 C675.08,280.70 671.70,281.98 669.50,283.03 C659.72,287.69 644.29,294.23 642.10,294.64 C640.78,294.89 637.11,296.38 633.94,297.95 C630.78,299.52 627.13,301.13 625.84,301.52 C623.52,302.23 616.33,305.34 608.39,309.07 C606.13,310.13 604.01,311.00 603.67,311.00 C603.33,311.00 600.68,312.07 597.78,313.39 C594.88,314.70 590.39,316.73 587.80,317.89 C585.22,319.05 582.59,320.00 581.96,320.00 C581.33,320.00 579.61,320.83 578.15,321.85 C576.69,322.87 573.25,324.54 570.50,325.56 C567.75,326.58 561.19,329.53 555.92,332.11 C550.66,334.69 543.91,337.58 540.92,338.54 C537.94,339.50 532.80,341.30 529.50,342.54 C526.20,343.78 521.47,345.55 519.00,346.47 C516.53,347.39 512.03,349.28 509.00,350.68 C505.98,352.07 501.25,354.25 498.50,355.51 C495.75,356.78 490.35,359.02 486.50,360.50 C482.65,361.97 476.67,364.72 473.22,366.59 C469.76,368.47 466.10,370.00 465.09,370.00 C464.07,370.00 462.71,370.65 462.05,371.44 C461.40,372.23 459.54,373.16 457.93,373.52 C456.32,373.87 453.00,375.22 450.56,376.52 C448.12,377.82 444.18,379.56 441.81,380.40 C434.34,383.02 426.59,386.45 424.03,388.26 C422.67,389.21 420.82,390.00 419.91,390.00 C419.01,390.00 417.13,390.90 415.73,392.00 C414.33,393.10 412.55,394.00 411.77,394.00 C409.49,394.00 400.63,397.16 399.00,398.56 C398.17,399.26 395.02,400.80 392.00,401.97 C384.55,404.84 380.19,406.76 375.86,409.06 C373.86,410.13 371.73,411.00 371.12,411.00 C370.51,411.00 367.19,412.31 363.75,413.92 C354.57,418.20 350.35,419.90 342.00,422.66 C337.88,424.02 331.58,426.57 328.00,428.32 C321.75,431.38 321.02,431.50 309.00,431.49 L 296.50 431.49 L 282.75 424.59 C275.19,420.80 269.00,417.19 269.00,416.57 C269.00,415.94 267.58,414.59 265.83,413.56 C264.09,412.53 261.28,410.07 259.58,408.10 C257.89,406.12 255.26,403.23 253.75,401.67 C252.24,400.12 251.00,398.48 251.00,398.03 C251.00,397.58 249.54,395.92 247.75,394.34 C243.94,390.98 241.00,386.70 241.00,384.54 C241.00,385.38 241.68,386.32 242.50,386.64 C243.32,386.95 244.00,387.63 244.00,388.15 C244.00,388.66 244.93,390.08 246.07,391.29 C247.21,392.51 250.47,396.08 253.32,399.23 C258.00,404.41 260.00,405.97 260.00,404.46 C260.00,402.96 256.58,399.00 255.28,399.00 C254.34,399.00 254.01,398.42 254.38,397.44 C254.74,396.50 253.99,394.97 252.49,393.58 C251.12,392.31 250.00,390.78 250.00,390.17 C250.00,389.57 248.99,388.13 247.75,386.98 C246.50,385.81 245.50,383.68 245.50,382.19 C245.50,380.04 245.04,379.52 243.25,379.58 C242.01,379.62 241.00,379.62 241.00,379.57 C241.00,379.53 240.58,378.02 240.06,376.22 C239.48,374.20 239.48,373.18 240.06,373.54 C241.57,374.47 241.14,372.28 239.50,370.64 C238.68,369.82 238.00,368.49 238.00,367.69 C238.00,366.90 237.32,365.68 236.50,365.00 C235.68,364.32 235.00,362.91 235.00,361.88 C235.00,360.84 234.44,359.99 233.75,359.98 C232.88,359.97 232.94,359.69 233.94,359.06 C235.00,358.39 235.09,357.81 234.28,356.83 C233.67,356.10 232.87,353.84 232.49,351.82 C231.64,347.28 229.28,346.03 228.38,349.64 C227.58,352.80 229.75,362.44 232.17,366.50 C236.53,373.83 239.68,380.60 239.28,381.75 C239.71,380.52 235.81,372.35 231.99,366.50 C229.11,362.09 227.98,359.15 227.32,354.32 C226.99,351.94 226.39,350.00 225.98,350.00 C225.20,350.00 224.25,346.01 223.60,340.00 C223.39,338.08 222.27,333.13 221.11,329.02 C219.95,324.91 219.00,319.08 219.00,316.08 C219.00,315.36 218.97,314.51 218.91,313.61 C219.64,318.29 220.73,323.52 222.13,328.74 C223.78,334.92 224.87,340.39 224.55,340.91 C224.24,341.43 224.50,342.99 225.13,344.39 C226.57,347.56 227.73,346.94 228.55,342.57 C228.99,340.24 228.67,338.42 227.51,336.65 C226.58,335.24 226.12,333.62 226.47,333.04 C226.83,332.47 226.64,332.00 226.05,332.00 C225.36,332.00 225.20,330.58 225.61,328.04 C225.96,325.86 225.90,323.27 225.47,322.29 C225.05,321.30 224.80,319.52 224.91,318.31 C225.03,317.11 224.15,315.15 222.96,313.96 C221.78,312.78 220.69,310.79 220.56,309.55 C220.21,306.42 222.47,303.58 224.64,304.42 C225.74,304.84 225.44,304.21 223.81,302.70 C222.39,301.39 220.91,299.30 220.52,298.06 C220.10,296.75 219.43,296.17 218.92,296.68 C217.93,297.67 217.66,301.07 218.00,305.83 C217.94,305.50 217.88,305.18 217.82,304.88 C216.76,299.79 216.85,298.67 218.55,294.89 C219.32,293.19 219.92,291.19 220.13,289.78 C220.08,291.09 219.82,292.57 219.46,293.41 C218.79,295.02 219.00,295.23 220.83,294.75 C222.30,294.37 223.00,294.64 223.00,295.59 C223.00,296.37 223.73,297.00 224.62,297.00 C225.86,297.00 225.98,296.68 225.14,295.67 C223.94,294.23 225.84,290.62 227.92,290.38 C228.51,290.31 229.45,290.19 230.00,290.12 C230.55,290.06 231.00,289.15 231.00,288.12 C231.00,287.07 231.89,286.00 233.00,285.71 C234.45,285.33 234.82,284.67 234.34,283.34 C233.98,282.33 234.05,281.84 234.51,282.25 C234.97,282.67 236.15,282.27 237.15,281.37 C238.52,280.12 241.28,279.68 248.63,279.52 C256.80,279.35 258.91,279.65 262.31,281.45 C264.52,282.61 266.81,284.43 267.41,285.49 C268.85,288.02 272.19,290.93 273.73,290.97 C274.40,290.99 275.75,292.24 276.73,293.75 C277.70,295.26 279.44,297.40 280.60,298.50 C281.75,299.60 283.23,301.51 283.88,302.75 C285.39,305.61 287.83,305.64 288.87,302.83 C289.35,301.53 289.94,301.09 290.34,301.74 C291.11,302.99 290.16,306.00 288.99,306.00 C287.91,306.00 288.97,309.92 290.88,313.00 C292.82,316.12 296.29,319.51 298.34,320.30 C299.24,320.65 299.74,321.74 299.52,322.87 C299.31,324.01 299.81,325.10 300.70,325.44 C301.88,325.89 302.13,326.99 301.73,329.96 C301.12,334.52 303.07,337.00 307.27,337.00 C311.05,337.00 311.56,338.75 308.59,341.50 C305.91,343.98 305.22,346.00 307.04,346.00 C307.62,346.00 307.99,346.56 307.88,347.25 C307.40,350.07 309.28,355.69 311.07,356.81 C313.83,358.54 316.97,355.30 316.24,351.49 C315.85,349.44 316.07,348.86 317.11,349.20 C319.51,350.00 319.26,352.88 316.25,359.30 C313.94,364.20 313.42,366.49 313.76,370.21 C314.00,372.80 314.83,375.44 315.60,376.08 C316.61,376.92 317.00,376.93 317.00,376.12 C317.00,374.94 323.20,374.54 324.31,375.64 C324.66,376.00 323.64,377.79 322.03,379.62 C319.31,382.71 319.20,383.15 320.47,385.61 C321.23,387.07 322.89,388.99 324.17,389.88 C325.45,390.77 326.64,392.40 326.81,393.50 C326.98,394.60 328.04,396.29 329.17,397.25 C330.30,398.21 330.80,399.00 330.28,399.00 C328.81,399.00 326.68,403.67 327.52,405.03 ZM 949.33 736.54 C944.97,734.65 940.22,729.54 926.79,712.28 C925.97,711.23 925.20,710.24 924.47,709.31 C916.02,698.47 913.41,695.12 914.22,693.35 C914.66,692.40 916.07,691.90 918.10,690.95 C924.89,687.77 929.43,682.53 936.70,669.47 C942.58,658.90 947.15,653.53 956.53,646.17 C959.51,643.84 958.10,644.47 952.30,648.06 C950.35,649.26 949.89,649.18 948.30,647.35 C947.31,646.22 945.47,644.96 944.21,644.56 C942.75,644.10 941.71,642.79 941.34,640.93 C941.02,639.34 939.78,637.01 938.59,635.76 C935.57,632.61 932.83,628.09 933.38,627.19 C933.64,626.77 932.32,625.39 930.46,624.11 C928.59,622.83 926.76,620.82 926.39,619.64 C926.02,618.46 924.42,616.16 922.82,614.52 C921.23,612.88 919.65,610.41 919.33,609.02 C918.62,606.04 916.07,602.84 914.94,603.54 C913.57,604.38 909.70,597.90 909.78,594.89 C909.85,592.68 909.41,592.00 907.96,592.00 C906.91,592.00 904.68,591.17 903.00,590.14 C900.34,588.53 900.14,588.13 901.47,587.02 C902.31,586.33 903.00,585.16 903.00,584.43 C903.00,582.81 899.00,579.88 897.79,580.63 C896.08,581.69 894.08,578.87 894.60,576.16 C895.27,572.75 892.94,569.43 890.53,570.35 C889.38,570.79 888.95,571.71 889.29,573.01 C889.58,574.11 889.40,575.00 888.91,575.00 C888.41,575.00 888.00,574.55 888.00,574.00 C888.00,572.07 887.74,571.48 885.78,569.00 C884.07,566.84 884.02,566.46 885.39,566.18 C886.38,565.98 886.89,564.95 886.76,563.41 C886.64,561.88 886.08,561.14 885.28,561.45 C884.58,561.72 884.00,561.47 884.00,560.91 C884.00,560.34 883.51,560.19 882.91,560.56 C882.30,560.93 882.02,562.31 882.27,563.62 C883.02,567.55 881.34,566.32 878.69,561.00 C876.95,557.52 876.59,556.00 877.49,556.00 C879.42,556.00 880.04,553.44 878.58,551.44 C876.86,549.09 875.00,550.45 875.00,554.06 C875.00,555.68 874.66,557.00 874.25,556.99 C873.23,556.99 870.00,551.19 870.00,549.36 C870.00,548.55 869.55,548.16 869.00,548.50 C868.45,548.84 868.00,548.61 868.00,548.00 C868.00,547.39 867.58,547.14 867.08,547.45 C866.57,547.77 865.36,546.22 864.38,544.01 C863.41,541.81 862.10,540.00 861.46,540.00 C859.75,540.00 857.00,536.61 856.50,533.89 C856.26,532.57 854.47,530.15 852.53,528.50 C850.59,526.85 849.00,524.81 849.00,523.97 C849.00,522.45 845.67,519.00 844.21,519.00 C843.78,519.00 843.34,517.78 843.21,516.30 C843.09,514.81 841.87,512.43 840.49,510.99 C839.12,509.56 838.00,507.68 838.00,506.81 C838.00,505.94 837.33,503.94 836.51,502.36 C835.68,500.79 835.01,499.89 835.01,500.37 C835.00,500.85 834.30,500.67 833.45,499.96 C832.60,499.26 832.13,498.10 832.40,497.39 C832.68,496.68 832.02,495.82 830.94,495.48 C828.87,494.82 821.20,487.12 819.50,483.99 C818.95,482.98 816.47,479.80 814.00,476.94 C811.53,474.08 807.89,469.88 805.93,467.62 C803.97,465.35 801.55,461.25 800.54,458.50 C798.06,451.67 791.20,438.88 789.16,437.29 C787.65,436.11 787.77,435.76 790.50,433.42 L 793.50 430.84 L 789.40 432.87 C784.27,435.39 774.00,445.00 774.00,447.27 C774.00,448.23 775.69,449.82 777.92,450.96 C785.10,454.62 790.14,464.37 792.97,480.09 C795.46,493.89 795.61,505.85 793.36,511.72 C792.46,514.07 791.39,516.00 790.97,516.00 C790.55,516.00 788.10,510.71 785.53,504.25 C777.72,484.65 774.86,481.25 762.59,477.03 C755.34,474.54 754.97,474.23 748.08,465.10 C729.32,440.22 727.91,435.93 736.08,428.54 C740.25,424.78 741.62,424.06 748.72,421.96 C751.03,421.27 753.89,419.68 755.07,418.42 L 757.21 416.15 L 753.73 409.31 C753.00,407.88 751.80,405.66 750.36,403.04 C752.27,406.32 753.84,408.96 754.77,410.42 L 757.25 414.34 L 758.50 411.99 C759.76,409.64 759.47,406.87 756.15,400.30 C756.74,401.39 757.17,402.24 757.40,402.76 C758.45,405.09 759.42,407.00 759.56,407.00 C759.70,407.00 759.71,404.39 759.57,401.20 C759.38,396.48 758.75,394.60 755.39,389.34 L 755.66 389.76 L 761.03 398.03 L 763.58 396.35 C767.03,394.09 766.51,392.49 757.74,378.52 C748.70,364.13 745.88,358.56 745.25,353.82 C744.66,349.40 745.72,348.21 759.92,337.50 C765.03,333.65 778.05,323.51 788.85,314.97 C799.66,306.43 818.62,291.50 831.00,281.81 C843.38,272.11 860.25,258.85 868.50,252.34 C876.75,245.83 885.75,238.85 888.50,236.83 C898.87,229.22 902.00,224.49 902.00,216.41 C902.00,210.50 898.55,203.17 886.49,183.50 C881.10,174.70 875.10,164.80 873.16,161.50 C871.22,158.20 866.11,149.98 861.82,143.23 C857.52,136.48 854.00,130.61 854.00,130.19 C854.00,128.64 843.37,119.34 839.72,117.70 C834.43,115.32 823.55,115.42 818.71,117.89 L 815.00 119.78 L 815.00 116.95 C815.00,115.39 814.54,113.84 813.98,113.49 C813.42,113.14 813.19,112.50 813.46,112.06 C813.73,111.63 813.06,110.46 811.98,109.48 C810.89,108.49 810.00,106.94 810.00,106.03 C810.00,105.17 809.44,103.50 808.66,101.72 C808.80,101.98 808.93,102.25 809.05,102.50 C812.79,110.40 813.56,111.00 819.97,111.00 C825.80,111.00 835.02,113.98 841.28,117.88 C848.95,122.66 861.90,137.95 861.14,141.32 C861.03,141.78 861.36,141.90 861.85,141.59 C863.10,140.82 868.24,148.81 867.38,150.19 C867.00,150.81 867.13,151.04 867.66,150.71 C868.92,149.93 874.19,158.06 873.53,159.78 C873.25,160.51 873.43,160.85 873.93,160.55 C874.42,160.24 875.77,161.51 876.91,163.36 C879.25,167.15 879.56,168.46 877.85,167.40 C877.11,166.95 876.96,167.13 877.45,167.91 C877.86,168.58 878.45,168.88 878.75,168.58 C879.36,167.97 884.00,173.87 884.00,175.25 C884.00,175.73 883.48,175.80 882.85,175.40 C882.12,174.96 881.96,175.13 882.41,175.86 C882.81,176.51 883.52,176.80 883.98,176.51 C885.21,175.75 889.28,182.75 888.42,184.14 C887.99,184.83 888.12,185.04 888.75,184.66 C889.33,184.30 890.75,185.60 891.90,187.56 C894.29,191.61 894.49,192.42 892.85,191.40 C892.11,190.95 891.96,191.13 892.45,191.91 C892.86,192.58 893.46,192.87 893.77,192.56 C895.56,190.77 903.73,207.49 905.09,215.73 C906.13,222.02 906.04,223.03 904.06,227.64 C901.12,234.47 897.35,237.91 861.50,266.49 C829.29,292.17 826.07,294.74 809.50,308.02 C804.00,312.43 790.78,322.80 780.13,331.07 C778.16,332.60 776.30,334.04 774.55,335.40 C752.40,352.56 747.90,356.05 748.05,359.33 C748.10,360.42 748.68,361.49 749.29,363.04 C751.39,368.39 765.90,392.02 767.45,392.62 C768.11,392.87 773.68,390.81 779.83,388.03 C785.97,385.26 792.98,382.46 795.40,381.82 C801.67,380.14 803.96,381.93 808.01,391.70 C813.49,404.91 815.70,408.63 819.38,410.80 C824.15,413.61 825.35,415.83 828.97,428.50 C833.03,442.70 836.27,448.34 847.21,460.25 C856.26,470.09 856.92,471.60 850.60,468.05 C842.88,463.72 838.84,460.78 832.69,455.03 C824.34,447.22 821.61,441.31 821.76,431.34 C821.85,425.53 821.51,423.87 819.99,422.49 C818.49,421.14 817.55,421.00 815.31,421.82 C813.76,422.38 813.24,422.88 814.13,422.92 C815.53,422.99 815.69,423.96 815.24,429.65 C814.81,434.96 815.08,437.02 816.59,439.90 C817.63,441.88 818.76,443.73 819.10,444.00 C819.43,444.27 820.24,446.14 820.90,448.15 C822.18,452.09 829.95,460.05 836.64,464.27 C838.89,465.69 841.80,468.28 843.11,470.03 C847.33,475.65 851.05,478.92 852.56,478.34 C853.60,477.94 853.84,478.25 853.39,479.43 C853.04,480.34 853.15,481.01 853.63,480.92 C856.37,480.42 858.00,481.20 858.00,483.00 C858.00,484.20 857.30,485.04 856.25,485.09 C855.29,485.14 855.95,485.60 857.73,486.11 C861.16,487.10 863.51,490.22 862.61,492.58 C862.29,493.40 863.10,494.67 864.52,495.61 C865.88,496.49 866.69,497.69 866.34,498.26 C865.98,498.84 866.16,499.02 866.73,498.67 C867.30,498.31 868.30,498.65 868.94,499.42 C870.19,500.93 868.77,502.59 867.10,501.56 C866.61,501.26 865.95,501.68 865.64,502.51 C864.74,504.83 868.31,504.34 869.82,501.92 C870.86,500.26 871.40,500.08 872.56,501.05 C874.29,502.49 874.46,505.00 872.83,505.00 C872.18,505.00 872.52,505.84 873.58,506.87 C874.63,507.90 875.72,508.63 876.00,508.49 C876.28,508.35 877.61,508.66 878.98,509.17 C880.96,509.92 881.16,510.28 880.00,511.00 C879.07,511.57 878.28,511.46 877.79,510.70 C877.21,509.78 877.03,509.77 877.02,510.69 C877.01,511.35 877.48,512.18 878.07,512.54 C878.66,512.91 878.90,513.82 878.61,514.57 C878.32,515.33 879.04,516.61 880.20,517.43 C881.96,518.66 882.10,519.17 881.05,520.44 C879.99,521.71 880.08,522.09 881.54,522.65 C882.74,523.12 883.92,522.58 885.20,521.01 C887.07,518.69 887.06,518.66 883.84,515.34 C882.06,513.50 881.11,512.00 881.73,512.00 C883.43,512.00 889.42,518.36 888.13,518.79 C886.70,519.27 886.64,522.00 888.06,522.00 C888.64,522.00 888.87,522.40 888.57,522.89 C888.26,523.38 889.17,524.08 890.58,524.43 C892.80,524.99 893.06,525.46 892.51,527.97 C891.97,530.41 892.32,531.15 894.68,532.63 C898.84,535.24 900.71,537.37 900.20,538.91 C899.88,539.85 900.17,540.02 901.12,539.45 C902.19,538.80 902.26,538.94 901.43,540.06 C900.84,540.85 900.31,542.45 900.25,543.61 C900.16,545.39 900.74,545.74 903.82,545.82 C909.18,545.96 911.05,546.46 912.08,548.07 C912.82,549.22 913.16,549.25 913.84,548.20 C914.52,547.15 914.90,547.17 915.83,548.30 C916.78,549.44 916.43,549.71 913.90,549.78 C911.16,549.86 908.12,552.16 908.03,554.23 C907.97,555.66 912.85,556.15 915.16,554.95 C916.45,554.28 917.17,554.08 916.77,554.51 C916.37,554.94 917.00,556.13 918.17,557.15 C920.17,558.88 920.20,559.12 918.65,560.83 C916.25,563.49 916.54,565.78 919.25,565.49 C920.49,565.36 922.11,565.20 922.86,565.13 C923.79,565.04 924.02,564.22 923.59,562.50 C923.23,561.06 923.39,560.00 923.98,560.00 C924.54,560.00 925.00,561.29 925.00,562.86 C925.00,568.98 926.29,575.00 927.60,575.00 C928.33,575.00 929.42,575.92 930.03,577.05 C930.63,578.18 931.89,579.01 932.81,578.90 C935.30,578.59 938.00,580.01 938.00,581.63 C938.00,582.63 937.28,582.86 935.50,582.41 C933.48,581.90 933.00,582.15 933.00,583.72 C933.00,586.29 934.03,587.22 935.52,585.98 C936.35,585.30 937.65,585.46 939.62,586.48 C941.96,587.71 942.13,587.99 940.50,588.03 C938.54,588.06 938.54,588.09 940.42,589.52 C942.21,590.87 942.23,591.09 940.68,592.80 C939.27,594.36 939.22,594.91 940.36,596.47 C941.48,598.01 942.17,598.13 944.74,597.24 C948.06,596.08 950.00,597.10 950.00,600.00 C950.00,602.13 951.93,603.96 953.52,603.35 C954.22,603.08 955.14,603.41 955.55,604.09 C956.04,604.87 955.89,605.05 955.15,604.60 C954.45,604.16 954.00,604.56 954.00,605.62 C954.00,607.14 953.73,607.09 951.72,605.21 L 949.44 603.07 L 948.10 605.21 C946.94,607.07 947.00,607.53 948.57,608.68 C950.81,610.31 952.36,610.40 951.39,608.83 C950.89,608.01 951.24,607.89 952.59,608.44 C953.64,608.87 955.40,609.48 956.50,609.79 C958.54,610.37 959.35,611.06 961.99,614.40 C963.38,616.15 963.32,616.24 961.24,615.58 C958.60,614.74 958.41,615.27 960.57,617.43 C961.48,618.34 961.67,619.00 961.01,619.00 C960.39,619.00 960.16,619.45 960.50,620.00 C960.84,620.55 961.88,621.00 962.82,621.00 C963.75,621.00 965.80,622.18 967.36,623.63 C969.57,625.68 969.90,626.45 968.85,627.13 C967.74,627.85 967.76,628.17 969.00,628.99 C969.83,629.53 971.09,629.76 971.80,629.50 C972.52,629.24 972.83,629.47 972.49,630.01 C972.16,630.56 972.31,631.00 972.84,631.00 C973.37,631.00 974.28,632.37 974.87,634.05 C975.81,636.75 975.69,637.18 973.78,637.89 C972.40,638.40 974.29,638.67 979.07,638.64 C989.60,638.59 990.90,639.16 996.00,646.13 C998.47,649.51 1002.75,655.34 1005.50,659.09 C1021.23,680.51 1024.94,686.86 1024.98,692.41 C1025.01,696.21 1020.01,703.90 1014.01,709.30 C1007.04,715.57 990.26,726.55 981.39,730.65 C965.70,737.90 956.38,739.61 949.33,736.54 ZM 817.95 209.76 C817.98,209.63 818.00,209.51 818.00,209.41 C818.00,208.59 818.90,206.16 820.00,204.00 L 822.00 200.08 L 818.00 198.88 C813.76,197.61 813.51,197.06 813.94,189.83 C814.08,187.37 813.55,185.55 812.32,184.32 C811.30,183.30 810.37,181.22 810.24,179.68 C809.99,176.58 807.12,172.08 805.36,172.03 C804.66,172.01 804.07,169.30 803.83,164.97 L 803.43 157.94 L 796.77 151.51 C793.11,147.97 788.54,144.42 786.63,143.62 C783.83,142.45 783.25,141.75 783.70,140.05 C784.27,137.87 781.65,134.01 779.60,133.99 C778.40,133.99 774.90,128.69 773.99,125.52 C773.64,124.31 771.99,123.14 769.75,122.51 C767.73,121.95 765.52,120.92 764.84,120.24 C764.16,119.56 761.92,119.00 759.87,119.00 C756.54,119.00 756.10,118.70 755.82,116.25 C755.59,114.31 754.61,113.11 752.50,112.17 C750.85,111.44 748.19,109.10 746.60,106.97 C744.50,104.18 742.84,103.02 740.60,102.80 C738.04,102.55 737.42,101.99 737.00,99.51 C736.55,96.88 735.91,96.39 731.84,95.51 C729.28,94.95 726.25,93.64 725.10,92.60 C723.14,90.82 722.88,90.80 721.17,92.35 C718.68,94.60 717.32,94.42 716.65,91.75 C716.14,89.73 714.17,88.46 708.75,86.65 C707.79,86.33 707.00,85.59 707.00,85.01 C707.00,81.62 726.25,81.74 728.07,85.13 C728.67,86.25 730.16,87.00 731.79,87.00 C733.40,87.00 735.01,87.79 735.73,88.93 C736.51,90.18 738.62,91.12 741.72,91.58 C746.70,92.33 752.15,95.23 755.40,98.87 C756.45,100.04 757.83,101.00 758.47,101.00 C760.25,101.00 767.93,107.21 768.55,109.15 C768.85,110.09 770.53,111.15 772.30,111.51 C777.99,112.65 779.00,113.11 779.00,114.55 C779.00,115.34 780.78,117.10 782.96,118.47 C785.13,119.85 787.41,121.90 788.02,123.03 C788.62,124.17 790.11,125.52 791.31,126.05 C794.62,127.48 797.41,129.36 798.30,130.75 C798.74,131.44 799.98,132.00 801.05,132.00 C802.22,132.00 803.00,132.68 803.00,133.70 C803.00,135.76 807.84,141.00 809.76,141.00 C810.63,141.00 811.03,141.86 810.84,143.32 C810.52,145.79 812.33,149.10 816.46,153.56 C817.86,155.06 819.00,157.29 819.00,158.51 C819.00,159.73 820.01,162.02 821.25,163.60 C822.62,165.34 823.57,168.04 823.67,170.48 C823.90,176.03 825.05,181.00 826.11,181.00 C826.86,181.00 827.37,179.10 827.20,176.98 C827.17,176.70 826.88,170.70 826.55,163.65 C826.88,170.55 827.31,177.03 827.52,178.12 C827.96,180.41 826.26,190.74 825.06,193.03 C824.61,193.88 823.91,196.11 823.50,198.01 C823.08,199.90 821.74,203.03 820.52,204.97 C819.54,206.52 818.51,208.45 817.95,209.76 ZM 803.33 219.40 C803.63,220.19 803.20,221.09 802.38,221.41 C801.57,221.72 801.13,221.60 801.41,221.14 C801.70,220.68 800.55,220.26 798.86,220.22 C796.64,220.15 794.88,219.10 792.48,216.41 C788.98,212.48 788.71,209.24 792.03,211.02 C793.04,211.56 795.44,212.00 797.35,212.00 C799.27,212.00 801.03,212.56 801.28,213.25 C801.53,213.94 802.12,214.13 802.61,213.67 C803.11,213.20 802.74,212.28 801.76,211.56 C799.80,210.13 796.71,202.27 797.57,200.89 C798.56,199.29 800.68,199.95 803.46,202.73 C805.95,205.22 806.14,205.91 805.53,210.46 C805.17,213.20 804.40,216.02 803.82,216.71 C803.25,217.41 803.02,218.62 803.33,219.40 ZM 922.23 669.55 C921.00,668.14 920.00,666.54 920.00,665.99 C920.00,665.45 919.55,665.00 919.00,665.00 C918.45,665.00 918.10,664.66 918.22,664.25 C918.72,662.52 915.91,657.05 911.14,650.50 C904.12,640.85 903.11,639.58 898.18,634.21 C895.81,631.62 893.12,628.26 892.22,626.75 C891.31,625.24 890.22,624.00 889.78,624.00 C889.35,624.00 889.00,623.30 889.00,622.44 C889.00,621.52 888.53,621.17 887.85,621.60 C887.12,622.04 886.96,621.87 887.42,621.12 C887.83,620.47 886.52,616.69 884.53,612.72 C880.65,605.00 881.89,606.00 888.81,616.17 C891.17,619.65 898.04,629.47 904.06,638.00 C910.08,646.53 915.91,655.08 917.02,657.00 C918.14,658.92 920.42,662.64 922.11,665.25 C925.55,670.60 925.64,673.47 922.23,669.55 ZM 841.33 139.13 C840.71,138.30 839.74,137.20 838.64,136.13 C836.10,133.67 833.78,132.59 829.14,131.71 C822.55,130.46 821.33,129.39 825.75,128.72 C828.22,128.34 828.16,128.28 825.14,128.15 C824.06,128.10 823.33,128.08 822.85,128.18 C823.29,127.55 824.44,127.60 827.31,127.75 C830.69,127.92 831.91,127.66 831.41,126.86 C830.52,125.41 837.28,126.58 841.05,128.53 C844.92,130.53 846.76,133.27 869.46,171.00 C870.22,172.26 870.96,173.49 871.67,174.69 C862.14,158.94 851.43,141.75 848.75,138.22 C846.40,135.13 842.91,131.74 840.99,130.69 L 837.50 128.78 L 841.04 132.14 C843.96,134.91 850.09,144.11 859.74,160.17 C853.04,149.09 847.52,140.86 844.24,137.10 C840.81,133.16 840.42,132.95 840.53,135.10 C840.59,136.28 840.94,137.99 841.33,139.13 ZM 882.15 225.50 C880.72,227.15 881.53,226.61 883.95,224.31 C888.22,220.24 888.35,219.93 888.42,213.81 C888.42,213.40 888.43,213.02 888.43,212.67 C888.45,211.64 888.47,210.81 888.39,209.99 C888.21,208.09 887.50,206.23 885.13,202.05 C889.50,209.42 891.20,209.86 888.47,203.87 C892.34,211.29 893.23,214.41 891.98,214.83 C891.44,215.02 891.00,216.23 891.00,217.54 C891.00,222.62 888.97,225.23 872.47,238.02 C879.71,232.20 889.00,223.20 889.00,221.87 C889.00,221.17 887.31,222.19 885.25,224.13 C883.19,226.07 880.33,228.53 878.90,229.58 C868.15,237.49 823.66,271.87 784.00,302.91 C773.28,311.30 758.50,322.72 751.16,328.28 C750.69,328.63 750.24,328.98 749.79,329.32 C750.22,328.99 750.65,328.66 751.08,328.33 C758.46,322.74 773.28,311.30 784.00,302.91 C806.21,285.52 819.82,274.95 858.50,245.00 C863.45,241.17 869.30,236.40 871.50,234.40 L 875.50 230.76 L 870.00 234.57 C866.97,236.66 861.58,240.64 858.00,243.41 C854.42,246.17 847.67,251.27 843.00,254.73 C838.04,258.41 831.99,262.99 825.82,267.72 C831.94,263.02 837.99,258.44 843.00,254.71 C847.67,251.24 855.10,245.58 859.50,242.14 C863.90,238.70 870.74,233.41 874.71,230.38 C883.39,223.76 886.56,220.70 886.30,217.10 C886.76,219.63 885.60,221.53 882.15,225.50 ZM 431.00 365.02 C431.00,367.40 426.11,365.11 424.49,361.97 C422.78,358.66 422.61,357.64 423.92,358.45 C424.43,358.77 425.06,358.23 425.31,357.26 C425.74,355.62 425.78,355.62 425.88,357.31 C425.95,358.30 426.39,358.88 426.87,358.58 C427.34,358.29 428.52,358.92 429.49,359.99 C430.86,361.50 431.68,361.71 433.15,360.92 C434.20,360.36 434.79,359.47 434.47,358.95 C434.15,358.43 434.36,358.00 434.94,358.00 C435.52,358.00 436.00,358.81 436.00,359.80 C436.00,360.79 436.54,362.14 437.20,362.80 C439.27,364.87 436.62,366.60 433.53,365.19 C432.00,364.50 431.00,364.43 431.00,365.02 ZM 412.87 386.81 C413.56,388.08 414.67,388.94 415.32,388.73 C417.14,388.12 417.27,385.41 415.55,383.69 C413.77,381.91 413.51,379.33 415.06,378.81 C416.55,378.32 415.08,375.00 413.36,375.00 C411.36,375.00 410.54,377.74 412.01,379.51 C412.86,380.54 412.90,381.00 412.13,381.00 C410.79,381.00 411.12,383.64 412.87,386.81 ZM 305.36 321.50 C304.68,323.27 303.80,323.40 302.34,321.94 C301.32,320.92 302.07,313.60 303.33,312.34 C303.64,312.02 304.57,312.43 305.38,313.24 C306.65,314.51 306.67,315.09 305.49,317.36 C304.74,318.81 304.53,320.00 305.03,320.00 C305.53,320.00 305.68,320.67 305.36,321.50 ZM 350.00 384.12 C350.00,384.61 349.62,385.00 349.16,385.00 C347.60,385.00 345.64,379.52 345.33,374.29 C345.08,370.00 345.29,369.17 346.51,369.64 C347.35,369.96 348.00,369.66 348.00,368.94 C348.00,368.24 348.24,367.90 348.53,368.19 C348.82,368.49 348.64,369.82 348.13,371.16 C347.55,372.68 347.56,374.25 348.15,375.30 C348.78,376.42 348.74,377.00 348.05,377.00 C346.47,377.00 346.79,380.58 348.50,382.00 C349.33,382.68 350.00,383.64 350.00,384.12 ZM 936.51 618.99 C937.54,617.31 935.94,613.86 934.27,614.19 C931.71,614.70 930.22,617.88 932.00,619.01 C933.96,620.26 935.73,620.25 936.51,618.99 ZM 947.27 629.75 C947.97,627.74 946.93,626.00 945.02,626.00 C942.85,626.00 940.59,628.53 941.47,629.96 C942.38,631.42 946.74,631.26 947.27,629.75 ZM 383.85 393.20 C383.97,394.13 384.27,394.13 385.20,393.20 C385.86,392.54 387.43,392.00 388.70,392.00 C389.96,392.00 391.00,391.49 391.00,390.88 C391.00,390.11 391.48,390.15 392.52,391.02 C393.78,392.06 393.95,392.02 393.48,390.80 C392.75,388.90 383.45,388.85 383.60,390.75 C383.65,391.44 383.77,392.54 383.85,393.20 ZM 701.88 85.10 C701.12,85.58 699.83,85.97 699.00,85.97 C696.69,85.97 694.67,84.35 695.43,83.11 C695.81,82.50 697.41,82.00 699.00,82.00 C702.28,82.00 703.94,83.79 701.88,85.10 ZM 922.00 596.44 C922.00,595.58 921.55,595.16 921.00,595.50 C920.45,595.84 920.00,595.42 920.00,594.56 C920.00,593.67 919.14,593.00 918.00,593.00 C916.05,593.00 915.17,595.84 916.67,597.33 C918.01,598.68 922.00,598.01 922.00,596.44 ZM 270.00 416.12 C270.00,417.15 270.45,418.00 271.00,418.00 C272.14,418.00 272.25,416.53 271.35,413.19 C270.98,411.78 270.21,411.09 269.37,411.41 C268.62,411.70 268.00,411.50 268.00,410.97 C268.00,410.44 267.55,410.00 267.00,410.00 C265.13,410.00 265.99,413.18 268.00,413.71 C269.11,414.00 270.00,415.07 270.00,416.12 ZM 726.00 245.06 C726.00,246.02 723.87,246.13 720.75,245.31 C718.66,244.77 718.43,242.43 720.39,241.68 C721.91,241.10 726.00,243.56 726.00,245.06 ZM 359.75 407.64 C363.00,408.85 364.12,408.49 363.35,406.47 C363.04,405.67 362.39,405.26 361.90,405.56 C361.40,405.87 361.00,405.42 361.00,404.56 C361.00,402.81 360.83,402.75 358.58,403.61 C356.14,404.54 356.71,406.50 359.75,407.64 ZM 961.00 652.52 C961.00,654.74 963.37,654.30 965.90,651.61 C967.41,650.00 967.78,648.98 967.03,648.52 C965.56,647.61 961.00,650.63 961.00,652.52 ZM 871.91 543.75 C872.58,541.96 872.33,541.34 870.70,540.72 C868.32,539.81 867.01,541.31 867.74,544.11 C868.42,546.70 870.88,546.49 871.91,543.75 ZM 953.42 640.39 C954.29,640.06 955.00,639.13 955.00,638.33 C955.00,637.54 954.55,637.16 954.00,637.50 C953.45,637.84 953.00,637.64 953.00,637.06 C953.00,635.78 951.98,635.73 950.10,636.91 C949.34,637.40 948.98,638.52 949.32,639.40 C949.98,641.12 950.93,641.35 953.42,640.39 ZM 735.48 364.59 C732.41,358.76 730.83,354.81 730.38,351.98 C729.89,348.91 730.35,347.74 733.74,343.46 C733.95,343.18 734.23,342.87 734.56,342.51 C732.39,345.39 732.00,347.82 732.01,351.48 C732.02,355.80 732.53,358.72 735.48,364.59 ZM 934.00 597.15 C934.00,596.14 933.11,594.50 932.02,593.52 C930.10,591.78 930.01,591.80 929.14,594.11 C928.55,595.70 928.63,596.74 929.38,597.21 C930.00,597.61 930.76,597.20 931.08,596.28 C931.49,595.11 931.87,594.98 932.39,595.82 C932.79,596.47 932.84,597.45 932.50,598.00 C932.16,598.55 932.36,599.00 932.94,599.00 C933.52,599.00 934.00,598.17 934.00,597.15 ZM 914.00 585.42 C916.31,584.03 916.33,583.96 914.25,584.53 C911.93,585.15 911.02,583.51 913.25,582.73 C913.94,582.49 913.26,582.28 911.75,582.27 C909.82,582.26 909.00,582.76 909.00,583.96 C909.00,587.25 910.33,587.64 914.00,585.42 ZM 711.01 241.03 C711.48,242.66 711.78,243.99 711.68,243.97 C711.58,243.96 710.25,242.67 708.73,241.11 C706.37,238.71 706.17,238.10 707.39,237.09 C709.03,235.73 709.69,236.44 711.01,241.03 ZM 457.30 326.37 C456.10,327.56 455.00,327.00 455.00,325.19 C455.00,324.19 454.05,322.36 452.90,321.12 C450.31,318.34 450.75,317.56 453.60,319.88 C456.14,321.94 458.17,325.50 457.30,326.37 ZM 928.82 608.13 C929.77,607.53 929.28,606.95 927.04,606.01 C923.64,604.61 922.43,605.08 923.35,607.46 C923.99,609.13 926.71,609.47 928.82,608.13 ZM 906.56 574.90 C907.63,573.17 904.28,570.32 902.85,571.75 C901.96,572.64 901.99,573.28 902.96,574.46 C904.47,576.28 905.62,576.42 906.56,574.90 ZM 592.31 305.13 C593.48,307.00 593.52,307.00 594.38,305.07 C594.86,303.99 594.94,302.30 594.56,301.31 C593.89,299.58 593.80,299.58 592.49,301.36 C591.41,302.82 591.37,303.62 592.31,305.13 ZM 940.66 607.50 C940.84,606.95 939.86,605.98 938.49,605.34 C936.35,604.35 936.00,604.43 936.00,605.93 C936.00,606.88 936.32,607.98 936.70,608.37 C937.65,609.31 940.26,608.74 940.66,607.50 ZM 573.57 287.48 C576.59,290.50 576.44,291.94 573.25,290.52 C571.85,289.90 571.00,288.65 571.00,287.22 L 571.00 284.91 ZM 857.68 521.40 C858.31,519.75 856.22,517.74 854.80,518.62 C854.36,518.90 854.00,519.99 854.00,521.06 C854.00,523.40 856.81,523.66 857.68,521.40 ZM 889.98 552.75 C889.97,550.93 889.78,550.79 889.00,552.00 C888.17,553.28 888.03,553.25 888.02,551.75 C888.01,550.79 887.55,550.00 887.00,550.00 C885.88,550.00 885.63,553.30 886.67,554.33 C888.11,555.78 890.00,554.88 889.98,552.75 ZM 363.25 403.26 C363.94,403.50 364.78,402.98 365.13,402.10 C365.84,400.28 364.23,397.74 362.89,398.57 C361.56,399.39 361.82,402.77 363.25,403.26 ZM 563.48 300.25 C564.56,303.39 564.54,304.00 563.38,304.00 C562.52,304.00 562.00,302.89 562.00,301.05 C562.00,299.32 561.28,297.65 560.25,297.01 C558.61,296.00 558.62,295.94 560.35,296.21 C561.46,296.39 562.70,297.98 563.48,300.25 ZM 371.94 372.75 C372.05,375.12 370.19,373.99 368.08,370.41 L 365.96 366.81 L 368.92 369.16 C370.55,370.45 371.91,372.06 371.94,372.75 ZM 865.26 533.40 C866.24,532.43 864.90,530.00 863.39,530.00 C862.63,530.00 862.00,530.90 862.00,532.00 C862.00,533.88 863.95,534.72 865.26,533.40 ZM 877.50 531.57 C877.50,530.52 876.94,529.48 876.25,529.25 C875.56,529.02 875.00,529.35 875.00,529.98 C875.00,530.60 875.45,530.84 876.00,530.50 C876.55,530.16 877.00,530.36 877.00,530.94 C877.00,531.52 876.33,532.00 875.50,532.00 C874.67,532.00 874.00,531.47 874.00,530.83 C874.00,530.19 873.72,529.95 873.38,530.29 C873.03,530.63 873.03,531.64 873.37,532.53 C874.21,534.72 877.50,533.95 877.50,531.57 ZM 919.43 574.11 C919.73,573.63 919.31,572.67 918.49,571.99 C917.37,571.07 917.00,571.05 917.00,571.94 C917.00,572.59 916.55,572.84 916.00,572.50 C914.89,571.81 914.62,573.29 915.67,574.33 C916.62,575.28 918.78,575.16 919.43,574.11 ZM 894.00 543.61 C894.00,542.84 893.33,541.95 892.50,541.64 C891.67,541.32 891.00,541.24 891.00,541.45 C891.00,541.66 890.73,542.55 890.39,543.42 C889.96,544.55 890.38,545.00 891.89,545.00 C893.05,545.00 894.00,544.37 894.00,543.61 ZM 347.61 395.00 C347.67,396.65 347.33,398.00 346.86,398.00 C346.39,398.00 345.94,397.66 345.87,397.25 C345.27,393.74 345.45,392.00 346.39,392.00 C347.00,392.00 347.55,393.35 347.61,395.00 ZM 602.91 284.25 C604.04,285.73 604.02,286.00 602.74,286.00 C600.61,286.00 598.57,283.38 600.02,282.49 C600.63,282.11 601.23,281.96 601.35,282.15 C601.47,282.34 602.17,283.29 602.91,284.25 ZM 950.77 618.16 C951.75,617.54 951.61,616.96 950.15,615.63 C948.33,613.99 948.25,614.02 948.25,616.46 C948.25,619.15 948.72,619.47 950.77,618.16 ZM 843.75 502.61 C841.80,500.65 840.76,501.69 842.13,504.24 C842.86,505.61 843.50,505.90 844.23,505.17 C844.95,504.45 844.81,503.66 843.75,502.61 ZM 900.44 555.10 C900.74,554.61 900.28,553.94 899.41,553.60 C896.66,552.55 895.68,552.91 897.00,554.50 C898.41,556.20 899.63,556.42 900.44,555.10 ZM 653.35 273.47 C653.66,274.28 653.53,275.17 653.07,275.46 C652.00,276.12 649.79,273.54 650.68,272.66 C651.74,271.59 652.75,271.90 653.35,273.47 ZM 856.84 503.12 C857.82,502.50 857.48,502.13 855.59,501.77 C853.83,501.44 853.00,501.71 853.00,502.64 C853.00,504.17 854.82,504.40 856.84,503.12 ZM 414.00 356.97 C414.00,358.24 412.96,358.26 411.03,357.04 C410.22,356.53 409.86,355.80 410.24,355.43 C411.15,354.52 414.00,355.68 414.00,356.97 ZM 476.00 276.50 C477.04,277.75 476.90,278.00 475.12,278.00 C473.90,278.00 473.00,277.36 473.00,276.50 C473.00,275.67 473.39,275.00 473.88,275.00 C474.36,275.00 475.32,275.67 476.00,276.50 ZM 887.92 531.25 C887.87,530.14 887.65,529.97 887.32,530.79 C886.93,531.78 886.48,531.81 885.40,530.92 C884.30,530.00 884.00,530.10 884.00,531.38 C884.00,532.33 884.82,533.00 886.00,533.00 C887.27,533.00 887.97,532.36 887.92,531.25 ZM 851.86 513.11 C852.80,512.51 852.88,512.04 852.11,511.57 C850.84,510.78 849.00,511.67 849.00,513.06 C849.00,514.22 850.07,514.24 851.86,513.11 ZM 877.01 520.51 C875.76,519.01 874.00,519.33 874.00,521.06 C874.00,521.58 874.96,522.00 876.12,522.00 C877.89,522.00 878.04,521.75 877.01,520.51 ZM 896.00 563.00 C895.41,561.90 894.72,561.00 894.46,561.00 C894.21,561.00 894.00,561.90 894.00,563.00 C894.00,564.13 894.67,565.00 895.54,565.00 C896.76,565.00 896.85,564.60 896.00,563.00 ZM 436.00 347.50 C436.00,349.57 435.40,350.78 434.87,349.75 C434.26,348.55 434.46,345.00 435.14,345.00 C435.61,345.00 436.00,346.12 436.00,347.50 ZM 829.37 271.49 C825.02,274.88 817.66,280.66 810.61,286.20 C801.33,293.52 790.87,301.75 787.37,304.50 C786.32,305.33 784.85,306.48 783.12,307.81 C810.12,286.37 822.40,276.71 827.00,273.27 C827.63,272.81 828.43,272.20 829.37,271.49 ZM 692.17 82.77 C693.48,84.08 691.80,85.11 690.10,84.06 C689.10,83.44 689.07,83.07 689.98,82.51 C690.64,82.11 691.62,82.22 692.17,82.77 ZM 346.19 416.94 C345.94,417.69 346.31,418.06 347.06,417.81 C347.78,417.57 348.57,416.78 348.81,416.06 C349.06,415.31 348.69,414.94 347.94,415.19 C347.22,415.43 346.43,416.22 346.19,416.94 ZM 858.00 493.50 C858.00,492.67 857.55,492.00 857.00,492.00 C856.45,492.00 856.00,492.67 856.00,493.50 C856.00,494.33 856.45,495.00 857.00,495.00 C857.55,495.00 858.00,494.33 858.00,493.50 ZM 902.25 534.34 C900.82,533.76 900.55,532.00 901.89,532.00 C902.38,532.00 903.05,532.67 903.36,533.50 C903.68,534.33 903.84,534.96 903.72,534.92 C903.60,534.88 902.94,534.62 902.25,534.34 ZM 493.47 349.95 C493.84,350.55 494.60,350.75 495.16,350.40 C495.84,349.98 495.82,349.42 495.10,348.70 C493.82,347.42 492.52,348.41 493.47,349.95 ZM 909.00 543.00 C908.21,542.51 907.89,541.78 908.30,541.37 C908.70,540.97 909.56,541.16 910.20,541.80 C911.71,543.31 910.87,544.15 909.00,543.00 ZM 882.07 208.25 C879.94,204.70 876.55,199.03 873.06,193.23 C851.24,156.88 843.52,143.82 842.21,140.95 C845.95,147.80 862.37,175.57 874.22,195.00 C877.09,199.71 879.97,204.58 882.07,208.25 ZM 613.50 287.00 C613.84,287.55 613.42,288.00 612.56,288.00 C611.70,288.00 611.00,287.55 611.00,287.00 C611.00,286.45 611.42,286.00 611.94,286.00 C612.46,286.00 613.16,286.45 613.50,287.00 ZM 903.00 541.00 C903.00,540.45 903.42,540.00 903.94,540.00 C904.46,540.00 905.16,540.45 905.50,541.00 C905.84,541.55 905.42,542.00 904.56,542.00 C903.70,542.00 903.00,541.55 903.00,541.00 ZM 939.58 585.13 C939.15,584.44 939.07,583.60 939.40,583.27 C940.29,582.37 941.27,583.69 940.79,585.14 C940.45,586.15 940.21,586.15 939.58,585.13 ZM 975.00 632.00 C975.00,631.45 975.45,631.00 976.00,631.00 C976.55,631.00 977.00,631.45 977.00,632.00 C977.00,632.55 976.55,633.00 976.00,633.00 C975.45,633.00 975.00,632.55 975.00,632.00 ZM 379.00 381.00 C379.00,381.55 378.55,382.00 378.00,382.00 C377.45,382.00 377.00,381.55 377.00,381.00 C377.00,380.45 377.45,380.00 378.00,380.00 C378.55,380.00 379.00,380.45 379.00,381.00 ZM 417.00 382.00 C417.00,382.55 417.45,383.00 418.00,383.00 C418.55,383.00 419.00,382.55 419.00,382.00 C419.00,381.45 418.55,381.00 418.00,381.00 C417.45,381.00 417.00,381.45 417.00,382.00 ZM 872.00 512.00 C872.00,511.45 871.55,511.00 871.00,511.00 C870.45,511.00 870.00,511.45 870.00,512.00 C870.00,512.55 870.45,513.00 871.00,513.00 C871.55,513.00 872.00,512.55 872.00,512.00 ZM 729.75 344.85 C730.59,343.32 731.61,341.91 732.80,340.64 C733.78,339.61 735.34,338.17 737.41,336.37 C733.41,339.94 731.17,342.48 729.75,344.85 ZM 753.60 330.60 C744.28,337.99 738.15,343.20 736.69,345.04 C738.31,342.96 744.15,337.98 753.60,330.60 ZM 738.19 381.69 C735.01,376.13 732.70,371.93 731.03,368.61 C732.50,371.44 735.16,376.27 738.19,381.69 ZM 223.54 277.19 C221.58,281.05 220.31,284.76 220.13,287.62 C220.14,285.01 221.45,281.22 223.54,277.19 ZM 728.93 364.11 C727.55,360.81 727.07,358.60 727.01,356.41 C727.20,358.83 727.83,361.36 728.93,364.11 ZM 753.88 387.02 C746.28,375.28 741.29,367.12 738.35,361.16 C741.29,367.08 746.26,375.23 753.88,387.02 ZM 797.74 85.82 C795.80,83.20 793.81,80.96 792.78,80.29 C793.92,81.02 796.01,83.35 797.74,85.82 ZM 804.53 95.00 C803.78,94.23 802.19,92.16 800.48,89.75 C801.85,91.63 803.21,93.42 804.09,94.45 C804.23,94.62 804.37,94.80 804.53,95.00 ZM 865.00 168.94 C867.31,172.74 870.30,177.64 872.98,182.00 C874.24,184.05 875.60,186.28 876.96,188.51 C875.76,186.55 874.43,184.39 872.97,182.00 C870.29,177.64 867.30,172.74 865.00,168.94 ZM 816.36 212.65 C816.91,211.86 817.35,211.15 817.64,210.57 L 817.62 210.62 C817.48,211.05 817.03,211.76 816.36,212.65 ZM 823.41 137.79 C823.60,139.11 823.79,140.48 823.96,141.77 C823.99,142.07 824.03,142.36 824.07,142.65 C823.84,141.09 823.61,139.41 823.41,137.79 ZM 868.20 241.31 C867.49,241.86 866.75,242.42 866.00,243.00 C865.54,243.35 865.04,243.74 864.49,244.16 C865.78,243.16 867.02,242.22 868.20,241.31 ZM 735.84 346.39 C736.04,346.00 736.27,345.63 736.53,345.26 C736.27,345.63 736.04,346.00 735.84,346.39 Z" fill="rgb(182,154,67)"/>
<path d="M 961.00 652.52 C961.00,650.63 965.56,647.61 967.03,648.52 C967.78,648.98 967.41,650.00 965.90,651.61 C963.37,654.30 961.00,654.74 961.00,652.52 ZM 270.00 416.12 C270.00,415.07 269.11,414.00 268.00,413.71 C265.99,413.18 265.13,410.00 267.00,410.00 C267.55,410.00 268.00,410.44 268.00,410.97 C268.00,411.50 268.62,411.70 269.37,411.41 C270.21,411.09 270.98,411.78 271.35,413.19 C272.25,416.53 272.14,418.00 271.00,418.00 C270.45,418.00 270.00,417.15 270.00,416.12 ZM 346.19 416.94 C346.43,416.22 347.22,415.43 347.94,415.19 C348.69,414.94 349.06,415.31 348.81,416.06 C348.57,416.78 347.78,417.57 347.06,417.81 C346.31,418.06 345.94,417.69 346.19,416.94 ZM 754.77 410.42 C750.78,404.13 734.92,376.16 730.79,368.15 C726.52,359.86 725.86,353.66 728.55,347.22 C731.02,341.31 736.58,336.21 760.00,318.38 C765.78,313.98 777.25,305.25 785.50,298.96 C793.75,292.68 803.92,284.83 808.10,281.52 C818.95,272.94 833.13,262.05 843.00,254.73 C847.67,251.27 854.42,246.17 858.00,243.41 C861.58,240.64 866.97,236.66 870.00,234.57 L 875.50 230.76 L 871.50 234.40 C869.30,236.40 863.45,241.17 858.50,245.00 C819.82,274.95 806.21,285.52 784.00,302.91 C773.28,311.30 758.46,322.74 751.08,328.33 C743.70,333.93 735.89,340.73 733.74,343.46 C730.35,347.74 729.89,348.91 730.38,351.98 C731.17,356.92 735.38,365.28 745.00,381.05 C758.39,402.99 760.60,408.07 758.50,411.99 L 757.25 414.34 L 754.77 410.42 ZM 359.75 407.64 C356.71,406.50 356.14,404.54 358.58,403.61 C360.83,402.75 361.00,402.81 361.00,404.56 C361.00,405.42 361.40,405.87 361.90,405.56 C362.39,405.26 363.04,405.67 363.35,406.47 C364.12,408.49 363.00,408.85 359.75,407.64 ZM 327.52 405.03 C326.68,403.67 328.81,399.00 330.28,399.00 C330.80,399.00 330.30,398.21 329.17,397.25 C328.04,396.29 326.98,394.60 326.81,393.50 C326.64,392.40 325.45,390.77 324.17,389.88 C322.89,388.99 321.23,387.07 320.47,385.61 C319.20,383.15 319.31,382.71 322.03,379.62 C323.64,377.79 324.66,376.00 324.31,375.64 C323.20,374.54 317.00,374.94 317.00,376.12 C317.00,376.93 316.61,376.92 315.60,376.08 C314.83,375.44 314.00,372.80 313.76,370.21 C313.42,366.49 313.94,364.20 316.25,359.30 C319.26,352.88 319.51,350.00 317.11,349.20 C316.07,348.86 315.85,349.44 316.24,351.49 C316.97,355.30 313.83,358.54 311.07,356.81 C309.28,355.69 307.40,350.07 307.88,347.25 C307.99,346.56 307.62,346.00 307.04,346.00 C305.22,346.00 305.91,343.98 308.59,341.50 C311.56,338.75 311.05,337.00 307.27,337.00 C303.07,337.00 301.12,334.52 301.73,329.96 C302.13,326.99 301.88,325.89 300.70,325.44 C299.81,325.10 299.31,324.01 299.52,322.87 C299.74,321.74 299.24,320.65 298.34,320.30 C296.29,319.51 292.82,316.12 290.88,313.00 C288.97,309.92 287.91,306.00 288.99,306.00 C290.16,306.00 291.11,302.99 290.34,301.74 C289.94,301.09 289.35,301.53 288.87,302.83 C287.83,305.64 285.39,305.61 283.88,302.75 C283.23,301.51 281.75,299.60 280.60,298.50 C279.44,297.40 277.70,295.26 276.73,293.75 C275.75,292.24 274.40,290.99 273.73,290.97 C272.19,290.93 268.85,288.02 267.41,285.49 C266.81,284.43 264.52,282.61 262.31,281.45 C258.91,279.65 256.80,279.35 248.63,279.52 C241.28,279.68 238.52,280.12 237.15,281.37 C236.15,282.27 234.97,282.67 234.51,282.25 C234.05,281.84 233.98,282.33 234.34,283.34 C234.82,284.67 234.45,285.33 233.00,285.71 C231.89,286.00 231.00,287.07 231.00,288.12 C231.00,289.15 230.55,290.06 230.00,290.12 C229.45,290.19 228.51,290.31 227.92,290.38 C225.84,290.62 223.94,294.23 225.14,295.67 C225.98,296.68 225.86,297.00 224.62,297.00 C223.73,297.00 223.00,296.37 223.00,295.59 C223.00,294.64 222.30,294.37 220.83,294.75 C219.00,295.23 218.79,295.02 219.46,293.41 C219.91,292.36 220.20,290.29 220.12,288.82 C219.75,281.90 227.37,268.41 235.74,261.14 C238.36,258.86 241.45,256.10 242.61,255.00 C243.76,253.90 245.07,253.00 245.51,253.00 C245.95,253.00 247.70,251.98 249.41,250.73 C251.11,249.48 253.62,247.94 255.00,247.30 C266.71,241.85 272.88,239.14 275.00,238.52 C276.38,238.11 278.96,237.15 280.75,236.39 C282.54,235.62 285.69,234.28 287.75,233.40 C289.81,232.52 293.54,230.77 296.03,229.51 C298.52,228.25 302.57,226.66 305.03,225.98 C307.49,225.31 311.98,223.62 315.00,222.23 C318.02,220.84 324.08,218.64 328.45,217.35 C332.82,216.06 336.85,214.55 337.40,214.00 C337.95,213.45 339.19,213.00 340.16,213.00 C341.14,213.00 343.86,211.94 346.21,210.64 C348.57,209.34 352.30,207.73 354.50,207.07 C356.70,206.40 359.40,205.46 360.50,204.98 C361.60,204.49 366.10,202.89 370.50,201.42 C374.90,199.95 381.37,197.45 384.89,195.87 C388.40,194.29 391.88,193.00 392.61,193.00 C393.35,193.00 396.90,191.65 400.50,190.00 C404.10,188.35 407.51,187.00 408.07,187.00 C408.64,187.00 410.96,186.10 413.24,185.00 C415.51,183.90 417.97,183.00 418.70,183.00 C419.43,183.00 420.81,182.57 421.76,182.04 C422.72,181.51 428.23,179.22 434.00,176.96 C439.77,174.69 445.85,172.23 447.50,171.50 C455.01,168.15 479.07,159.00 480.38,159.00 C481.18,159.00 482.00,158.51 482.20,157.91 C482.40,157.31 484.80,156.21 487.53,155.46 C494.24,153.63 513.84,146.36 517.22,144.46 C518.71,143.61 525.46,141.09 532.22,138.85 C538.97,136.61 545.81,134.11 547.41,133.28 C549.01,132.46 555.54,130.01 561.91,127.85 C568.28,125.69 575.75,122.85 578.50,121.55 C587.41,117.32 592.39,115.26 598.00,113.49 C601.03,112.53 604.62,111.28 606.00,110.71 C607.38,110.14 611.88,108.45 616.00,106.95 C620.12,105.45 627.10,102.86 631.50,101.20 C635.90,99.54 641.75,97.40 644.50,96.46 C647.25,95.51 650.26,94.36 651.19,93.90 C653.22,92.89 662.37,89.57 670.24,86.98 C673.40,85.94 678.94,83.72 682.56,82.05 C686.17,80.37 691.73,78.15 694.92,77.10 C698.12,76.06 705.62,73.36 711.61,71.11 C725.22,66.00 736.22,63.05 741.82,63.02 C744.19,63.01 747.00,62.53 748.07,61.96 C749.29,61.31 750.64,61.27 751.75,61.86 C752.71,62.37 756.10,63.05 759.27,63.37 C765.80,64.02 777.94,68.96 782.64,72.88 C788.18,77.50 790.45,79.17 792.56,80.17 C793.69,80.71 796.59,84.05 799.00,87.61 C801.41,91.16 804.00,94.58 804.75,95.21 C806.51,96.66 810.00,103.87 810.00,106.03 C810.00,106.94 810.89,108.49 811.98,109.48 C813.06,110.46 813.73,111.63 813.46,112.06 C813.19,112.50 813.42,113.14 813.98,113.49 C814.54,113.84 815.00,115.39 815.00,116.95 L 815.00 119.78 L 818.71 117.89 C823.55,115.42 834.43,115.32 839.72,117.70 C843.37,119.34 854.00,128.64 854.00,130.19 C854.00,130.61 857.52,136.48 861.82,143.23 C866.11,149.98 871.22,158.20 873.16,161.50 C875.10,164.80 881.10,174.70 886.49,183.50 C898.55,203.17 902.00,210.50 902.00,216.41 C902.00,224.49 898.87,229.22 888.50,236.83 C885.75,238.85 876.75,245.83 868.50,252.34 C860.25,258.85 843.38,272.11 831.00,281.81 C818.62,291.50 799.66,306.43 788.85,314.97 C778.05,323.51 765.03,333.65 759.92,337.50 C745.72,348.21 744.66,349.40 745.25,353.82 C745.88,358.56 748.70,364.13 757.74,378.52 C766.51,392.49 767.03,394.09 763.58,396.35 L 761.03 398.03 L 755.66 389.76 C735.44,358.64 732.29,351.31 736.55,345.23 C738.25,342.81 750.89,332.46 769.26,318.46 C775.73,313.53 783.88,307.25 787.37,304.50 C790.87,301.75 801.33,293.52 810.61,286.20 C819.90,278.89 829.75,271.17 832.50,269.05 C835.25,266.93 842.30,261.44 848.16,256.85 C854.02,252.26 862.05,246.02 866.00,243.00 C888.46,225.81 891.00,223.22 891.00,217.54 C891.00,216.23 891.44,215.02 891.98,214.83 C894.39,214.01 888.86,203.25 869.46,171.00 C846.76,133.27 844.92,130.53 841.05,128.53 C837.28,126.58 830.52,125.41 831.41,126.86 C831.91,127.66 830.69,127.92 827.31,127.75 C822.55,127.50 822.50,127.53 822.66,130.50 C822.93,135.39 824.86,148.97 825.43,149.88 C825.71,150.34 826.22,156.51 826.55,163.59 C826.88,170.67 827.17,176.69 827.20,176.98 C827.37,179.10 826.86,181.00 826.11,181.00 C825.05,181.00 823.90,176.03 823.67,170.48 C823.57,168.04 822.62,165.34 821.25,163.60 C820.01,162.02 819.00,159.73 819.00,158.51 C819.00,157.29 817.86,155.06 816.46,153.56 C812.33,149.10 810.52,145.79 810.84,143.32 C811.03,141.86 810.63,141.00 809.76,141.00 C807.84,141.00 803.00,135.76 803.00,133.70 C803.00,132.68 802.22,132.00 801.05,132.00 C799.98,132.00 798.74,131.44 798.30,130.75 C797.41,129.36 794.62,127.48 791.31,126.05 C790.11,125.52 788.62,124.17 788.02,123.03 C787.41,121.90 785.13,119.85 782.96,118.47 C780.78,117.10 779.00,115.34 779.00,114.55 C779.00,113.11 777.99,112.65 772.30,111.51 C770.53,111.15 768.85,110.09 768.55,109.15 C767.93,107.21 760.25,101.00 758.47,101.00 C757.83,101.00 756.45,100.04 755.40,98.87 C752.15,95.23 746.70,92.33 741.72,91.58 C738.62,91.12 736.51,90.18 735.73,88.93 C735.01,87.79 733.40,87.00 731.79,87.00 C730.16,87.00 728.67,86.25 728.07,85.13 C726.25,81.74 707.00,81.62 707.00,85.01 C707.00,85.59 707.79,86.33 708.75,86.65 C714.17,88.46 716.14,89.73 716.65,91.75 C717.32,94.42 718.68,94.60 721.17,92.35 C722.88,90.80 723.14,90.82 725.10,92.60 C726.25,93.64 729.28,94.95 731.84,95.51 C735.91,96.39 736.55,96.88 737.00,99.51 C737.42,101.99 738.04,102.55 740.60,102.80 C742.84,103.02 744.50,104.18 746.60,106.97 C748.19,109.10 750.85,111.44 752.50,112.17 C754.61,113.11 755.59,114.31 755.82,116.25 C756.10,118.70 756.54,119.00 759.87,119.00 C761.92,119.00 764.16,119.56 764.84,120.24 C765.52,120.92 767.73,121.95 769.75,122.51 C771.99,123.14 773.64,124.31 773.99,125.52 C774.90,128.69 778.40,133.99 779.60,133.99 C781.65,134.01 784.27,137.87 783.70,140.05 C783.25,141.75 783.83,142.45 786.63,143.62 C788.54,144.42 793.11,147.97 796.77,151.51 L 803.43 157.94 L 803.83 164.97 C804.07,169.30 804.66,172.01 805.36,172.03 C807.12,172.08 809.99,176.58 810.24,179.68 C810.37,181.22 811.30,183.30 812.32,184.32 C813.55,185.55 814.08,187.37 813.94,189.83 C813.51,197.06 813.76,197.61 818.00,198.88 L 822.00 200.08 L 820.00 204.00 C818.90,206.16 818.00,208.59 818.00,209.41 C818.00,211.90 807.97,223.11 804.41,224.60 C799.30,226.74 796.20,226.43 795.82,223.75 C795.45,221.13 792.43,220.65 792.64,223.25 C792.85,225.86 791.31,225.36 790.61,222.60 C789.80,219.36 784.67,217.48 782.51,219.63 C781.68,220.46 781.00,221.70 781.00,222.38 C781.00,223.06 780.40,224.43 779.68,225.43 C778.52,227.01 778.08,227.07 776.19,225.88 C774.25,224.68 773.85,224.77 772.45,226.76 C770.50,229.55 769.83,229.56 768.12,226.82 C766.94,224.92 766.99,224.48 768.54,223.34 C769.52,222.63 771.37,222.31 772.65,222.63 C774.52,223.10 775.17,222.68 776.01,220.47 C777.18,217.39 776.83,216.69 773.99,216.48 C772.88,216.40 771.78,217.13 771.45,218.17 C771.01,219.54 770.17,219.88 768.10,219.52 C765.07,218.98 765.19,218.73 764.59,227.50 C764.07,235.14 763.13,237.28 760.61,236.53 C758.08,235.77 755.73,235.18 754.86,235.08 C754.51,235.03 754.24,234.44 754.27,233.75 C754.42,229.63 753.61,227.76 750.33,224.66 C745.99,220.57 744.22,220.83 744.38,225.54 C744.50,228.88 746.34,230.88 747.53,228.95 C748.65,227.13 751.90,229.97 752.92,233.67 C754.14,238.08 753.52,239.35 750.50,238.59 C748.24,238.02 746.35,240.15 747.49,241.98 C747.99,242.80 742.83,244.15 742.07,243.40 C741.83,243.16 742.11,242.49 742.70,241.90 C743.45,241.15 743.45,240.01 742.72,238.06 C741.74,235.48 741.50,235.38 739.17,236.59 C737.48,237.46 736.08,237.58 734.90,236.94 C733.93,236.42 732.88,236.00 732.57,236.00 C731.55,236.00 731.97,240.87 733.05,241.53 C734.32,242.32 732.38,245.00 730.55,245.00 C729.88,245.00 729.38,246.01 729.42,247.24 C729.48,248.82 728.90,249.51 727.46,249.59 C726.34,249.66 723.72,250.27 721.65,250.95 C718.37,252.03 717.63,251.97 715.98,250.48 C714.27,248.93 713.94,248.92 712.54,250.32 C711.58,251.28 711.37,252.11 711.99,252.50 C713.30,253.30 713.30,256.70 711.99,257.51 C710.23,258.60 706.92,256.91 705.98,254.45 C705.14,252.24 704.90,252.17 702.42,253.46 C700.95,254.22 699.02,254.59 698.13,254.27 C693.31,252.59 688.00,249.83 687.30,248.64 C686.86,247.90 685.50,246.77 684.28,246.13 C682.55,245.22 682.18,244.36 682.60,242.23 C683.77,236.35 683.59,235.90 679.05,233.44 C676.60,232.12 674.22,230.35 673.75,229.52 C672.69,227.63 667.24,224.73 666.08,225.45 C664.63,226.35 663.22,223.72 662.47,218.70 C662.08,216.07 661.53,214.14 661.25,214.42 C660.12,215.55 657.00,212.78 657.00,210.65 C657.00,209.37 655.58,207.04 653.75,205.32 C651.96,203.65 649.69,201.09 648.70,199.64 C647.58,197.99 645.98,197.00 644.45,197.00 C643.10,197.00 642.00,196.55 642.00,196.00 C642.00,195.45 641.16,195.00 640.12,195.00 C638.84,195.00 638.06,194.05 637.65,191.98 C637.17,189.60 636.39,188.83 633.93,188.34 C630.40,187.63 629.18,185.55 630.78,182.98 C632.18,180.74 631.33,179.88 628.45,180.60 C627.01,180.96 624.83,180.28 622.35,178.69 C620.23,177.32 616.81,175.68 614.75,175.03 C612.69,174.38 611.00,173.47 611.00,173.01 C611.00,172.55 609.07,170.10 606.72,167.57 C603.02,163.60 601.79,162.91 597.57,162.49 C594.89,162.22 591.35,161.32 589.69,160.50 C588.04,159.67 585.94,159.00 585.02,159.00 C584.10,159.00 582.29,157.88 581.00,156.50 C579.49,154.89 577.56,154.00 575.58,153.99 C573.88,153.99 571.15,153.10 569.50,152.01 C567.85,150.92 565.71,150.28 564.75,150.58 C563.63,150.94 563.00,150.61 563.00,149.67 C563.00,148.00 560.91,147.00 557.40,147.00 C556.07,147.00 554.12,146.47 553.08,145.82 C551.61,144.90 549.95,144.93 545.70,145.95 C541.85,146.87 539.36,146.98 537.36,146.29 C533.64,145.01 528.77,146.55 529.21,148.85 C529.41,149.91 530.60,150.54 532.51,150.61 C535.72,150.74 546.23,153.42 548.26,154.64 C548.94,155.04 550.05,156.14 550.72,157.07 C551.55,158.22 554.13,158.99 558.72,159.48 C566.28,160.29 569.00,161.36 569.00,163.54 C569.00,164.39 569.94,165.00 571.28,165.00 C574.28,165.00 578.05,167.70 577.40,169.39 C576.94,170.59 578.34,171.21 584.50,172.55 C585.05,172.67 586.91,172.82 588.64,172.88 C591.04,172.97 593.09,174.31 597.28,178.50 C601.54,182.76 603.47,184.00 605.83,184.00 C607.51,184.00 609.18,184.48 609.54,185.06 C609.90,185.65 611.28,186.53 612.60,187.04 C615.27,188.05 618.99,193.48 619.00,196.38 C619.00,198.00 619.53,198.17 622.88,197.63 C625.70,197.18 627.11,197.42 628.01,198.51 C628.69,199.33 629.84,200.00 630.57,200.00 C631.29,200.00 632.47,200.83 633.19,201.84 C633.91,202.85 635.51,204.22 636.75,204.88 C638.57,205.84 639.00,206.93 639.00,210.54 C639.00,214.24 639.32,215.00 640.88,215.00 C641.91,215.00 643.32,215.68 644.00,216.50 C644.68,217.32 644.93,218.00 644.55,218.00 C643.14,218.00 648.34,224.20 650.62,225.24 C653.15,226.39 653.95,230.52 651.79,231.24 C651.12,231.46 652.13,232.73 654.04,234.07 C656.00,235.45 657.61,237.49 657.74,238.79 C657.99,241.07 658.87,242.45 662.32,245.94 C663.91,247.55 663.96,247.96 662.69,249.14 C661.43,250.32 661.52,250.76 663.37,252.50 C664.54,253.60 665.54,255.06 665.60,255.75 C665.66,256.44 665.77,257.41 665.85,257.91 C666.00,258.85 673.53,260.55 675.75,260.14 C676.44,260.02 677.00,260.79 677.00,261.87 C677.00,262.95 677.56,264.03 678.25,264.27 C678.94,264.50 677.92,265.04 676.00,265.45 C674.08,265.86 671.45,266.86 670.17,267.67 C668.89,268.49 667.21,268.91 666.43,268.61 C665.66,268.32 663.82,269.19 662.34,270.56 C660.28,272.47 659.93,273.33 660.83,274.23 C662.66,276.06 662.21,277.29 659.90,276.69 C656.85,275.89 655.15,276.85 655.72,279.05 C656.45,281.81 651.78,283.48 648.16,281.75 C645.29,280.38 644.16,276.72 645.94,274.57 C648.02,272.07 644.85,268.24 642.11,269.93 C641.15,270.52 641.16,272.18 642.11,277.59 C642.78,281.39 643.70,284.93 644.16,285.45 C645.27,286.71 645.23,289.00 644.10,289.00 C643.60,289.00 642.73,287.65 642.15,286.00 C641.35,283.72 640.49,283.00 638.54,283.00 C637.13,283.00 635.21,282.10 634.27,281.00 C632.26,278.65 630.00,278.37 630.00,280.47 C630.00,282.58 627.30,281.27 626.67,278.84 C626.27,277.33 625.62,276.98 624.07,277.48 C622.46,277.99 622.00,277.70 622.00,276.17 C622.00,273.57 619.34,272.60 618.72,274.98 C618.07,277.43 623.32,283.20 625.45,282.38 C626.58,281.95 626.85,282.22 626.43,283.33 C625.97,284.51 626.99,285.23 630.66,286.30 C636.27,287.93 637.14,290.34 632.30,290.81 C629.93,291.04 628.76,290.58 627.81,289.06 C626.23,286.54 623.01,286.33 622.97,288.75 C622.94,290.42 622.89,290.42 621.92,288.75 C620.68,286.62 618.56,286.41 619.36,288.50 C619.72,289.43 619.36,290.00 618.41,290.00 C617.57,290.00 617.15,290.44 617.48,290.97 C617.81,291.50 616.97,292.22 615.61,292.56 C614.25,292.90 613.33,293.70 613.57,294.34 C613.81,294.98 612.60,296.30 610.88,297.27 C607.49,299.20 605.01,298.29 604.98,295.13 C604.97,293.83 604.79,293.78 604.11,294.86 C603.63,295.61 601.11,296.46 598.49,296.75 C594.74,297.18 593.55,296.94 592.82,295.64 C591.67,293.59 590.00,293.50 590.00,295.50 C590.00,296.33 589.33,297.00 588.50,297.00 C587.67,297.00 586.99,297.56 586.97,298.25 C586.90,300.78 584.16,303.28 582.30,302.49 C581.31,302.08 579.49,301.60 578.25,301.44 C576.44,301.20 576.00,301.62 576.00,303.60 C576.00,306.57 573.59,307.74 571.32,305.86 C570.04,304.80 569.58,304.77 569.25,305.75 C569.02,306.44 568.20,307.00 567.42,307.00 C565.64,307.00 565.65,309.74 567.42,312.94 C568.65,315.15 568.56,315.56 566.48,317.19 C563.26,319.73 562.04,319.45 561.35,316.02 C560.50,311.76 558.18,310.04 556.46,312.38 C555.73,313.38 555.36,314.77 555.63,315.47 C555.89,316.17 555.42,317.01 554.57,317.33 C553.65,317.69 553.25,318.64 553.56,319.71 C554.04,321.30 553.95,321.29 552.80,319.61 C549.34,314.56 547.49,313.01 546.03,313.95 C545.22,314.47 544.91,315.24 545.33,315.67 C545.76,316.09 546.53,315.78 547.04,314.97 C547.55,314.16 547.97,313.95 547.97,314.50 C547.97,315.05 547.57,316.13 547.08,316.91 C545.94,318.70 546.79,321.02 548.36,320.41 C549.07,320.14 549.65,320.99 549.77,322.48 C549.97,324.88 549.73,325.00 544.74,324.98 C538.98,324.97 535.58,323.59 537.78,322.17 C538.49,321.71 538.78,320.59 538.43,319.67 C537.48,317.21 536.00,317.64 536.00,320.38 C536.00,322.08 535.14,323.11 533.00,324.00 C531.25,324.72 530.00,325.99 530.00,327.02 C530.00,328.08 528.84,329.21 527.14,329.80 C522.58,331.39 522.00,330.35 522.06,320.75 C522.09,315.98 520.24,315.87 517.26,320.48 C514.84,324.22 512.56,324.32 511.42,320.76 C510.55,318.00 503.09,311.00 501.03,311.00 C500.12,311.00 498.38,309.66 497.17,308.02 C495.96,306.38 493.62,304.34 491.98,303.49 C490.13,302.53 489.00,301.16 489.00,299.88 C489.00,298.65 488.19,297.60 487.00,297.29 C485.90,297.00 485.00,296.25 485.00,295.62 C485.00,294.99 483.99,294.03 482.75,293.49 C481.51,292.94 480.44,291.83 480.37,291.00 C480.29,290.17 480.18,288.71 480.12,287.75 C480.05,286.79 479.48,286.00 478.85,286.00 C476.52,286.00 469.13,279.38 466.88,275.27 C464.66,271.21 464.64,270.99 466.39,269.70 C468.12,268.44 468.07,268.28 465.58,266.64 C464.13,265.69 462.53,265.17 462.02,265.49 C460.32,266.54 451.97,263.77 450.22,261.58 C449.28,260.39 446.02,257.99 443.00,256.26 C439.98,254.53 435.11,250.86 432.19,248.10 C427.25,243.45 426.47,243.07 421.19,242.80 C415.81,242.52 415.48,242.35 415.18,239.75 C414.92,237.44 414.39,237.00 411.88,237.00 C408.22,237.00 404.29,235.03 401.08,231.60 C399.41,229.81 397.62,229.00 395.33,229.00 C392.63,229.00 392.00,228.61 392.00,226.93 C392.00,225.00 391.62,224.90 386.52,225.54 C381.21,226.20 381.00,226.14 380.00,223.51 C379.16,221.29 378.53,220.90 376.57,221.39 C375.15,221.75 374.01,221.53 373.78,220.85 C373.52,220.07 368.64,219.68 358.25,219.60 C345.39,219.52 342.83,219.75 341.43,221.15 C339.88,222.69 339.90,222.88 341.69,223.83 C342.87,224.47 344.16,224.51 345.05,223.95 C347.76,222.24 352.15,222.84 352.71,225.00 C353.29,227.22 355.57,227.69 356.31,225.75 C356.64,224.91 357.33,225.23 358.43,226.72 C359.71,228.46 360.71,228.81 363.03,228.34 C365.35,227.88 366.00,228.11 366.00,229.38 C366.00,230.52 366.90,231.00 369.02,231.00 C371.32,231.00 372.28,231.59 372.99,233.47 C373.91,235.91 375.26,236.50 381.80,237.39 C383.62,237.64 385.69,238.32 386.39,238.91 C387.10,239.50 387.92,239.75 388.20,239.46 C389.59,238.08 393.86,241.09 394.47,243.87 C394.98,246.17 395.81,247.00 398.07,247.43 C399.68,247.75 402.34,248.26 403.97,248.57 C405.61,248.89 408.39,250.50 410.15,252.14 C411.99,253.86 414.09,254.95 415.07,254.69 C417.49,254.06 418.56,254.98 420.34,259.25 C421.60,262.29 422.42,263.00 424.63,263.00 C428.62,263.00 432.04,266.56 431.35,270.01 C430.74,273.05 432.50,274.90 434.29,273.11 C435.86,271.54 438.62,271.73 442.85,273.71 C447.52,275.90 449.01,277.39 449.91,280.77 C450.31,282.27 451.28,283.49 452.07,283.50 C452.86,283.50 455.37,284.85 457.67,286.50 C461.51,289.27 464.00,293.80 464.00,298.02 C464.00,299.48 470.83,306.41 472.44,306.58 C473.02,306.64 474.06,306.76 474.75,306.85 C476.07,307.01 476.54,309.99 475.25,310.01 C474.84,310.01 474.01,311.08 473.40,312.38 C472.45,314.45 472.63,314.94 474.90,316.28 C476.33,317.13 479.30,318.14 481.50,318.54 C486.72,319.48 487.20,319.82 486.11,321.76 C485.57,322.73 485.56,324.35 486.10,325.75 C486.68,327.29 486.65,327.90 486.00,327.50 C484.32,326.46 484.89,329.85 486.75,332.01 C487.71,333.13 488.79,335.05 489.15,336.27 C489.74,338.30 489.81,338.26 489.90,335.75 C490.02,332.47 493.33,331.88 494.92,334.86 C495.73,336.36 495.46,336.92 493.56,337.79 L 491.20 338.87 L 495.57 343.63 C497.97,346.25 499.71,348.62 499.43,348.90 C499.15,349.18 497.87,348.20 496.59,346.71 C495.31,345.22 493.53,344.00 492.63,344.00 C491.74,344.00 491.00,343.65 491.00,343.21 C491.00,342.08 487.15,341.95 486.46,343.06 C486.14,343.58 485.01,344.00 483.94,344.00 C482.67,344.00 482.00,344.69 482.00,346.00 C482.00,347.10 481.55,348.00 481.00,348.00 C480.45,348.00 480.00,347.30 480.00,346.44 C480.00,345.52 479.53,345.17 478.85,345.60 C478.12,346.05 477.96,345.87 478.43,345.11 C478.84,344.45 478.63,343.26 477.96,342.46 C476.08,340.19 474.93,340.74 476.11,343.34 C476.80,344.86 476.87,347.25 476.31,350.09 C475.21,355.70 472.65,356.34 468.54,352.04 C466.94,350.37 464.86,349.00 463.92,349.00 C461.96,349.00 460.79,351.30 461.64,353.50 C461.95,354.33 461.72,355.00 461.11,355.00 C460.50,355.00 460.00,355.61 460.00,356.35 C460.00,357.10 458.60,358.87 456.89,360.28 C454.55,362.22 453.26,362.66 451.64,362.04 C450.46,361.59 449.56,360.50 449.64,359.61 C449.74,358.47 448.94,358.00 446.89,358.00 C444.47,358.00 444.00,358.41 444.00,360.50 C444.00,361.92 443.42,363.00 442.67,363.00 C441.28,363.00 441.07,365.69 442.32,367.70 C443.09,368.95 438.58,368.92 437.33,367.67 C436.97,367.30 435.94,367.00 435.05,367.00 C432.67,367.00 432.42,372.86 434.72,374.54 C435.70,375.25 436.15,376.18 435.73,376.61 C435.30,377.03 434.26,376.38 433.40,375.16 C432.55,373.94 431.12,373.07 430.24,373.22 C429.12,373.41 428.41,372.46 427.91,370.12 C427.08,366.17 426.05,365.35 422.27,365.57 C417.25,365.88 416.88,365.99 417.50,367.00 C418.75,369.02 416.20,367.93 414.82,365.86 C413.61,364.03 413.08,363.89 411.20,364.89 C409.58,365.76 408.40,365.78 406.75,364.98 L 404.50 363.89 L 406.75 365.85 C409.09,367.90 409.59,370.52 408.10,372.88 C407.62,373.64 406.72,373.95 406.11,373.57 C404.24,372.41 404.87,375.82 406.75,377.03 C408.25,377.99 408.27,378.08 406.83,377.64 C404.69,376.98 403.69,379.55 405.08,382.15 C406.03,383.93 405.94,384.04 404.22,383.12 C402.52,382.21 402.35,382.38 402.76,384.55 C403.02,385.90 402.67,387.70 401.97,388.53 C400.85,389.88 400.51,389.86 398.82,388.34 C397.78,387.40 397.14,386.07 397.40,385.40 C397.66,384.72 397.23,383.92 396.44,383.61 C395.65,383.31 395.00,382.55 395.00,381.92 C395.00,381.30 395.65,381.04 396.45,381.34 C397.33,381.68 398.14,381.13 398.52,379.95 C398.86,378.88 399.51,378.00 399.97,378.00 C400.44,378.00 400.57,377.09 400.28,375.97 C399.92,374.60 399.19,374.12 398.02,374.49 C395.60,375.26 393.02,374.10 393.63,372.52 C393.91,371.79 393.73,370.95 393.23,370.64 C392.73,370.33 392.25,371.93 392.16,374.19 C392.08,376.44 391.49,378.91 390.86,379.67 C389.92,380.80 389.19,380.46 386.77,377.77 L 383.83 374.50 L 384.15 378.00 C384.43,380.97 384.20,381.45 382.60,381.17 C380.41,380.79 379.04,382.55 379.02,385.77 C379.01,387.29 378.14,388.38 376.43,389.02 C373.26,390.23 371.71,390.27 372.42,389.13 C372.71,388.66 372.14,387.53 371.15,386.64 C369.45,385.09 369.37,385.17 369.79,388.00 C370.11,390.22 369.83,391.00 368.70,391.00 C367.86,391.00 367.02,390.66 366.83,390.25 C365.90,388.15 357.00,383.32 357.00,384.91 C357.00,385.38 358.01,386.04 359.25,386.38 C360.96,386.85 361.18,387.21 360.16,387.87 C359.04,388.59 359.04,389.09 360.15,390.87 C360.88,392.04 361.88,393.00 362.36,393.00 C362.85,393.00 362.68,393.67 362.00,394.50 C360.34,396.50 358.69,396.39 353.96,393.98 C351.78,392.87 350.00,392.43 350.00,393.01 C350.00,393.59 350.67,394.32 351.50,394.64 C353.41,395.37 353.46,397.00 351.57,397.00 C350.79,397.00 350.00,397.72 349.82,398.60 C349.65,399.47 347.80,400.78 345.72,401.49 C342.53,402.58 341.71,402.56 340.51,401.37 C339.73,400.58 339.32,399.33 339.61,398.57 C339.90,397.82 339.61,396.88 338.96,396.48 C338.06,395.92 338.06,395.58 338.97,395.02 C339.83,394.49 339.71,393.85 338.50,392.65 C337.60,391.74 336.53,391.00 336.13,391.00 C334.98,391.00 334.84,397.78 335.97,398.48 C336.54,398.83 337.00,400.28 337.00,401.69 C337.00,404.07 336.74,404.22 333.51,403.70 C330.96,403.28 329.79,403.55 329.15,404.69 C328.50,405.87 328.09,405.95 327.52,405.03 ZM 347.61 395.00 C347.55,393.35 347.00,392.00 346.39,392.00 C345.45,392.00 345.27,393.74 345.87,397.25 C345.94,397.66 346.39,398.00 346.86,398.00 C347.33,398.00 347.67,396.65 347.61,395.00 ZM 350.00 384.12 C350.00,383.64 349.33,382.68 348.50,382.00 C346.79,380.58 346.47,377.00 348.05,377.00 C348.74,377.00 348.78,376.42 348.15,375.30 C347.56,374.25 347.55,372.68 348.13,371.16 C348.64,369.82 348.82,368.49 348.53,368.19 C348.24,367.90 348.00,368.24 348.00,368.94 C348.00,369.66 347.35,369.96 346.51,369.64 C345.29,369.17 345.08,370.00 345.33,374.29 C345.64,379.52 347.60,385.00 349.16,385.00 C349.62,385.00 350.00,384.61 350.00,384.12 ZM 379.00 381.00 C379.00,380.45 378.55,380.00 378.00,380.00 C377.45,380.00 377.00,380.45 377.00,381.00 C377.00,381.55 377.45,382.00 378.00,382.00 C378.55,382.00 379.00,381.55 379.00,381.00 ZM 371.94 372.75 C371.91,372.06 370.55,370.45 368.92,369.16 L 365.96 366.81 L 368.08 370.41 C370.19,373.99 372.05,375.12 371.94,372.75 ZM 431.00 365.02 C431.00,364.43 432.00,364.50 433.53,365.19 C436.62,366.60 439.27,364.87 437.20,362.80 C436.54,362.14 436.00,360.79 436.00,359.80 C436.00,358.81 435.52,358.00 434.94,358.00 C434.36,358.00 434.15,358.43 434.47,358.95 C434.79,359.47 434.20,360.36 433.15,360.92 C431.68,361.71 430.86,361.50 429.49,359.99 C428.52,358.92 427.34,358.29 426.87,358.58 C426.39,358.88 425.95,358.30 425.88,357.31 C425.78,355.62 425.74,355.62 425.31,357.26 C425.06,358.23 424.43,358.77 423.92,358.45 C422.61,357.64 422.78,358.66 424.49,361.97 C426.11,365.11 431.00,367.40 431.00,365.02 ZM 414.00 356.97 C414.00,355.68 411.15,354.52 410.24,355.43 C409.86,355.80 410.22,356.53 411.03,357.04 C412.96,358.26 414.00,358.24 414.00,356.97 ZM 436.00 347.50 C436.00,346.12 435.61,345.00 435.14,345.00 C434.46,345.00 434.26,348.55 434.87,349.75 C435.40,350.78 436.00,349.57 436.00,347.50 ZM 457.30 326.37 C458.17,325.50 456.14,321.94 453.60,319.88 C450.75,317.56 450.31,318.34 452.90,321.12 C454.05,322.36 455.00,324.19 455.00,325.19 C455.00,327.00 456.10,327.56 457.30,326.37 ZM 305.36 321.50 C305.68,320.67 305.53,320.00 305.03,320.00 C304.53,320.00 304.74,318.81 305.49,317.36 C306.67,315.09 306.65,314.51 305.38,313.24 C304.57,312.43 303.64,312.02 303.33,312.34 C302.07,313.60 301.32,320.92 302.34,321.94 C303.80,323.40 304.68,323.27 305.36,321.50 ZM 563.48 300.25 C562.70,297.98 561.46,296.39 560.35,296.21 C558.62,295.94 558.61,296.00 560.25,297.01 C561.28,297.65 562.00,299.32 562.00,301.05 C562.00,302.89 562.52,304.00 563.38,304.00 C564.54,304.00 564.56,303.39 563.48,300.25 ZM 573.57 287.48 L 571.00 284.91 L 571.00 287.22 C571.00,288.65 571.85,289.90 573.25,290.52 C576.44,291.94 576.59,290.50 573.57,287.48 ZM 613.50 287.00 C613.16,286.45 612.46,286.00 611.94,286.00 C611.42,286.00 611.00,286.45 611.00,287.00 C611.00,287.55 611.70,288.00 612.56,288.00 C613.42,288.00 613.84,287.55 613.50,287.00 ZM 602.91 284.25 C602.17,283.29 601.47,282.34 601.35,282.15 C601.23,281.96 600.63,282.11 600.02,282.49 C598.57,283.38 600.61,286.00 602.74,286.00 C604.02,286.00 604.04,285.73 602.91,284.25 ZM 476.00 276.50 C475.32,275.67 474.36,275.00 473.88,275.00 C473.39,275.00 473.00,275.67 473.00,276.50 C473.00,277.36 473.90,278.00 475.12,278.00 C476.90,278.00 477.04,277.75 476.00,276.50 ZM 653.35 273.47 C652.75,271.90 651.74,271.59 650.68,272.66 C649.79,273.54 652.00,276.12 653.07,275.46 C653.53,275.17 653.66,274.28 653.35,273.47 ZM 726.00 245.06 C726.00,243.56 721.91,241.10 720.39,241.68 C718.43,242.43 718.66,244.77 720.75,245.31 C723.87,246.13 726.00,246.02 726.00,245.06 ZM 711.01 241.03 C709.69,236.44 709.03,235.73 707.39,237.09 C706.17,238.10 706.37,238.71 708.73,241.11 C710.25,242.67 711.58,243.96 711.68,243.97 C711.78,243.99 711.48,242.66 711.01,241.03 ZM 803.33 219.40 C803.02,218.62 803.25,217.41 803.82,216.71 C804.40,216.02 805.17,213.20 805.53,210.46 C806.14,205.91 805.95,205.22 803.46,202.73 C800.68,199.95 798.56,199.29 797.57,200.89 C796.71,202.27 799.80,210.13 801.76,211.56 C802.74,212.28 803.11,213.20 802.61,213.67 C802.12,214.13 801.53,213.94 801.28,213.25 C801.03,212.56 799.27,212.00 797.35,212.00 C795.44,212.00 793.04,211.56 792.03,211.02 C788.71,209.24 788.98,212.48 792.48,216.41 C794.88,219.10 796.64,220.15 798.86,220.22 C800.55,220.26 801.70,220.68 801.41,221.14 C801.13,221.60 801.57,221.72 802.38,221.41 C803.20,221.09 803.63,220.19 803.33,219.40 ZM 701.88 85.10 C703.94,83.79 702.28,82.00 699.00,82.00 C697.41,82.00 695.81,82.50 695.43,83.11 C694.67,84.35 696.69,85.97 699.00,85.97 C699.83,85.97 701.12,85.58 701.88,85.10 ZM 692.17 82.77 C691.62,82.22 690.64,82.11 689.98,82.51 C689.07,83.07 689.10,83.44 690.10,84.06 C691.80,85.11 693.48,84.08 692.17,82.77 ZM 253.32 399.23 C250.47,396.08 247.21,392.51 246.07,391.29 C244.93,390.08 244.00,388.66 244.00,388.15 C244.00,387.63 243.32,386.95 242.50,386.64 C241.68,386.32 241.00,385.37 241.00,384.53 C241.00,383.69 240.51,383.00 239.92,383.00 C239.32,383.00 239.03,382.44 239.28,381.75 C239.68,380.60 236.53,373.83 232.17,366.50 C229.75,362.44 227.58,352.80 228.38,349.64 C229.28,346.03 231.64,347.28 232.49,351.82 C232.87,353.84 233.67,356.10 234.28,356.83 C235.09,357.81 235.00,358.39 233.94,359.06 C232.94,359.69 232.88,359.97 233.75,359.98 C234.44,359.99 235.00,360.84 235.00,361.88 C235.00,362.91 235.68,364.32 236.50,365.00 C237.32,365.68 238.00,366.90 238.00,367.69 C238.00,368.49 238.68,369.82 239.50,370.64 C241.14,372.28 241.57,374.47 240.06,373.54 C239.48,373.18 239.48,374.20 240.06,376.22 C240.58,378.02 241.00,379.53 241.00,379.57 C241.00,379.62 242.01,379.62 243.25,379.58 C245.04,379.52 245.50,380.04 245.50,382.19 C245.50,383.68 246.50,385.81 247.75,386.98 C248.99,388.13 250.00,389.57 250.00,390.17 C250.00,390.78 251.12,392.31 252.49,393.58 C253.99,394.97 254.74,396.50 254.38,397.44 C254.01,398.42 254.34,399.00 255.28,399.00 C256.58,399.00 260.00,402.96 260.00,404.46 C260.00,405.97 258.00,404.41 253.32,399.23 ZM 363.25 403.26 C361.82,402.77 361.56,399.39 362.89,398.57 C364.23,397.74 365.84,400.28 365.13,402.10 C364.78,402.98 363.94,403.50 363.25,403.26 ZM 383.85 393.20 C383.77,392.54 383.65,391.44 383.60,390.75 C383.45,388.85 392.75,388.90 393.48,390.80 C393.95,392.02 393.78,392.06 392.52,391.02 C391.48,390.15 391.00,390.11 391.00,390.88 C391.00,391.49 389.96,392.00 388.70,392.00 C387.43,392.00 385.86,392.54 385.20,393.20 C384.27,394.13 383.97,394.13 383.85,393.20 ZM 412.87 386.81 C411.12,383.64 410.79,381.00 412.13,381.00 C412.90,381.00 412.86,380.54 412.01,379.51 C410.54,377.74 411.36,375.00 413.36,375.00 C415.08,375.00 416.55,378.32 415.06,378.81 C413.51,379.33 413.77,381.91 415.55,383.69 C417.27,385.41 417.14,388.12 415.32,388.73 C414.67,388.94 413.56,388.08 412.87,386.81 ZM 417.00 382.00 C417.00,381.45 417.45,381.00 418.00,381.00 C418.55,381.00 419.00,381.45 419.00,382.00 C419.00,382.55 418.55,383.00 418.00,383.00 C417.45,383.00 417.00,382.55 417.00,382.00 ZM 493.47 349.95 C492.52,348.41 493.82,347.42 495.10,348.70 C495.82,349.42 495.84,349.98 495.16,350.40 C494.60,350.75 493.84,350.55 493.47,349.95 ZM 225.13 344.39 C224.50,342.99 224.24,341.43 224.55,340.91 C224.87,340.39 223.78,334.92 222.13,328.74 C218.15,313.86 216.66,298.94 218.92,296.68 C219.43,296.17 220.10,296.75 220.52,298.06 C220.91,299.30 222.39,301.39 223.81,302.70 C225.44,304.21 225.74,304.84 224.64,304.42 C222.47,303.58 220.21,306.42 220.56,309.55 C220.69,310.79 221.78,312.78 222.96,313.96 C224.15,315.15 225.03,317.11 224.91,318.31 C224.80,319.52 225.05,321.30 225.47,322.29 C225.90,323.27 225.96,325.86 225.61,328.04 C225.20,330.58 225.36,332.00 226.05,332.00 C226.64,332.00 226.83,332.47 226.47,333.04 C226.12,333.62 226.58,335.24 227.51,336.65 C228.67,338.42 228.99,340.24 228.55,342.57 C227.73,346.94 226.57,347.56 225.13,344.39 ZM 592.31 305.13 C591.37,303.62 591.41,302.82 592.49,301.36 C593.80,299.58 593.89,299.58 594.56,301.31 C594.94,302.30 594.86,303.99 594.38,305.07 C593.52,307.00 593.48,307.00 592.31,305.13 ZM 882.15 225.50 C886.93,219.99 887.31,218.46 885.07,213.74 C883.96,211.41 879.08,202.98 874.22,195.00 C861.11,173.50 842.39,141.79 841.47,139.50 C841.02,138.40 840.60,136.42 840.53,135.10 C840.42,132.95 840.81,133.16 844.24,137.10 C847.86,141.25 854.24,150.88 861.90,163.78 C863.77,166.93 868.75,175.12 872.97,182.00 C889.51,208.96 888.48,206.85 888.42,213.81 C888.35,219.93 888.22,220.24 883.95,224.31 C881.53,226.61 880.72,227.15 882.15,225.50 Z" fill="rgb(238,228,209)"/>
</g>
</svg>